<?xml version="1.0" encoding="UTF-8" standalone="no"?>
<svg
   xmlns:dc="http://purl.org/dc/elements/1.1/"
   xmlns:cc="http://creativecommons.org/ns#"
   xmlns:rdf="http://www.w3.org/1999/02/22-rdf-syntax-ns#"
   xmlns:svg="http://www.w3.org/2000/svg"
   xmlns="http://www.w3.org/2000/svg"
   xmlns:sodipodi="http://sodipodi.sourceforge.net/DTD/sodipodi-0.dtd"
   xmlns:inkscape="http://www.inkscape.org/namespaces/inkscape"
   width="138.82516mm"
   height="139.22102mm"
   viewBox="0 0 138.82516 139.22102"
   version="1.1"
   id="svg8"
   inkscape:version="1.0.1 (3bc2e813f5, 2020-09-07)"
   sodipodi:docname="favicon.svg">
  <defs
     id="defs2" />
  <sodipodi:namedview
     id="base"
     pagecolor="#ffffff"
     bordercolor="#666666"
     borderopacity="1.0"
     inkscape:pageopacity="0.0"
     inkscape:pageshadow="2"
     inkscape:zoom="0.7"
     inkscape:cx="809.04645"
     inkscape:cy="136.30077"
     inkscape:document-units="mm"
     inkscape:current-layer="layer1"
     inkscape:document-rotation="0"
     showgrid="false"
     inkscape:window-width="1920"
     inkscape:window-height="1122"
     inkscape:window-x="-8"
     inkscape:window-y="-8"
     inkscape:window-maximized="1" />
  <metadata
     id="metadata5">
    <rdf:RDF>
      <cc:Work
         rdf:about="">
        <dc:format>image/svg+xml</dc:format>
        <dc:type
           rdf:resource="http://purl.org/dc/dcmitype/StillImage" />
        <dc:title></dc:title>
      </cc:Work>
    </rdf:RDF>
  </metadata>
  <g
     inkscape:label="Ebene 1"
     inkscape:groupmode="layer"
     id="layer1"
     transform="translate(-39.995467,-10.63394)">
    <path
       id="path833-1"
       style="fill:#f2b90d;fill-opacity:1;stroke:#000001;stroke-width:5.36202;stroke-linejoin:round;stroke-miterlimit:4;stroke-dasharray:none;paint-order:markers stroke fill;stop-color:#000000"
       d="m 109.38815,13.314949 c -12.882486,-0.01447 -25.736066,3.809064 -36.516112,10.862386 1.988442,23.827442 -10.042257,48.12759 -30.195572,60.993693 1.537861,24.010282 17.196323,46.399162 39.221957,56.080602 21.743177,10.06347 48.759137,7.06265 67.764917,-7.5251 15.16413,-11.29109 25.06108,-29.28545 26.47629,-48.138474 -20.32561,-12.648094 -32.63578,-36.852182 -30.88997,-60.72738 0.3392,-2.234153 -3.12857,-2.513597 -4.50872,-3.766807 -9.60998,-5.099933 -20.47332,-7.795229 -31.35279,-7.77892 z" />
    <path
       id="path833"
       style="fill:none;stroke:#000001;stroke-width:4.23333;stroke-linejoin:round;stroke-miterlimit:4;stroke-dasharray:none;paint-order:markers stroke fill;stop-color:#000000"
       d="m 109.42433,50.497693 c -17.416321,-0.217834 -34.231958,11.022772 -40.689318,27.199243 -6.856294,16.002602 -2.905915,35.827684 9.560447,47.980094 4.181691,4.18426 9.217477,7.50979 14.707648,9.71265 -10.152568,-7.21553 -14.117964,-21.65612 -9.074119,-33.04454 4.632371,-11.519652 17.680272,-18.739367 29.900262,-16.555162 12.40174,1.776585 22.57102,12.922621 23.20594,25.434862 0.70831,9.26731 -3.66338,18.71015 -11.18964,24.16432 16.24113,-6.29296 27.6517,-22.99373 27.61052,-40.411369 0.39195,-17.374704 -10.62589,-34.270463 -26.68321,-40.918502 -5.4628,-2.345342 -11.40352,-3.564957 -17.34853,-3.561596 z" />
    <path
       id="path833-6"
       style="fill:none;stroke:#000001;stroke-width:4.23333;stroke-linejoin:round;stroke-miterlimit:4;stroke-dasharray:none;paint-order:markers stroke fill;stop-color:#000000"
       d="m 137.09951,50.022041 c 0.153,11.292914 -7.39195,22.147939 -18.03016,25.940262 -10.56955,4.095157 -23.425778,0.763772 -30.675717,-7.950077 -7.485551,-8.512187 -8.786816,-21.729052 -3.102784,-31.536897 5.412331,-9.960725 17.373751,-15.731189 28.538181,-13.775886 11.17331,1.646378 20.68907,10.822871 22.73983,21.929072 0.35275,1.774717 0.53077,3.584094 0.53065,5.393526 z" />
    <path
       id="path867"
       style="fill:none;stroke:#000000;stroke-width:4.23333;stroke-linecap:butt;stroke-linejoin:miter;stroke-miterlimit:4;stroke-dasharray:none;stroke-opacity:1"
       d="m 109.23512,85.460417 c 0,-11.717262 0,-23.434523 0,-35.151785" />
  </g>
</svg>
