<?xml version="1.0" standalone="no"?>
<!DOCTYPE svg PUBLIC "-//W3C//DTD SVG 20010904//EN"
 "http://www.w3.org/TR/2001/REC-SVG-20010904/DTD/svg10.dtd">
<svg version="1.0" xmlns="http://www.w3.org/2000/svg"
 width="526.000000pt" height="526.000000pt" viewBox="0 0 526.000000 526.000000"
 preserveAspectRatio="xMidYMid meet">
<metadata>
Created by potrace 1.11, written by Peter Selinger 2001-2013
</metadata>
<g transform="translate(0.000000,526.000000) scale(0.100000,-0.100000)"
fill="#000000" stroke="none">
<path d="M2425 5254 c-309 -33 -564 -96 -813 -200 -182 -76 -433 -218 -448
-254 -4 -8 -8 -114 -9 -235 -1 -146 -8 -257 -19 -330 -106 -691 -468 -1280
-1029 -1672 -42 -30 -82 -64 -88 -76 -21 -38 15 -313 66 -509 64 -247 193
-543 329 -756 420 -658 1081 -1084 1861 -1199 167 -24 533 -24 700 1 487 71
898 243 1274 533 128 100 374 351 474 484 290 389 467 833 519 1296 12 109 11
114 -9 140 -11 16 -58 54 -104 85 -462 316 -813 813 -964 1363 -60 220 -77
343 -82 605 -2 129 -6 245 -8 257 -10 45 -58 83 -198 157 -297 155 -563 243
-889 292 -99 15 -479 27 -563 18z m375 -104 c373 -28 702 -123 1029 -297 162
-86 149 -60 149 -291 1 -303 36 -516 132 -807 90 -268 252 -563 437 -795 136
-171 418 -425 570 -515 35 -21 35 -25 2 -233 -127 -785 -651 -1493 -1364
-1842 -371 -182 -722 -263 -1140 -262 -572 0 -1118 192 -1560 549 -503 406
-847 1014 -925 1633 -6 47 -12 100 -15 117 -3 31 1 36 78 90 495 348 860 895
1002 1498 44 187 57 301 61 534 l4 225 92 55 c425 251 961 378 1448 341z"/>
<path d="M2448 4885 c-463 -78 -836 -442 -924 -902 -22 -118 -21 -319 4 -435
l18 -86 -103 -97 c-224 -210 -372 -441 -468 -728 -56 -167 -75 -279 -82 -472
-7 -206 6 -331 52 -510 105 -407 336 -745 676 -987 116 -83 344 -201 388 -201
44 0 81 37 81 80 0 36 -7 45 -99 122 -122 101 -232 281 -288 466 -24 81 -27
106 -27 255 -1 188 13 256 84 408 129 276 389 474 701 538 62 12 113 15 208
11 149 -6 250 -30 370 -87 113 -54 191 -111 281 -206 119 -125 188 -242 237
-401 25 -81 27 -101 27 -263 0 -163 -2 -181 -28 -264 -53 -175 -168 -358 -287
-457 -92 -77 -99 -86 -99 -122 0 -41 38 -80 77 -80 16 0 60 14 99 31 516 227
908 734 1004 1299 15 85 20 163 20 292 1 213 -21 357 -80 535 -99 295 -243
522 -470 739 l-102 98 16 82 c25 128 29 223 17 340 -70 649 -668 1109 -1303
1002z m282 -155 c355 -44 652 -264 785 -580 57 -136 70 -206 70 -392 0 -113
-4 -171 -12 -179 -8 -8 -28 -1 -80 29 -162 95 -393 175 -599 208 -130 21 -391
23 -509 5 -230 -36 -464 -121 -652 -236 l-41 -25 -12 72 c-17 97 -8 281 19
383 26 100 104 260 169 346 166 218 457 366 747 378 17 0 69 -4 115 -9z m-190
-1490 l0 -430 -22 4 c-13 3 -50 10 -83 17 -200 38 -393 151 -532 312 -62 71
-153 219 -153 247 0 23 165 115 310 174 122 50 344 102 448 105 l32 1 0 -430z
m402 399 c176 -35 392 -120 531 -209 l47 -30 -26 -53 c-66 -131 -193 -280
-311 -363 -114 -82 -278 -147 -425 -168 l-48 -7 0 432 0 431 68 -7 c37 -3 111
-15 164 -26z m-1283 -436 c177 -300 487 -506 824 -548 l57 -7 0 -68 0 -67 -61
-7 c-148 -17 -351 -98 -497 -198 -324 -223 -514 -631 -472 -1016 13 -124 38
-226 83 -338 l34 -83 -36 29 c-140 112 -288 308 -381 503 -269 566 -190 1220
206 1697 55 67 176 190 187 190 2 0 27 -39 56 -87z m2092 0 c178 -185 293
-370 373 -602 66 -188 80 -279 80 -511 0 -174 -3 -221 -22 -306 -46 -213 -126
-400 -250 -585 -69 -102 -215 -269 -272 -309 l-29 -21 29 65 c190 419 96 920
-235 1251 -174 173 -396 286 -623 317 l-92 12 0 67 0 66 64 7 c330 34 657 253
833 558 25 43 48 78 52 78 5 0 46 -39 92 -87z"/>
</g>
</svg>
