<?xml version="1.0" encoding="UTF-8" standalone="no"?>
<svg
   xmlns:svg="http://www.w3.org/2000/svg"
   xmlns="http://www.w3.org/2000/svg"
   xmlns:sodipodi="http://sodipodi.sourceforge.net/DTD/sodipodi-0.dtd"
   xmlns:inkscape="http://www.inkscape.org/namespaces/inkscape"
   width="241.55609mm"
   height="134.48618mm"
   viewBox="0 0 241.55609 134.48618">
  <g
     transform="translate(17.391316,-15.523083)">
    <path
       style="opacity:1;vector-effect:none;fill:none;fill-opacity:1;stroke:#000000;stroke-width:1.05833328;stroke-linecap:round;stroke-linejoin:round;stroke-miterlimit:4;stroke-dasharray:none;stroke-dashoffset:0;stroke-opacity:1"
       d="m 222.78762,134.99906 c -7.10855,2.38272 -36.3109,14.75056 -57.19462,14.38717 -20.40693,6e-5 -36.95009,-9.5129 -36.9502,-21.2478 1.2e-4,-11.7349 16.54329,-21.24786 36.9502,-21.2478 8.77823,0.002 17.26844,1.80119 23.94996,5.07514 0.46473,-3.51727 0.71617,-7.05945 0.75292,-10.6071 -0.0502,-40.477935 -27.72691,-75.692316 -67.04655,-85.30642 h 2e-5 c 0.009,0.238458 0.015,0.47705 0.0191,0.715719 6e-5,15.751886 -9.68799,28.521448 -21.63899,28.521773 -11.951201,5.3e-5 -21.639565,-12.76962 -21.639504,-28.521773 0.0043,-0.132509 0.0093,-0.264976 0.01498,-0.397392 -38.619501,10.154 -65.54803,45.056039 -65.572224,84.988093 0.03178,3.85307 0.316784,7.69989 0.853178,11.51558 6.873407,-3.78568 16.022006,-5.90022 25.539526,-5.903 20.406915,-6e-5 36.950075,9.5129 36.950199,21.24779 2.65e-4,11.73511 -16.542932,21.24838 -36.950199,21.24832 -16.912159,0.48642 -48.7920136,-13.26429 -56.687437,-16.00985 -0.634157,-0.22053 -1.113585,-0.37005 -1.4181,-0.4355 m 241.349991,1.60558 c -0.26931,0.0491 -0.70224,0.17706 -1.28225,0.37147"
    /></g>
</svg>
