<svg xmlns="http://www.w3.org/2000/svg" width="1044" height="492" style="stroke:#000000;fill:transparent;"><rect width="1044" height="492" fill="#ffffff" stroke-width="0"/><g transform="matrix(1 0 0 1 0 0)"><path d="M 205.89358573942695 112.96134731837475 A 144 144 0 0 1 316.10641426057293 112.96134731837472" fill="transparent" stroke-width="1" stroke="#000000"/><circle cx="261" cy="129" r="30" stroke-width="0" fill="#ffffff"/><path d="M 274.6197149921865 102.26980427434903 A 30 30 0 1 1 247.38028500781357 102.26980427434899" stroke-width="1" stroke="#000000"/><circle cx="273.34349029814194" cy="145.9893568818739" r="6" stroke-width="1" stroke="#000000"/><text text-anchor="middle" fill="#000000" style="font: 1em courier, monospace;" x="261" y="46">s</text><path d="M 316.10641426057293 112.96134731837472 A 144 144 0 0 1 394.03865268162525 190.89358573942698" fill="transparent" stroke-width="1" stroke="#000000"/><circle cx="336.3068721963673" cy="170.69312780363265" r="30" stroke-width="1" stroke="#000000"/><line x1="301.55761775302096" y1="152.98749831379035" x2="354.01250168620965" y2="205.44238224697898" stroke-width="1" stroke="#000000"/><text text-anchor="middle" fill="#000000" style="font: 1em courier, monospace;" x="405.2497833620557" y="105.75021663794428">i</text><path d="M 394.03865268162525 190.89358573942695 A 144 144 0 0 1 394.0386526816253 301.10641426057293" fill="transparent" stroke-width="1" stroke="#000000"/><path d="M 403.87499999999994 275.97889882900967 A 30 30 0 0 1 403.87499999999994 216.02110117099025" stroke-width="1" stroke="#000000"/><circle cx="384" cy="245.99999999999997" r="2.4000000000000004" stroke-width="0" fill="#000000"/><text text-anchor="middle" fill="#000000" style="font: 1em courier, monospace;" x="465" y="249.99999999999997">r</text><path d="M 394.0386526816253 301.10641426057293 A 144 144 0 0 1 316.10641426057305 379.03865268162525" fill="transparent" stroke-width="1" stroke="#000000"/><circle cx="362.82337649086287" cy="347.8233764908628" r="30" stroke-width="0" fill="#ffffff"/><path d="M 340.8295987075298 368.2261640165261 A 30 30 0 0 1 383.2261640165262 325.82959870752967" stroke-width="1" stroke="#000000"/><circle cx="347.97413408594537" cy="332.9741340859453" r="2.4000000000000004" stroke-width="0" fill="#000000"/><text text-anchor="middle" fill="#000000" style="font: 1em courier, monospace;" x="405.2497833620557" y="394.24978336205567">k</text><path d="M 316.10641426057305 379.03865268162525 A 144 144 0 0 1 205.89358573942707 379.0386526816253" fill="transparent" stroke-width="1" stroke="#000000"/><circle cx="261" cy="352.5" r="30" stroke-width="1" stroke="#000000"/><circle cx="248.65650970185806" cy="335.5106431181261" r="6" stroke-width="1" stroke="#000000"/><circle cx="261" cy="331.5" r="2.4000000000000004" stroke-width="0" fill="#000000"/><text text-anchor="middle" fill="#000000" style="font: 1em courier, monospace;" x="261.00000000000006" y="454">u</text><path d="M 205.8935857394271 379.0386526816253 A 144 144 0 0 1 127.96134731837475 301.10641426057305" fill="transparent" stroke-width="1" stroke="#000000"/><circle cx="178.26850660117395" cy="328.73149339882605" r="30" stroke-width="0" fill="#ffffff"/><path d="M 149.7368111123193 338.0020032300743 A 30 30 0 1 1 168.99799676992555 357.26318888768066" stroke-width="1" stroke="#000000"/><line x1="213.0177610445203" y1="346.43712288866834" x2="160.56287711133163" y2="293.9822389554797" stroke-width="1" stroke="#000000"/><text text-anchor="middle" fill="#000000" style="font: 1em courier, monospace;" x="116.75021663794433" y="394.2497833620557">l</text><path d="M 127.96134731837475 301.10641426057305 A 144 144 0 0 1 127.96134731837472 190.89358573942707" fill="transparent" stroke-width="1" stroke="#000000"/><circle cx="154.5" cy="246.00000000000003" r="30" stroke-width="1" stroke="#000000"/><circle cx="171.48935688187387" cy="233.65650970185808" r="6" stroke-width="1" stroke="#000000"/><text text-anchor="middle" fill="#000000" style="font: 1em courier, monospace;" x="57" y="250.00000000000006">a</text><path d="M 127.9613473183746 190.89358573942735 A 144 144 0 0 1 205.89358573942695 112.96134731837475" fill="transparent" stroke-width="1" stroke="#000000"/><path d="M 181.17040129247013 123.77383598347393 A 30 30 0 0 1 138.77383598347373 166.1704012924704" stroke-width="1" stroke="#000000"/><circle cx="174.02586591405455" cy="159.02586591405478" r="2.4000000000000004" stroke-width="0" fill="#000000"/><text text-anchor="middle" fill="#000000" style="font: 1em courier, monospace;" x="116.75021663794413" y="105.75021663794448">r</text><path d="M 710.8751083189723 173.8751083189721 A 102 102 0 0 1 855.1248916810279 173.87510831897214" fill="transparent" stroke-width="1" stroke="#000000"/><circle cx="783" cy="171" r="30" stroke-width="0" fill="#ffffff"/><path d="M 796.6197149921866 144.269804274349 A 30 30 0 1 1 769.3802850078135 144.26980427434899" stroke-width="1" stroke="#000000"/><circle cx="783" cy="192" r="2.4000000000000004" stroke-width="0" fill="#000000"/><text text-anchor="middle" fill="#000000" style="font: 1em courier, monospace;" x="783" y="88">f</text><path d="M 855.1248916810277 173.87510831897205 A 102 102 0 0 1 855.1248916810279 318.12489168102786" fill="transparent" stroke-width="1" stroke="#000000"/><circle cx="858" cy="246" r="30" stroke-width="0" fill="#ffffff"/><path d="M 884.730195725651 259.6197149921864 A 30 30 0 1 1 884.7301957256511 232.3802850078138" stroke-width="1" stroke="#000000"/><line x1="845.9483372193771" y1="208.908795864489" x2="845.9483372193771" y2="283.091204135511" stroke-width="1" stroke="#000000"/><text text-anchor="middle" fill="#000000" style="font: 1em courier, monospace;" x="945" y="249.99999999999997">l</text><path d="M 855.1248916810279 318.12489168102786 A 102 102 0 0 1 710.8751083189723 318.1248916810279" fill="transparent" stroke-width="1" stroke="#000000"/><circle cx="783" cy="310.5" r="30" stroke-width="1" stroke="#000000"/><circle cx="770.6565097018581" cy="293.5106431181261" r="6" stroke-width="1" stroke="#000000"/><circle cx="783" cy="289.5" r="2.4000000000000004" stroke-width="0" fill="#000000"/><text text-anchor="middle" fill="#000000" style="font: 1em courier, monospace;" x="783" y="412">u</text><path d="M 710.8751083189723 318.124891681028 A 102 102 0 0 1 710.8751083189723 173.8751083189721" fill="transparent" stroke-width="1" stroke="#000000"/><circle cx="681" cy="246.00000000000003" r="30" stroke-width="0" fill="#ffffff"/><path d="M 683.25 216.08449398723133 A 30 30 0 0 1 683.25 275.91550601276873" stroke-width="1" stroke="#000000"/><circle cx="697.9893568818738" cy="233.65650970185808" r="6" stroke-width="1" stroke="#000000"/><circle cx="702" cy="246.00000000000003" r="2.4000000000000004" stroke-width="0" fill="#000000"/><text text-anchor="middle" fill="#000000" style="font: 1em courier, monospace;" x="621" y="250.00000000000006">x</text></g></svg>