<svg xmlns="http://www.w3.org/2000/svg" width="787.5" height="200" style="stroke:#000000;fill:transparent;"><rect width="787.5" height="200" fill="#ffffff" stroke-width="0"/><g transform="matrix(1 0 0 1 0 0)"><circle cx="112.5" cy="100" r="50" fill="#ffffff" stroke-width="2.5" stroke="#000000"/><circle cx="148.14026096753472" cy="118.15961998958187" r="4" stroke-width="2.5" stroke="#000000"/><circle cx="130.65961998958187" cy="135.64026096753472" r="4" stroke-width="2.5" stroke="#000000"/><circle cx="112.5" cy="100" r="20" fill="#ffffff" stroke-width="2.5" stroke="#000000"/><text text-anchor="middle" fill="#000000" style="font: 1em courier, monospace;" x="112.5" y="20">dɒ</text><circle cx="96.31966011250105" cy="88.24429495415055" r="12.5" fill="#ffffff" stroke-width="1" stroke="#000000"/><circle cx="96.31966011250105" cy="88.24429495415055" r="7.5" stroke-width="2.5" stroke="#000000"/><circle cx="225" cy="100" r="50" fill="#ffffff" stroke-width="2.5" stroke="#000000"/><circle cx="225" cy="100" r="42.5" stroke-width="1" stroke="#000000"/><line x1="225" y1="100" x2="244.29459623893072" y2="62.13222272199436" stroke-width="1" stroke="#000000"/><text text-anchor="middle" fill="#000000" style="font: 1em courier, monospace;" x="225" y="20">ktə</text><line x1="225" y1="100" x2="259.38322226093527" y2="75.01912677756988" stroke-width="2.5" stroke="#000000"/><line x1="225" y1="100" x2="218.35153523579018" y2="141.97675447529335" stroke-width="2.5" stroke="#000000"/><circle cx="225" cy="100" r="20" fill="#ffffff" stroke-width="2.5" stroke="#000000"/><circle cx="208.81966011250105" cy="88.24429495415055" r="12.5" fill="#ffffff" stroke-width="2.5" stroke="#000000"/><circle cx="208.81966011250105" cy="88.24429495415055" r="7.5" stroke-width="2.5" stroke="#000000"/><circle cx="337.5" cy="100" r="50" fill="#ffffff" stroke-width="2.5" stroke="#000000"/><circle cx="337.5" cy="100" r="42.5" stroke-width="1" stroke="#000000"/><line x1="337.5" y1="100" x2="356.79459623893075" y2="62.13222272199436" stroke-width="1" stroke="#000000"/><line x1="337.5" y1="100" x2="318.20540376106925" y2="137.86777727800563" stroke-width="1" stroke="#000000"/><circle cx="337.5" cy="100" r="20" fill="#ffffff" stroke-width="2.5" stroke="#000000"/><circle cx="337.5" cy="100" r="17" stroke-width="1" stroke="#000000"/><text text-anchor="middle" fill="#000000" style="font: 1em courier, monospace;" x="337.5" y="20">z</text><text text-anchor="middle" fill="#000000" style="font: 1em courier, monospace;" x="450" y="20"></text><circle cx="562.5" cy="100" r="50" fill="#ffffff" stroke-width="2.5" stroke="#000000"/><circle cx="562.5" cy="100" r="42.5" stroke-width="1" stroke="#000000"/><line x1="562.5" y1="100" x2="581.7945962389307" y2="62.13222272199436" stroke-width="1" stroke="#000000"/><circle cx="562.5" cy="100" r="20" fill="#ffffff" stroke-width="2.5" stroke="#000000"/><circle cx="562.5" cy="100" r="17" stroke-width="1" stroke="#000000"/><text text-anchor="middle" fill="#000000" style="font: 1em courier, monospace;" x="562.5" y="20">kɒ</text><circle cx="546.3196601125011" cy="88.24429495415055" r="12.5" fill="#ffffff" stroke-width="1" stroke="#000000"/><circle cx="546.3196601125011" cy="88.24429495415055" r="7.5" stroke-width="2.5" stroke="#000000"/><circle cx="675" cy="100" r="50" fill="#ffffff" stroke-width="2.5" stroke="#000000"/><line x1="675" y1="100" x2="722.5528258147576" y2="84.54915028125262" stroke-width="2.5" stroke="#000000"/><line x1="675" y1="100" x2="652.3004750130226" y2="144.5503262094184" stroke-width="2.5" stroke="#000000"/><circle cx="675" cy="100" r="20" fill="#ffffff" stroke-width="2.5" stroke="#000000"/><text text-anchor="middle" fill="#000000" style="font: 1em courier, monospace;" x="675" y="20">t</text><text text-anchor="middle" fill="#000000" style="font: 1em courier, monospace;" x="112.5" y="220"></text></g></svg>