<svg xmlns="http://www.w3.org/2000/svg" width="1140" height="570" style="stroke:#000000;fill:transparent;"><rect width="1140" height="570" fill="#ffffff" stroke-width="0"/><g transform="matrix(1 0 0 1 0 0)"><path d="M 374.99999999999994 440.88457268119896 A 180 180 0 0 1 195.00000000000006 440.88457268119896" fill="transparent" stroke-width="1" stroke="#000000"/><circle cx="285" cy="465" r="30" stroke-width="0" fill="#ffffff"/><path d="M 255.08257078673654 462.77571825764596 A 30 30 0 0 1 314.91742921326346 462.77571825764596" stroke-width="1" stroke="#000000"/><circle cx="280.3069660487931" cy="435.3693497821459" r="3.75" stroke-width="0" fill="#000000"/><circle cx="289.6930339512069" cy="435.3693497821459" r="3.75" stroke-width="0" fill="#000000"/><text text-anchor="middle" fill="#000000" style="font: 1em courier, monospace;" x="285" y="529">she</text><circle cx="285" cy="465" r="15" stroke-width="1" stroke="#000000"/><path d="M 465 284.9999999999998 A 180 180 0 0 1 375 440.88457268119896" fill="transparent" stroke-width="1" stroke="#000000"/><circle cx="440.88457268119896" cy="375" r="30" stroke-width="0" fill="#ffffff"/><path d="M 423.9995735805147 399.7971128434318 A 30 30 0 0 1 453.9170027937782 347.97860541421414" stroke-width="1" stroke="#000000"/><circle cx="411.54014465918476" cy="368.7626492754672" r="3.75" stroke-width="0" fill="#000000"/><circle cx="414.9038105676658" cy="360" r="3.75" stroke-width="0" fill="#000000"/><circle cx="420.8106544904332" cy="352.7056552356782" r="3.75" stroke-width="0" fill="#000000"/><text text-anchor="middle" fill="#000000" style="font: 1em courier, monospace;" x="492.8460969082653" y="409">r</text><path d="M 375 129.11542731880104 A 180 180 0 0 1 465 285" fill="transparent" stroke-width="1" stroke="#000000"/><circle cx="408.4086200392825" cy="213.75000000000003" r="30" stroke-width="1" stroke="#000000"/><line x1="414.6459707638153" y1="243.0944280220142" x2="420.88332148834803" y2="272.43885604402834" stroke-width="1" stroke="#000000"/><line x1="405.2727661412529" y1="243.58565686104822" x2="402.13691224322326" y2="273.42131372209644" stroke-width="1" stroke="#000000"/><line x1="396.2065207470085" y1="241.15636372927807" x2="384.0044214547345" y2="268.5627274585561" stroke-width="1" stroke="#000000"/><text text-anchor="middle" fill="#000000" style="font: 1em courier, monospace;" x="492.8460969082653" y="169.00000000000006">ma</text><circle cx="463.61773953054046" cy="181.87500000000006" r="15" stroke-width="1" stroke="#000000"/><path d="M 194.99999999999991 129.11542731880107 A 180 180 0 0 1 375 129.11542731880104" fill="transparent" stroke-width="1" stroke="#000000"/><circle cx="285" cy="142.5" r="30" stroke-width="1" stroke="#000000"/><line x1="294.27050983124843" y1="171.0316954888546" x2="303.5410196624968" y2="199.56339097770922" stroke-width="1" stroke="#000000"/><text text-anchor="middle" fill="#000000" style="font: 1em courier, monospace;" x="285.00000000000006" y="49">n</text><path d="M 105 285 A 180 180 0 0 1 195.00000000000006 129.11542731880104" fill="transparent" stroke-width="1" stroke="#000000"/><path d="M 45 285.00000000000006 A 240 240 0 0 1 165.00000000000006 77.15390309173472" fill="transparent" stroke-width="1" stroke="#000000"/><line x1="85.59296505806381" y1="153.69872545837467" x2="107.35419618843244" y2="174.3493627291873" stroke-width="1" stroke="#000000"/><line x1="71.58624322670951" y1="177.9590793177645" x2="100.35083527275529" y2="186.4795396588822" stroke-width="1" stroke="#000000"/><text text-anchor="middle" fill="#000000" style="font: 1em courier, monospace;" x="77.15390309173478" y="168.9999999999999">'</text><path d="M 194.9999999999999 440.88457268119885 A 180 180 0 0 1 105 284.9999999999999" fill="transparent" stroke-width="1" stroke="#000000"/><circle cx="129.11542731880098" cy="374.9999999999999" r="30" stroke-width="0" fill="#ffffff"/><path d="M 116.08299720622176 347.97860541421403 A 30 30 0 0 1 146.00042641948522 399.7971128434317" stroke-width="1" stroke="#000000"/><line x1="122.87807659426822" y1="345.6555719779857" x2="116.64072586973548" y2="316.31114395597154" stroke-width="1" stroke="#000000"/><line x1="132.2512812168306" y1="345.16434313895166" x2="135.3871351148602" y2="315.3286862779035" stroke-width="1" stroke="#000000"/><line x1="141.31752661107504" y1="347.5936362707219" x2="153.5196259033491" y2="320.18727254144386" stroke-width="1" stroke="#000000"/><text text-anchor="middle" fill="#000000" style="font: 1em courier, monospace;" x="77.15390309173463" y="408.99999999999983">s</text><path d="M 954.6296002635744 422.12838054655344 A 169.5 169.5 0 0 1 755.3703997364258 422.12838054655356" fill="transparent" stroke-width="1" stroke="#000000"/><circle cx="855" cy="454.5" r="30" stroke-width="0" fill="#ffffff"/><path d="M 825.0985078756768 452.07085020242914 A 30 30 0 0 1 884.9014921243232 452.07085020242914" stroke-width="1" stroke="#000000"/><line x1="826.4683045111454" y1="445.22949016875157" x2="797.9366090222908" y2="435.95898033750314" stroke-width="1" stroke="#000000"/><line x1="830.7294901687516" y1="436.8664424312258" x2="806.4589803375031" y2="419.2328848624516" stroke-width="1" stroke="#000000"/><line x1="837.3664424312258" y1="430.22949016875157" x2="819.7328848624517" y2="405.95898033750314" stroke-width="1" stroke="#000000"/><text text-anchor="middle" fill="#000000" style="font: 1em courier, monospace;" x="855" y="518.5">si</text><circle cx="855" cy="454.5" r="15" stroke-width="1" stroke="#000000"/><line x1="855" y1="439.5" x2="855" y2="409.5" stroke-width="1" stroke="#000000"/><path d="M 1016.2040795120286 232.62161945344639 A 169.5 169.5 0 0 1 954.6296002635742 422.12838054655356" fill="transparent" stroke-width="1" stroke="#000000"/><circle cx="1016.2040795120286" cy="337.3783805465536" r="30" stroke-width="0" fill="#ffffff"/><path d="M 1004.6537515444073 365.06574090900756 A 30 30 0 0 1 1023.1338899915762 308.189723045436" stroke-width="1" stroke="#000000"/><circle cx="986.2040795120286" cy="337.3783805465536" r="3.75" stroke-width="0" fill="#000000"/><circle cx="987.672384023174" cy="328.1078707153052" r="3.75" stroke-width="0" fill="#000000"/><circle cx="991.9335696807801" cy="319.7448229777794" r="3.75" stroke-width="0" fill="#000000"/><text text-anchor="middle" fill="#000000" style="font: 1em courier, monospace;" x="1073.2674704897377" y="359.9194002090504">r</text><path d="M 855 115.5 A 169.5 169.5 0 0 1 1016.2040795120286 232.62161945344639" fill="transparent" stroke-width="1" stroke="#000000"/><circle cx="932.5876533026064" cy="178.20975674250695" r="30" stroke-width="1" stroke="#000000"/><circle cx="918.96793831042" cy="204.939952468158" r="3.75" stroke-width="0" fill="#000000"/><circle cx="911.37444986701" cy="199.42296017810338" r="3.75" stroke-width="0" fill="#000000"/><text text-anchor="middle" fill="#000000" style="font: 1em courier, monospace;" x="989.8967154011226" y="103.33059979094958">ku</text><circle cx="932.5876533026064" cy="178.20975674250695" r="15" stroke-width="1" stroke="#000000"/><line x1="941.4044320869936" y1="166.07450182688274" x2="959.0379896557678" y2="141.80399199563436" stroke-width="1" stroke="#000000"/><path d="M 693.7959204879714 232.6216194534465 A 169.5 169.5 0 0 1 854.9999999999999 115.5" fill="transparent" stroke-width="1" stroke="#000000"/><circle cx="777.4123466973936" cy="178.20975674250695" r="30" stroke-width="1" stroke="#000000"/><circle cx="801.682856528642" cy="195.84331431128112" r="3.75" stroke-width="0" fill="#000000"/><circle cx="795.0459042661678" cy="202.48026657375536" r="3.75" stroke-width="0" fill="#000000"/><circle cx="786.682856528642" cy="206.74145223136156" r="3.75" stroke-width="0" fill="#000000"/><text text-anchor="middle" fill="#000000" style="font: 1em courier, monospace;" x="720.1032845988774" y="103.3305997909496">la</text><circle cx="739.9410368637483" cy="126.63492335110408" r="15" stroke-width="1" stroke="#000000"/><path d="M 755.3703997364258 422.12838054655356 A 169.5 169.5 0 0 1 693.7959204879714 232.62161945344647" fill="transparent" stroke-width="1" stroke="#000000"/><circle cx="693.7959204879714" cy="337.37838054655356" r="30" stroke-width="0" fill="#ffffff"/><path d="M 686.8661100084238 308.1897230454359 A 30 30 0 0 1 705.3462484555928 365.0657409090075" stroke-width="1" stroke="#000000"/><circle cx="718.0664303192199" cy="319.74482297777934" r="3.75" stroke-width="0" fill="#000000"/><circle cx="722.3276159768261" cy="328.1078707153051" r="3.75" stroke-width="0" fill="#000000"/><circle cx="723.7959204879714" cy="337.37838054655356" r="3.75" stroke-width="0" fill="#000000"/><text text-anchor="middle" fill="#000000" style="font: 1em courier, monospace;" x="636.7325295102622" y="359.9194002090504">r</text></g></svg>