<svg xmlns="http://www.w3.org/2000/svg" width="476" height="204" style="stroke:#000000;fill:transparent;"><rect width="476" height="204" fill="#ffffff" stroke-width="0"/><g transform="matrix(1 0 0 1 0 0)"><circle cx="102" cy="122.39999999999999" r="44" fill="#ffffff" stroke-width="1" stroke="#000000"/><circle cx="102" cy="122.39999999999999" r="41.8" stroke-width="1" stroke="#000000"/><text text-anchor="middle" fill="#000000" style="font: 1em courier, monospace;" x="102" y="20.39999999999999">cc</text><circle cx="102" cy="122.39999999999999" r="32" fill="#ffffff" stroke-width="1" stroke="#000000"/><circle cx="102" cy="122.39999999999999" r="30.4" stroke-width="1" stroke="#000000"/><text text-anchor="middle" fill="#000000" style="font: 1em courier, monospace;" x="170" y="20.39999999999999"></text><circle cx="238" cy="122.39999999999999" r="68" fill="#ffffff" stroke-width="1" stroke="#000000"/><line x1="238" y1="122.39999999999999" x2="224.73385810290324" y2="55.70660093258033" stroke-width="1" stroke="#000000"/><line x1="238" y1="122.39999999999999" x2="171.30660093258032" y2="135.66614189709674" stroke-width="1" stroke="#000000"/><circle cx="187.11405972708422" cy="88.39910173920035" r="6.800000000000001" fill="#ffffff" stroke-width="1" stroke="#000000"/><circle cx="187.11405972708422" cy="88.39910173920035" r="4.08" stroke-width="1" stroke="#000000"/><text text-anchor="middle" fill="#000000" style="font: 1em courier, monospace;" x="238" y="20.39999999999999">gall</text><circle cx="238" cy="122.39999999999999" r="56" fill="#ffffff" stroke-width="1" stroke="#000000"/><circle cx="238" cy="122.39999999999999" r="53.199999999999996" stroke-width="1" stroke="#000000"/><circle cx="191.43647156143115" cy="103.11275500879947" r="5.6000000000000005" stroke-width="0" fill="#000000"/><circle cx="238" cy="122.39999999999999" r="43.99999999999999" fill="#ffffff" stroke-width="1" stroke="#000000"/><line x1="238" y1="122.39999999999999" x2="213.55490974713751" y2="85.81533705868802" stroke-width="1" stroke="#000000"/><line x1="238" y1="122.39999999999999" x2="201.415337058688" y2="146.8450902528625" stroke-width="1" stroke="#000000"/><circle cx="238" cy="122.39999999999999" r="31.999999999999993" fill="#ffffff" stroke-width="1" stroke="#000000"/><line x1="238" y1="122.39999999999999" x2="215.37258300203047" y2="99.77258300203047" stroke-width="1" stroke="#000000"/><line x1="238" y1="122.39999999999999" x2="215.3725830020305" y2="145.0274169979695" stroke-width="1" stroke="#000000"/><circle cx="306" cy="122.39999999999999" r="68" fill="#ffffff" stroke-width="1" stroke="#000000"/><circle cx="306" cy="122.39999999999999" r="64.6" stroke-width="1" stroke="#000000"/><circle cx="255.11405972708422" cy="88.39910173920035" r="6.800000000000001" fill="#ffffff" stroke-width="1" stroke="#000000"/><circle cx="255.11405972708422" cy="88.39910173920035" r="4.08" stroke-width="1" stroke="#000000"/><text text-anchor="middle" fill="#000000" style="font: 1em courier, monospace;" x="306" y="20.39999999999999">ifre</text><circle cx="306" cy="122.39999999999999" r="56" fill="#ffffff" stroke-width="1" stroke="#000000"/><line x1="306" y1="122.39999999999999" x2="284.56972778755494" y2="70.66274617936794" stroke-width="1" stroke="#000000"/><line x1="306" y1="122.39999999999999" x2="254.26274617936795" y2="143.83027221244504" stroke-width="1" stroke="#000000"/><circle cx="259.4364715614311" cy="103.11275500879947" r="5.6000000000000005" fill="#ffffff" stroke-width="1" stroke="#000000"/><circle cx="306" cy="122.39999999999999" r="43.99999999999999" fill="#ffffff" stroke-width="1" stroke="#000000"/><path d="M 273.0738033528192 144.40058122757625 A 39.599999999999994 39.599999999999994 0 0 1 283.9994187724238 89.4738033528192" stroke-width="1" stroke="#000000"/><line x1="306" y1="122.39999999999999" x2="269.415337058688" y2="146.8450902528625" stroke-width="1" stroke="#000000"/><line x1="306" y1="122.39999999999999" x2="281.5549097471375" y2="85.81533705868802" stroke-width="1" stroke="#000000"/><circle cx="271.44915811991723" cy="103.05059883672058" r="4.3999999999999995" stroke-width="0" fill="#000000"/><circle cx="266.67448910458495" cy="127.05448093933036" r="4.3999999999999995" stroke-width="0" fill="#000000"/><circle cx="306" cy="122.39999999999999" r="31.999999999999993" fill="#ffffff" stroke-width="1" stroke="#000000"/><circle cx="306" cy="122.39999999999999" r="30.39999999999999" stroke-width="1" stroke="#000000"/><circle cx="277.2" cy="122.39999999999999" r="3.1999999999999993" fill="#ffffff" stroke-width="1" stroke="#000000"/><circle cx="374" cy="122.39999999999999" r="56" fill="#ffffff" stroke-width="1" stroke="#000000"/><circle cx="374" cy="122.39999999999999" r="50.4" stroke-width="3" stroke="#000000"/><circle cx="342.7976649547844" cy="82.82002668361042" r="5.6000000000000005" stroke-width="0" fill="#000000"/><circle cx="325.49225608273616" cy="108.71940132680027" r="5.6000000000000005" fill="#ffffff" stroke-width="1" stroke="#000000"/><text text-anchor="middle" fill="#000000" style="font: 1em courier, monospace;" x="374" y="20.39999999999999">yan</text><circle cx="374" cy="122.39999999999999" r="43.99999999999999" fill="#ffffff" stroke-width="1" stroke="#000000"/><circle cx="374" cy="122.39999999999999" r="41.79999999999999" stroke-width="1" stroke="#000000"/><circle cx="337.41437051255303" cy="107.24573607834245" r="4.3999999999999995" stroke-width="0" fill="#000000"/><circle cx="374" cy="122.39999999999999" r="31.999999999999993" fill="#ffffff" stroke-width="1" stroke="#000000"/><path d="M 350.0536751656867 138.40042271096453 A 28.799999999999994 28.799999999999994 0 0 1 357.99957728903547 98.45367516568669" stroke-width="1" stroke="#000000"/><line x1="374" y1="122.39999999999999" x2="347.39297240631856" y2="140.17824745662725" stroke-width="1" stroke="#000000"/><line x1="374" y1="122.39999999999999" x2="356.22175254337276" y2="95.79297240631855" stroke-width="1" stroke="#000000"/><circle cx="345.753383924387" cy="116.7813987259355" r="3.1999999999999993" fill="#ffffff" stroke-width="1" stroke="#000000"/><text text-anchor="middle" fill="#000000" style="font: 1em courier, monospace;" x="102" y="224.39999999999998"></text></g></svg>