<svg xmlns="http://www.w3.org/2000/svg" width="759.5" height="379.75" style="stroke:#000000;fill:transparent;"><rect width="759.5" height="379.75" fill="#ffffff" stroke-width="0"/><g transform="matrix(1 0 0 1 0 0)"><circle cx="189.875" cy="189.875" r="147.85793987907294" stroke-width="2" stroke="#000000"/><path d="m 154.7144021333333,116.24390868965516 c 5.895541866666666,-8.39204 17.392573066666664,-12.173802666666667 27.118739199999997,-8.920271999999999 10.021386666666666,3.020405333333333 17.281386666666666,13.097853333333333 16.972290666666666,23.56014933333333 0.004533333333333333,10.230671999999998 -7.186463999999999,19.919192 -16.980919999999998,22.876058666666665 -1.6996293333333332,0.5404586666666666 -3.4587866666666667,0.8933573333333333 -5.235352,1.0502586666666667" fill="false" stroke-width="2" stroke="#000000"/><path d="m 193.34226133333328,130.5403700229885 a 18.89881013333333,18.89881013333333 0 0 1 -18.8988104,18.898808 18.89881013333333,18.89881013333333 0 0 1 -18.89881013333333,-18.898808 18.89881013333333,18.89881013333333 0 0 1 18.89881013333333,-18.898810666666666 18.89881013333333,18.89881013333333 0 0 1 18.8988104,18.898810666666666 z" fill="false" stroke-width="4" stroke="#000000"/><path d="m 185.49249866666662,130.51517535632183 c 0.272016,6.686072 -6.991994666666667,12.212533333333333 -13.379284533333333,10.254901333333333 -6.2486728,-1.5029013333333332 -9.869424533333333,-9.329816 -6.763578666666666,-15.021311999999998 2.7646263999999996,-5.759573333333333 11.076867199999999,-7.759506666666667 16.0284472,-3.610061333333333 2.5450986666666666,1.9731013333333334 4.156050666666666,5.141901333333333 4.114416,8.376472 z m -32.8430104,22.84265333333333 c 19.75345253333333,-19.864018666666666 39.71360773333333,-39.526978666666665 59.21945839999999,-59.63432053333333 -0.3809066666666666,0.232616 -0.6669946666666666,0.5873261333333333 -0.9962986666666667,0.8819778666666667" fill="#000000" stroke-width="2" stroke="#000000"/><text text-anchor="middle" fill="#000000" style="font: 1em courier, monospace;" x="189.87499999999997" y="22.875">ta</text><path d="m 276.39167264367813,157.97924186666663 a 37.11440266666666,37.00158933333333 0 0 0 -16.467557333333332,3.9218968 12.4732144,12.4732144 0 0 1 0.881944,4.605403466666666 12.4732144,12.4732144 0 0 1 -12.474001600000001,12.472623200000001 12.4732144,12.4732144 0 0 1 -4.7680112,-0.9480906666666666 37.11440266666666,37.00158933333333 0 0 0 -4.123090133333333,16.948490666666665 37.11440266666666,37.00158933333333 0 0 0 0.6738605333333334,7.015594666666666 9.260416533333332,9.260416533333332 0 0 1 8.155229599999998,-4.872744 9.260416533333332,9.260416533333332 0 0 1 9.260416533333332,9.260416 9.260416533333332,9.260416533333332 0 0 1 -9.260416533333332,9.260418666666666 9.260416533333332,9.260416533333332 0 0 1 -2.787770933333333,-0.42994933333333335 37.11440266666666,37.00158933333333 0 0 0 27.24932773333333,16.570912 25.58851333333333,25.58851333333333 0 0 1 -3.4340719999999996,-12.801978666666665 25.58851333333333,25.58851333333333 0 0 1 25.58878933333333,-25.58878933333333 25.58851333333333,25.58851333333333 0 0 1 18.275546666666663,7.677050666666666 37.11440266666666,37.00158933333333 0 0 0 0.5071173333333333,-6.090930666666666 37.11440266666666,37.00158933333333 0 0 0 -1.9237386666666665,-11.757421333333333 16.756943999999997,16.756943999999997 0 0 1 -5.8346160000000005,1.0486879999999998 16.756943999999997,16.756943999999997 0 0 1 -16.756946666666664,-16.756944266666665 16.756943999999997,16.756943999999997 0 0 1 1.4359146666666665,-6.786837866666667 37.11440266666666,37.00158933333333 0 0 0 -14.035317333333333,-2.7478079999999996 37.11440266666666,37.00158933333333 0 0 0 -0.16261333333333333,0 z" fill="false" stroke-width="2" stroke="#000000"/><text text-anchor="middle" fill="#000000" style="font: 1em courier, monospace;" x="360.875" y="193.87499999999997">r</text><path d="m 236.43069333333332,276.5548673103448 a 41.450536,41.324543999999996 0 0 1 -41.450536,41.324543999999996 41.450536,41.324543999999996 0 0 1 -41.45053493333333,-41.324543999999996 41.450536,41.324543999999996 0 0 1 41.45053493333333,-41.32454559999999 41.450536,41.324543999999996 0 0 1 41.450536,41.32454559999999 z" fill="false" stroke-width="2" stroke="#000000"/><path d="m 194.81696,239.55395504367814 c -5.693394666666666,0.02008 -11.376546666666666,1.37276 -16.467557333333332,3.9218968 2.6365706666666666,6.160590666666666 -0.7650826666666666,13.9660776 -7.071698933333334,16.2304128 -2.9565373333333334,1.1622453333333334 -6.357663733333333,1.1254 -9.288370133333332,-0.10047999999999999 -3.7972658666666668,7.299962666666667 -5.035995733333333,15.889488 -3.4492296,23.964082666666663 2.4139573333333333,-4.840064 9.305571466666667,-6.419978666666666 13.586200266666667,-3.112984 4.495863733333334,3.0458453333333333 5.128543733333333,10.125938666666666 1.2431634666666667,13.920255999999998 -2.3629711999999996,2.509664 -6.186116266666667,3.4841013333333333 -9.4619048,2.4108693333333333 5.9837776,9.247421333333332 16.289749066666666,15.502328 27.24932773333333,16.570912 -5.653845333333333,-9.440658666666666 -4.154309333333333,-22.415544 3.501581333333333,-30.319184 7.48588,-8.229479999999999 20.537426666666665,-10.483946666666666 30.350178666666665,-5.2422293333333325 2.4335946666666666,1.2497173333333333 4.6641173333333334,2.8933919999999995 6.578501333333333,4.847695999999999 1.0029466666666667,-5.945805333333333 0.5105679999999999,-12.135013333333333 -1.416621333333333,-17.84834933333333 -7.606298666666666,3.0083466666666667 -17.017594666666668,-0.5945466666666666 -20.668879999999998,-7.914685866666667 -2.372344,-4.450577866666666 -2.557173333333333,-9.981518133333333 -0.4867653333333333,-14.5804104 -4.492672,-1.8325965333333332 -9.346063999999998,-2.770622133333333 -14.197925333333332,-2.7478079999999996 z" fill="false" stroke-width="1" stroke="#000000"/><path d="m 169.2823192,288.77609397701144 a 3.8851074666666663,3.8851074666666663 0 0 1 -3.8851074666666663,3.8851066666666663 3.8851074666666663,3.8851074666666663 0 0 1 -3.8851074666666663,-3.8851066666666663 3.8851074666666663,3.8851074666666663 0 0 1 3.8851074666666663,-3.8851093333333333 3.8851074666666663,3.8851074666666663 0 0 1 3.8851074666666663,3.8851093333333333 z" fill="#ffffff" stroke-width="1" stroke="#000000"/><text text-anchor="middle" fill="#000000" style="font: 1em courier, monospace;" x="189.875" y="364.875">di</text><path d="m 100.61114868965517,160.24611546666665 c -5.971003733333333,2.1785826666666663 -11.360554133333332,5.923931199999999 -15.479502933333332,10.765233866666666 5.850128,-1.9482399999999997 12.722372266666667,2.0030602666666666 13.985596266666665,8.037757333333332 1.5765253333333331,5.890525333333334 -2.648757333333333,12.461368 -8.668217866666666,13.459834666666666 -5.395265333333333,1.1709866666666666 -11.257947999999999,-2.363912 -12.732602133333332,-7.686893333333334 -2.0687968,7.175322666666666 -1.8771183999999999,14.978031999999999 0.5415690666666666,22.043098666666666 8.635044533333332,-4.739197333333333 20.299986933333333,-2.487104 26.551840266666666,5.124050666666666 4.6053999999999995,5.327338666666666 6.308810666666666,12.976005333333333 4.396141333333333,19.75366933333333 2.960584,0.3372933333333333 5.961672,0.31629599999999997 8.917285333333332,-0.062 -1.0301066666666667,-8.349677333333332 4.836952,-16.822410666666666 13.019143999999999,-18.787978666666667 4.540085333333333,-1.2091493333333332 9.550736,-0.478192 13.556322666666667,1.9772933333333331 2.566464,-4.0083839999999995 4.346397333333333,-8.517712 5.207605333333333,-13.198850666666667 -4.330834666666666,-1.5027253333333332 -6.066789333333333,-7.415669333333334 -3.2351333333333328,-11.020903999999998 0.8063359999999999,-1.1102426666666667 1.9359093333333333,-1.9816293333333332 3.214461333333333,-2.479736 -0.7161813333333332,-3.8188319999999996 -2.041384,-7.522418666666667 -3.9094906666666667,-10.929221333333333 -11.531856,6.234125333333333 -26.722946666666665,4.431333333333333 -36.476168,-4.327473599999999 -3.9250506666666665,-3.4261784 -7.002106666666666,-7.811406666666667 -8.888850666666666,-12.6678696 z" fill="false" stroke-width="2" stroke="#000000"/><text text-anchor="middle" fill="#000000" style="font: 1em courier, monospace;" x="18.875" y="193.875">s</text><circle cx="569.625" cy="189.875" r="147.85793987907294" stroke-width="2" stroke="#000000"/><path d="m 616.1806933333334,113.4054420229885 a 41.450536,41.324543999999996 0 0 1 -41.450536,41.324543999999996 41.450536,41.324543999999996 0 0 1 -41.45053493333333,-41.324543999999996 41.450536,41.324543999999996 0 0 1 41.45053493333333,-41.32454559999999 41.450536,41.324543999999996 0 0 1 41.450536,41.32454559999999 z" fill="false" stroke-width="2" stroke="#000000"/><path d="m 574.56696,76.40452975632184 c -14.42748,-0.10916266666666666 -28.37146106666667,9.062432 -33.93221573333333,22.384677599999996 -5.8051314666666665,13.029778666666667 -3.0315394666666666,29.260341333333333 6.752925599999999,39.635943999999995 6.056556533333333,6.620368 14.5922288,10.891194666666665 23.5192208,11.784349333333333 -5.653845333333333,-9.440658666666666 -4.154309333333333,-22.415544 3.501581333333333,-30.319184 7.48588,-8.229479999999999 20.537426666666665,-10.483946666666666 30.350178666666665,-5.2422293333333325 2.4335946666666666,1.2497173333333333 4.6641173333333334,2.8933919999999995 6.578501333333333,4.847695999999999 1.0029466666666667,-5.945805333333333 0.5105679999999999,-12.135013333333333 -1.416621333333333,-17.84834933333333 -7.606298666666666,3.0083466666666667 -17.017594666666668,-0.5945466666666666 -20.668879999999998,-7.914685866666667 -2.372344,-4.450577866666666 -2.557173333333333,-9.981518133333333 -0.4867653333333333,-14.5804104 -4.492672,-1.8325965333333332 -9.346063999999998,-2.770622133333333 -14.197925333333332,-2.7478079999999996 z" fill="false" stroke-width="1" stroke="#000000"/><path d="m 585.3508453333334,113.4054420229885 a 10.620698399999998,10.588415733333333 0 0 1 -10.620695999999999,10.588413333333332 10.620698399999998,10.588415733333333 0 0 1 -10.620698666666666,-10.588413333333332 10.620698399999998,10.588415733333333 0 0 1 10.620698666666666,-10.588415999999999 10.620698399999998,10.588415733333333 0 0 1 10.620695999999999,10.588415999999999 z m -10.337754666666665,-0.19168 c 36.02145066666667,-36.021452 35.96691733333333,-35.9669136 35.96691733333333,-35.9669136" fill="#000000" stroke-width="2" stroke="#000000"/><text text-anchor="middle" fill="#000000" style="font: 1em courier, monospace;" x="569.625" y="22.875">co</text><path d="m 688.9126859770115,194.98015466666664 a 32.607823999999994,32.50870933333333 0 0 1 -32.607823999999994,32.50870933333333 32.607823999999994,32.50870933333333 0 0 1 -32.607824799999996,-32.50870933333333 32.607823999999994,32.50870933333333 0 0 1 32.607824799999996,-32.50871146666667 32.607823999999994,32.50870933333333 0 0 1 32.607823999999994,32.50871146666667 z m 2.754018666666666,0 a 35.361845333333335,35.25436 0 0 1 -35.36184266666666,35.25435733333333 35.361845333333335,35.25436 0 0 1 -35.361845333333335,-35.25435733333333 35.361845333333335,35.25436 0 0 1 35.361845333333335,-35.254360266666666 35.361845333333335,35.25436 0 0 1 35.36184266666666,35.254360266666666 z" fill="false" stroke-width="1" stroke="#000000"/><path d="m 697.7554059770115,194.98015466666664 a 41.450536,41.324543999999996 0 0 1 -41.450536,41.324543999999996 41.450536,41.324543999999996 0 0 1 -41.45053493333333,-41.324543999999996 41.450536,41.324543999999996 0 0 1 41.45053493333333,-41.32454559999999 41.450536,41.324543999999996 0 0 1 41.450536,41.32454559999999 z" fill="false" stroke-width="2" stroke="#000000"/><text text-anchor="middle" fill="#000000" style="font: 1em courier, monospace;" x="740.625" y="193.87499999999997">n</text><path d="m 561.9358613333334,241.8208281103448 c -5.971003733333333,2.1785826666666663 -11.360554133333332,5.923931199999999 -15.479502933333332,10.765233866666666 5.850128,-1.9482399999999997 12.722372266666667,2.0030602666666666 13.985596266666665,8.037757333333332 1.5765253333333331,5.890525333333334 -2.648757333333333,12.461368 -8.668217866666666,13.459834666666666 -5.395265333333333,1.1709866666666666 -11.257947999999999,-2.363912 -12.732602133333332,-7.686893333333334 -2.0687968,7.175322666666666 -1.8771183999999999,14.978031999999999 0.5415690666666666,22.043098666666666 8.635044533333332,-4.739197333333333 20.299986933333333,-2.487104 26.551840266666666,5.124050666666666 4.6053999999999995,5.327338666666666 6.308810666666666,12.976005333333333 4.396141333333333,19.75366933333333 2.960584,0.3372933333333333 5.961672,0.31629599999999997 8.917285333333332,-0.062 -1.0301066666666667,-8.349677333333332 4.836952,-16.822410666666666 13.019143999999999,-18.787978666666667 4.540085333333333,-1.2091493333333332 9.550736,-0.478192 13.556322666666667,1.9772933333333331 2.566464,-4.0083839999999995 4.346397333333333,-8.517712 5.207605333333333,-13.198850666666667 -4.330834666666666,-1.5027253333333332 -6.066789333333333,-7.415669333333334 -3.2351333333333328,-11.020903999999998 0.8063359999999999,-1.1102426666666667 1.9359093333333333,-1.9816293333333332 3.214461333333333,-2.479736 -0.7161813333333332,-3.8188319999999996 -2.041384,-7.522418666666667 -3.9094906666666667,-10.929221333333333 -11.531856,6.234125333333333 -26.722946666666665,4.431333333333333 -36.476168,-4.327473599999999 -3.9250506666666665,-3.4261784 -7.002106666666666,-7.811406666666667 -8.888850666666666,-12.6678696 z" fill="false" stroke-width="2" stroke="#000000"/><path d="m 585.3508453333334,276.5548673103448 a 10.620698399999998,10.588415733333333 0 0 1 -10.620695999999999,10.588413333333332 10.620698399999998,10.588415733333333 0 0 1 -10.620698666666666,-10.588413333333332 10.620698399999998,10.588415733333333 0 0 1 10.620698666666666,-10.588415999999999 10.620698399999998,10.588415733333333 0 0 1 10.620695999999999,10.588415999999999 z m -10.337754666666665,-0.19168 c 36.02145066666667,-36.021452 35.96691733333333,-35.9669136 35.96691733333333,-35.9669136" fill="#000000" stroke-width="2" stroke="#000000"/><text text-anchor="middle" fill="#000000" style="font: 1em courier, monospace;" x="569.625" y="364.875">so</text><path d="m 509.5566526896552,223.56993066666666 c 1.721288,2.9813546666666664 3.442573333333333,5.962712 5.163861333333333,8.944066666666666 m -37.96627466666666,-8.944066666666666 c -1.81784,3.1485946666666664 -3.6356808,6.297186666666666 -5.453521066666667,9.445781333333333 m 5.453526399999999,-66.37333973333332 c -1.6506053333333333,-2.8589328 -3.301212533333333,-5.717865866666667 -4.951818666666666,-8.576798666666665 m 37.75422933333333,8.5768008 c 1.729728,-2.9959754666666663 3.4594533333333333,-5.9919512 5.189181333333333,-8.987926666666667 m 11.212021333333333,37.45170693333333 c 3.260968,0 6.521933333333333,0 9.782901333333333,0 m -75.3877224,-5.333333333333333e-6 c -3.1769746666666667,0 -6.3539496,0 -9.530924266666666,0 m 58.734539999999996,28.463781333333333 c -10.934138666666666,0 -21.868274666666665,0 -32.802413333333334,0 -5.467067733333334,-9.487925333333333 -10.9341352,-18.975853333333333 -16.40120293333333,-28.463778666666663 5.467068533333333,-9.487925333333333 10.934137066666667,-18.975853066666666 16.401205599999997,-28.463779466666665 10.934135999999999,5.333333333333333e-7 21.868274666666665,10.666666666666666e-7 32.80241066666666,16e-7 5.467069333333333,9.487925866666666 10.934135999999999,18.97585253333333 16.40120533333333,28.463777866666664 -5.467069333333333,9.487925333333333 -10.934135999999999,18.975853333333333 -16.40120533333333,28.463778666666663 z" fill="false" stroke-width="1" stroke="#000000"/><path d="m 511.36593802298853,226.64765066666666 c -12.140327999999998,0 -24.280658666666668,-26.666666666666664e-7 -36.420986666666664,-26.666666666666664e-7 -6.070163466666667,-10.513831999999999 -12.140326933333334,-21.027666666666665 -18.210490399999998,-31.541498666666662 6.070164266666667,-10.513831999999999 12.140328799999999,-21.02766533333333 18.210493066666665,-31.541498133333334 12.140327999999998,5.333333333333333e-7 24.280658666666668,13.333333333333332e-7 36.420986666666664,18.666666666666664e-7 6.070162666666667,10.513833066666667 12.140327999999998,21.027666933333332 18.210490666666665,31.541498933333333 -6.070165333333333,10.513831999999999 -12.140327999999998,21.027666666666665 -18.210493333333332,31.541498666666662 z" fill="false" stroke-width="2" stroke="#000000"/><path d="m 511.37389802298856,216.54999733333332 a 5.820833333333333,5.820833333333333 0 0 1 -5.820834666666666,5.820834666666666 5.820833333333333,5.820833333333333 0 0 1 -5.820832,-5.820834666666666 5.820833333333333,5.820833333333333 0 0 1 5.820832,-5.820832 5.820833333333333,5.820833333333333 0 0 1 5.820834666666666,5.820832 z" fill="#ffffff" stroke-width="1" stroke="#000000"/><text text-anchor="middle" fill="#000000" style="font: 1em courier, monospace;" x="398.625" y="193.875">le</text></g></svg>