<svg xmlns="http://www.w3.org/2000/svg" width="775.5" height="775.5" style="stroke:#000000;fill:transparent;"><rect width="775.5" height="775.5" fill="#ffffff" stroke-width="0"/><g transform="matrix(1 0 0 1 0 0)"><path d="M 402.36640786499873 207.98184605501936 A 24 24 0 1 1 402.36640786499873 179.76815394498064" stroke-width="1" stroke="#000000"/><path d="M 402.29734370342067 179.65228789543002 A 14.399999999999999 14.399999999999999 0 1 1 402.2973437034207 208.09771210456998" stroke-width="1" stroke="#000000"/><circle cx="375.53359213500124" cy="171.0496436089163" r="8" fill="#ffffff" stroke-width="1" stroke="#000000"/><text text-anchor="middle" fill="#000000" style="font: 1em courier, monospace;" x="387.74999999999994" y="62.875">klɒ</text><circle cx="387.75" cy="193.875" r="54" stroke-width="4" stroke="#000000"/><circle cx="435.86435230617184" cy="218.39048698593555" r="8" stroke-width="0" fill="#000000"/><line x1="469.54439892049214" y1="235.55132787609043" x2="435.86435230617184" y2="218.39048698593555" stroke-width="4" stroke="#000000"/><circle cx="377.2160548418777" cy="138.1621110118523" r="21" fill="#ffffff" stroke-width="1" stroke="#000000"/><circle cx="377.2160548418777" cy="138.1621110118523" r="10.5" stroke-width="0" fill="#000000"/><circle cx="373.93093107603283" cy="117.4206558593544" r="8" fill="#ffffff" stroke-width="1" stroke="#000000"/><line x1="341.9555810826313" y1="132.57740060991605" x2="356.4745996893798" y2="134.87698724600745" stroke-width="1" stroke="#000000"/><line x1="412.4765286011241" y1="143.74682141378852" x2="397.9575099943756" y2="141.44723477769713" stroke-width="1" stroke="#000000"/><path d="M 539.4567350675406 264.7665188524774 A 24 24 0 1 1 539.4567350675406 236.5528267424387" stroke-width="1" stroke="#000000"/><path d="M 539.3876709059626 236.43696069288808 A 14.399999999999999 14.399999999999999 0 1 1 539.3876709059626 264.88238490202804" stroke-width="1" stroke="#000000"/><circle cx="512.6239193375432" cy="227.83431640637437" r="8" fill="#ffffff" stroke-width="1" stroke="#000000"/><text text-anchor="middle" fill="#000000" style="font: 1em courier, monospace;" x="620.2997426627257" y="159.20025733727414">kwɜ</text><path d="M 557.7088404057024 266.6791137858553 A 43.2 43.2 0 0 1 491.23087600271685 288.2791137858553" stroke-width="4" stroke="#000000"/><path d="M 475.5375573978011 239.98004547185988 A 43.2 43.2 0 0 1 542.0155218007866 218.38004547185986" stroke-width="4" stroke="#000000"/><path d="M 541.8328425020583 218.22010978059714 A 25.92 25.92 0 1 1 557.6550575891501 266.91588067578556" stroke-width="4" stroke="#000000"/><circle cx="578.2516611576776" cy="233.305278393361" r="8" stroke-width="0" fill="#000000"/><circle cx="537.4173926247364" cy="195.37217488549032" r="21" fill="#ffffff" stroke-width="1" stroke="#000000"/><circle cx="537.4173926247364" cy="195.37217488549032" r="16.8" stroke-width="1" stroke="#000000"/><line x1="572.6778663839829" y1="200.95688528742656" x2="558.1588477772343" y2="198.65729865133517" stroke-width="1" stroke="#000000"/><circle cx="581.625" cy="387.74999999999994" r="30" stroke-width="4" stroke="#000000"/><circle cx="611.625" cy="387.74999999999994" r="8" stroke-width="0" fill="#000000"/><text text-anchor="middle" fill="#000000" style="font: 1em courier, monospace;" x="716.625" y="391.74999999999994">ɹk</text><path d="M 614.4935132031605 403.7694409883972 A 43.2 43.2 0 1 1 598.8001945982447 355.47037267440174" stroke-width="1" stroke="#000000"/><path d="M 598.6175152995164 355.310436983139 A 25.92 25.92 0 1 1 614.4397303866083 404.0062078783275" stroke-width="1" stroke="#000000"/><circle cx="548.015548800175" cy="355.47037267440174" r="8" fill="#ffffff" stroke-width="1" stroke="#000000"/><circle cx="387.75000000000006" cy="581.625" r="30" stroke-width="1" stroke="#000000"/><text text-anchor="middle" fill="#000000" style="font: 1em courier, monospace;" x="387.75000000000006" y="720.625">siɹ</text><circle cx="361.3879960164198" cy="550.8793540323236" r="21" fill="#ffffff" stroke-width="1" stroke="#000000"/><line x1="364.6731197822646" y1="530.1378988798257" x2="358.10287225057493" y2="571.6208091848215" stroke-width="1" stroke="#000000"/><circle cx="387.75000000000006" cy="581.625" r="75.6" stroke-width="4" stroke="#000000"/><circle cx="448.91168477474605" cy="537.1884349266891" r="8" stroke-width="0" fill="#000000"/><path d="M 265.2760806624569 538.9471732575613 A 24 24 0 1 1 265.2760806624569 510.7334811475226" stroke-width="1" stroke="#000000"/><path d="M 265.2070165008788 510.61761509797196 A 14.399999999999999 14.399999999999999 0 1 1 265.20701650087886 539.0630393071119" stroke-width="1" stroke="#000000"/><circle cx="238.44326493245939" cy="502.0149708114583" r="8" fill="#ffffff" stroke-width="1" stroke="#000000"/><text text-anchor="middle" fill="#000000" style="font: 1em courier, monospace;" x="155.20025733727425" y="624.2997426627259">kju</text><path d="M 279.41962185022356 538.8573380673896 A 37.8 37.8 0 1 1 265.68796807092224 496.5956532926436" stroke-width="4" stroke="#000000"/><path d="M 265.52812368453493 496.4557095627887 A 22.679999999999996 22.679999999999996 0 1 1 279.37256188574037 539.0645090960786" stroke-width="4" stroke="#000000"/><circle cx="221.25140299761128" cy="496.5956532926436" r="8" stroke-width="0" fill="#000000"/><line x1="297.394590008202" y1="509.6552320989571" x2="308.179570902989" y2="506.15097938274516" stroke-width="4" stroke="#000000"/><circle cx="299.1070620039734" cy="554.297762241466" r="21" fill="#ffffff" stroke-width="1" stroke="#000000"/><line x1="295.82193823812855" y1="533.5563070889681" x2="302.39218576981824" y2="575.0392173939639" stroke-width="1" stroke="#000000"/><circle cx="316.0964188858473" cy="566.6412525396079" r="8" fill="#ffffff" stroke-width="1" stroke="#000000"/><line x1="263.846588244727" y1="548.7130518395297" x2="278.3656068514755" y2="551.0126384756211" stroke-width="1" stroke="#000000"/><line x1="334.3675357632198" y1="559.8824726434023" x2="319.8485171564713" y2="557.5828860073109" stroke-width="1" stroke="#000000"/><circle cx="193.875" cy="387.75000000000006" r="30" stroke-width="4" stroke="#000000"/><circle cx="215.08820343559643" cy="408.9632034355965" r="8" stroke-width="0" fill="#000000"/><line x1="229.93744584051393" y1="423.812445840514" x2="215.08820343559643" y2="408.9632034355965" stroke-width="4" stroke="#000000"/><text text-anchor="middle" fill="#000000" style="font: 1em courier, monospace;" x="58.875" y="391.7500000000001">lɛ</text><circle cx="234.32603887019116" cy="389.7408426161515" r="21" fill="#ffffff" stroke-width="1" stroke="#000000"/><circle cx="234.32603887019116" cy="389.7408426161515" r="16.8" stroke-width="1" stroke="#000000"/><circle cx="387.75" cy="387.75" r="348.975" stroke-width="4" stroke="#000000"/><circle cx="387.75" cy="387.75" r="368.36249999999995" stroke-width="1" stroke="#000000"/><circle cx="220.96118798762294" cy="220.96118798762325" r="12" stroke-width="0" fill="#000000"/><circle cx="261.5300726917638" cy="210.09078809331737" r="6" stroke-width="0" fill="#000000"/><circle cx="291.2285575015988" cy="239.78927290315235" r="4" stroke-width="0" fill="#000000"/><text text-anchor="middle" fill="#000000" style="font: 1em courier, monospace;" x="155.2002573372739" y="159.20025733727445">.</text></g></svg>