<svg xmlns="http://www.w3.org/2000/svg" width="990.0000000000001" height="400" style="stroke:#000000;fill:transparent;"><defs><clipPath id="cp0"><circle cx="55.00000000000001" cy="100" r="33" transform="matrix(1 0 0 1 0 0)"/></clipPath><clipPath id="cp1"><polygon points="194.40321529821617,114.98168649140504 166.72708655601718,132.95477464690094 137.32387125780104,117.9730881554959 135.5967847017839,85.01831350859497 163.27291344398287,67.04522535309906 192.676128742199,82.02691184450408 194.40321529821617,114.98168649140504 " transform="matrix(1 0 0 1 0 0)"/></clipPath><clipPath id="cp2"><circle cx="495.00000000000006" cy="100" r="48" transform="matrix(1 0 0 1 0 0)"/></clipPath><clipPath id="cp3"><polygon points="634.4032152982163,114.98168649140504 606.7270865560173,132.95477464690094 577.3238712578011,117.9730881554959 575.5967847017839,85.01831350859497 603.2729134439829,67.04522535309906 632.6761287421991,82.02691184450408 634.4032152982163,114.98168649140504 " transform="matrix(1 0 0 1 0 0)"/></clipPath><clipPath id="cp4"><polygon points="757.7683131610418,121.79154398749824 717.5121258996614,147.93421766821956 674.7438127386198,126.14267368072132 672.2316868389585,78.20845601250178 712.4878741003388,52.065782331780454 755.2561872613804,73.85732631927867 757.7683131610418,121.79154398749823 " transform="matrix(1 0 0 1 0 0)"/></clipPath><clipPath id="cp5"><circle cx="55.00000000000001" cy="300" r="48" transform="matrix(1 0 0 1 0 0)"/></clipPath><clipPath id="cp6"><polygon points="194.40321529821617,314.98168649140507 166.72708655601718,332.95477464690094 137.32387125780104,317.97308815549593 135.5967847017839,285.018313508595 163.27291344398287,267.04522535309906 192.676128742199,282.02691184450407 194.40321529821617,314.981686491405 " transform="matrix(1 0 0 1 0 0)"/></clipPath><clipPath id="cp7"><circle cx="275.00000000000006" cy="300" r="33" transform="matrix(1 0 0 1 0 0)"/></clipPath><clipPath id="cp8"><polygon points="427.7683131610417,321.79154398749824 387.5121258996614,347.93421766821956 344.7438127386197,326.1426736807213 342.2316868389584,278.20845601250176 382.48787410033873,252.06578233178044 425.2561872613804,273.8573263192787 427.7683131610417,321.79154398749824 " transform="matrix(1 0 0 1 0 0)"/></clipPath></defs><rect width="990.0000000000001" height="400" fill="#ffffff" stroke-width="0"/><g transform="matrix(1 0 0 1 0 0)"><line x1="38.29038712850287" y1="21.7645295426384" x2="55.00000000000001" y2="100" stroke-width="1" stroke="#000000"/><line x1="122.13631226215787" y1="143.5053511172825" x2="55.00000000000001" y2="100" stroke-width="1" stroke="#000000"/><circle cx="55.00000000000001" cy="100" r="50" fill="#ffffff" stroke-width="1" stroke="#000000"/><text text-anchor="middle" fill="#000000" style="font: 1em courier, monospace;" x="55.00000000000001" y="184">gree</text><circle cx="44.18440519687684" cy="66.71302192966962" r="10.5" stroke-width="0" fill="#000000"/><circle cx="55.00000000000001" cy="100" r="35" fill="#ffffff" stroke-width="2" stroke="#000000"/><circle cx="55.00000000000001" cy="100" r="31.5" stroke-width="1" stroke="#000000"/><polygon points="69.31612886495,127.07284763969511 57.75236667940924,141.35290468146695 39.60359342097359,138.4784213863527 33.018582348078695,121.32388104946662 44.58234453361945,107.04382400769478 62.7311177920551,109.91830730280901 69.31612886495,127.07284763969508 " clip-path="url(#cp0)" stroke-width="1" stroke="#000000"/><polygon points="70.38699235634492,114.92671673462664 65.7774846053185,126.93489497044689 53.07334332441355,128.94703327702686 44.97870979453502,118.95099334778658 49.588217545561434,106.94281511196633 62.29235882646638,104.93067680538635 70.38699235634492,114.92671673462662 " clip-path="false" stroke-width="1" stroke="#000000"/><polygon points="200.3553390593274,135.35533905932738 152.05904774487402,148.2962913144534 116.70370868554662,112.94095225512605 129.64466094067265,64.64466094067262 177.94095225512604,51.70370868554658 213.29629131445344,87.05904774487392 200.3553390593274,135.35533905932738 " fill="#ffffff" stroke-width="1" stroke="#000000"/><text text-anchor="middle" fill="#000000" style="font: 1em courier, monospace;" x="165.00000000000003" y="184">nma</text><line x1="220.71199080034484" y1="105.67222011758135" x2="165.00000000000003" y2="100" stroke-width="1" stroke="#000000"/><line x1="121.59480820214915" y1="135.3834611788019" x2="165.00000000000003" y2="100" stroke-width="1" stroke="#000000"/><polygon points="196.1852283465929,115.88966749088414 166.83175846850307,134.95203371641009 135.6465301219102,119.06236622552595 133.81477165340715,84.11033250911588 163.168241531497,65.04796628358991 194.35346987808987,80.93763377447402 196.1852283465929,115.88966749088414 " fill="#ffffff" stroke-width="1" stroke="#000000"/><circle cx="161.16735560651438" cy="124.19836434458087" r="18.374999999999996" clip-path="url(#cp1)" stroke-width="1" stroke="#000000"/><polygon points="310.35533905932743,135.35533905932738 262.059047744874,148.2962913144534 226.70370868554664,112.94095225512605 239.64466094067268,64.64466094067262 287.9409522551261,51.70370868554658 323.29629131445347,87.05904774487392 310.35533905932743,135.35533905932738 " fill="#ffffff" stroke-width="1" stroke="#000000"/><text text-anchor="middle" fill="#000000" style="font: 1em courier, monospace;" x="275.00000000000006" y="184">n</text><line x1="562.8197556481527" y1="142.43207211325966" x2="495.00000000000006" y2="100" stroke-width="1" stroke="#000000"/><line x1="417.0401849516942" y1="117.95180318614095" x2="495.00000000000006" y2="100" stroke-width="1" stroke="#000000"/><circle cx="495.00000000000006" cy="100" r="50" fill="#ffffff" stroke-width="2" stroke="#000000"/><circle cx="495.00000000000006" cy="100" r="45" stroke-width="1" stroke="#000000"/><text text-anchor="middle" fill="#000000" style="font: 1em courier, monospace;" x="495.00000000000006" y="184">si</text><circle cx="479.1103325091159" cy="131.18522834659288" r="26.25" clip-path="url(#cp2)" stroke-width="0" fill="#000000"/><circle cx="605.0000000000001" cy="50" r="15" stroke-width="0" fill="#000000"/><circle cx="605.0000000000001" cy="100" r="50" fill="#ffffff" stroke-width="2" stroke="#000000"/><circle cx="605.0000000000001" cy="100" r="45" stroke-width="1" stroke="#000000"/><text text-anchor="middle" fill="#000000" style="font: 1em courier, monospace;" x="605.0000000000001" y="184">rku</text><circle cx="594.1844051968769" cy="66.71302192966962" r="14" fill="#ffffff" stroke-width="2" stroke="#000000"/><circle cx="594.1844051968769" cy="66.71302192966962" r="10.5" fill="#ffffff" stroke-width="1" stroke="#000000"/><polygon points="636.185228346593,115.88966749088414 606.8317584685032,134.95203371641009 575.6465301219102,119.06236622552595 573.8147716534072,84.11033250911588 603.1682415314971,65.04796628358991 634.35346987809,80.93763377447402 636.185228346593,115.88966749088414 " fill="#ffffff" stroke-width="1" stroke="#000000"/><polygon points="619.3161288649501,127.07284763969511 607.7523666794093,141.35290468146695 589.6035934209737,138.4784213863527 583.0185823480788,121.32388104946662 594.5823445336196,107.04382400769478 612.7311177920552,109.91830730280901 619.3161288649501,127.07284763969508 " clip-path="url(#cp3)" stroke-width="1" stroke="#000000"/><polygon points="616.896292430492,126.68958320034655 606.8743652030233,139.0656326365488 591.1454283790458,136.57441378078312 585.4384187825368,121.70714548881519 595.4603460100055,109.33109605261293 611.189282833983,111.8223149083786 616.896292430492,126.68958320034652 " clip-path="url(#cp3)" stroke-width="1" stroke="#000000"/><circle cx="715.0000000000001" cy="50" r="15" stroke-width="0" fill="#000000"/><polygon points="750.3553390593274,135.35533905932738 702.0590477448741,148.2962913144534 666.7037086855466,112.94095225512605 679.6446609406727,64.64466094067262 727.9409522551261,51.70370868554658 763.2962913144535,87.05904774487392 750.3553390593275,135.35533905932738 " fill="#ffffff" stroke-width="1" stroke="#000000"/><text text-anchor="middle" fill="#000000" style="font: 1em courier, monospace;" x="715.0000000000001" y="184">la</text><circle cx="699.110332509116" cy="131.18522834659288" r="26.25" clip-path="url(#cp4)" stroke-width="1" stroke="#000000"/><circle cx="825.0000000000001" cy="50" r="15" stroke-width="0" fill="#000000"/><circle cx="825.0000000000001" cy="100" r="50" fill="#ffffff" stroke-width="2" stroke="#000000"/><circle cx="825.0000000000001" cy="100" r="45" stroke-width="1" stroke="#000000"/><text text-anchor="middle" fill="#000000" style="font: 1em courier, monospace;" x="825.0000000000001" y="184">r</text><line x1="51.191204488872245" y1="220.090719708194" x2="55.00000000000001" y2="300" stroke-width="1" stroke="#000000"/><line x1="114.19761910814394" y1="353.8111688400012" x2="55.00000000000001" y2="300" stroke-width="1" stroke="#000000"/><circle cx="55.00000000000001" cy="300" r="50" fill="#ffffff" stroke-width="1" stroke="#000000"/><text text-anchor="middle" fill="#000000" style="font: 1em courier, monospace;" x="55.00000000000001" y="384">ga</text><circle cx="39.11033250911587" cy="331.18522834659285" r="26.25" clip-path="url(#cp5)" stroke-width="1" stroke="#000000"/><circle cx="165.00000000000003" cy="250" r="15" stroke-width="0" fill="#000000"/><polygon points="200.3553390593274,335.3553390593274 152.05904774487402,348.2962913144534 116.70370868554662,312.94095225512604 129.64466094067265,264.6446609406726 177.94095225512604,251.7037086855466 213.29629131445344,287.0590477448739 200.3553390593274,335.3553390593274 " fill="#ffffff" stroke-width="1" stroke="#000000"/><text text-anchor="middle" fill="#000000" style="font: 1em courier, monospace;" x="165.00000000000003" y="384">lli</text><circle cx="154.18440519687687" cy="266.71302192966965" r="10.5" stroke-width="0" fill="#000000"/><polygon points="196.1852283465929,315.8896674908841 166.83175846850307,334.9520337164101 135.6465301219102,319.062366225526 133.81477165340715,284.1103325091159 163.168241531497,265.0479662835899 194.35346987808987,280.937633774474 196.1852283465929,315.8896674908841 " fill="#ffffff" stroke-width="1" stroke="#000000"/><circle cx="161.16735560651438" cy="324.19836434458085" r="18.374999999999996" clip-path="url(#cp6)" stroke-width="0" fill="#000000"/><circle cx="275.00000000000006" cy="250" r="15" stroke-width="0" fill="#000000"/><circle cx="275.00000000000006" cy="300" r="50" fill="#ffffff" stroke-width="1" stroke="#000000"/><text text-anchor="middle" fill="#000000" style="font: 1em courier, monospace;" x="275.00000000000006" y="384">fre</text><circle cx="264.18440519687687" cy="266.71302192966965" r="10.5" stroke-width="0" fill="#000000"/><circle cx="275.00000000000006" cy="300" r="35" fill="#ffffff" stroke-width="2" stroke="#000000"/><circle cx="275.00000000000006" cy="300" r="31.5" stroke-width="1" stroke="#000000"/><polygon points="289.31612886495003,327.0728476396951 277.75236667940925,341.35290468146695 259.6035934209736,338.4784213863527 253.01858234807872,321.3238810494666 264.5823445336195,307.04382400769475 282.7311177920551,309.918307302809 289.31612886495003,327.07284763969506 " clip-path="url(#cp7)" stroke-width="1" stroke="#000000"/><line x1="448.04548470182493" y1="349.2469984741402" x2="385.00000000000006" y2="300" stroke-width="1" stroke="#000000"/><line x1="305.59722366999887" y1="309.75700318170504" x2="385.00000000000006" y2="300" stroke-width="1" stroke="#000000"/><polygon points="420.35533905932743,335.3553390593274 372.059047744874,348.2962913144534 336.70370868554664,312.94095225512604 349.6446609406727,264.6446609406726 397.9409522551261,251.7037086855466 433.29629131445347,287.0590477448739 420.35533905932743,335.3553390593274 " fill="#ffffff" stroke-width="2" stroke="#000000"/><polygon points="416.81980515339467,331.81980515339467 373.3531429703866,343.46666218300805 341.533337816992,311.64685702961344 353.1801948466054,268.1801948466054 396.64685702961344,256.53333781699195 428.4666621830081,288.35314297038656 416.8198051533947,331.8198051533946 " stroke-width="1" stroke="#000000"/><text text-anchor="middle" fill="#000000" style="font: 1em courier, monospace;" x="385.00000000000006" y="384">ya</text><circle cx="369.1103325091159" cy="331.18522834659285" r="26.25" clip-path="url(#cp8)" stroke-width="1" stroke="#000000"/><polygon points="530.3553390593274,335.3553390593274 482.059047744874,348.2962913144534 446.70370868554664,312.94095225512604 459.6446609406727,264.6446609406726 507.9409522551261,251.7037086855466 543.2962913144535,287.0590477448739 530.3553390593274,335.3553390593274 " fill="#ffffff" stroke-width="1" stroke="#000000"/><text text-anchor="middle" fill="#000000" style="font: 1em courier, monospace;" x="495.00000000000006" y="384">n</text><circle cx="605.0000000000001" cy="300" r="50" stroke-width="1" stroke="#000000"/><path d="M 636.8198051533948 268.18019484660533 A 45 45 0 1 1 573.1801948466054 268.18019484660533" stroke-width="1" stroke="#000000"/><path d="M 636.8198051533947 268.18019484660533 A 45 45 0 0 1 573.1801948466054 268.1801948466054" stroke-width="1" stroke="#000000"/><text text-anchor="middle" fill="#000000" style="font: 1em courier, monospace;" x="605.0000000000001" y="384">.</text></g></svg>