<svg xmlns="http://www.w3.org/2000/svg" width="858" height="240" style="stroke:#000000;fill:transparent;"><rect width="858" height="240" fill="#ffffff" stroke-width="0"/><g transform="matrix(1 0 0 1 0 0)"><circle cx="66" cy="48" r="30" stroke-width="1" stroke="#000000"/><circle cx="66" cy="48" r="15" stroke="null" fill="#000000" stroke-width="0"/><circle cx="57" cy="48" r="6" stroke="#000000" fill="#ffffff" stroke-width="1"/><text text-anchor="middle" fill="#000000" style="font: 1em courier, monospace;" x="66" y="93">A</text><circle cx="132" cy="48" r="30" stroke-width="0" fill="#000000"/><circle cx="132" cy="48" r="15" stroke="#ffffff" fill="#ffffff" stroke-width="0"/><circle cx="117" cy="48" r="10.5" stroke="#000000" fill="#000000" stroke-width="5"/><text text-anchor="middle" fill="#000000" style="font: 1em courier, monospace;" x="132" y="93">r</text><circle cx="198" cy="48" r="30" stroke-width="0" fill="#000000"/><text text-anchor="middle" fill="#000000" style="font: 1em courier, monospace;" x="198" y="93">t</text><circle cx="264" cy="48" r="30" stroke-width="0" fill="#000000"/><circle cx="264" cy="48" r="15" stroke="#ffffff" fill="null" stroke-width="1"/><circle cx="264" cy="33" r="10.5" stroke="#ffffff" fill="null" stroke-width="1"/><circle cx="264" cy="63" r="6" stroke="#ffffff" fill="#000000" stroke-width="1"/><text text-anchor="middle" fill="#000000" style="font: 1em courier, monospace;" x="264" y="93">B</text><circle cx="330" cy="48" r="30" stroke-width="0" fill="#000000"/><circle cx="330" cy="48" r="15" stroke="#ffffff" fill="null" stroke-width="1"/><circle cx="315" cy="48" r="10.5" stroke="#ffffff" fill="null" stroke-width="1"/><text text-anchor="middle" fill="#000000" style="font: 1em courier, monospace;" x="330" y="93">y</text><circle cx="396" cy="48" r="30" stroke-width="0" fill="#000000"/><circle cx="396" cy="48" r="15" stroke="#ffffff" fill="null" stroke-width="1"/><circle cx="396" cy="33" r="10.5" stroke="#ffffff" fill="null" stroke-width="1"/><circle cx="396" cy="63" r="6" stroke="#ffffff" fill="#000000" stroke-width="1"/><text text-anchor="middle" fill="#000000" style="font: 1em courier, monospace;" x="396" y="93">B</text><circle cx="462" cy="48" r="30" stroke-width="0" fill="#000000"/><circle cx="462" cy="48" r="15" stroke="#ffffff" fill="#ffffff" stroke-width="0"/><text text-anchor="middle" fill="#000000" style="font: 1em courier, monospace;" x="462" y="93">o</text><circle cx="528" cy="48" r="30" stroke-width="0" fill="#000000"/><circle cx="528" cy="48" r="15" stroke="#ffffff" fill="#ffffff" stroke-width="0"/><circle cx="513" cy="48" r="10.5" stroke="#000000" fill="#000000" stroke-width="5"/><text text-anchor="middle" fill="#000000" style="font: 1em courier, monospace;" x="528" y="93">r</text><circle cx="594" cy="48" r="30" stroke-width="1" stroke="#000000"/><text text-anchor="middle" fill="#000000" style="font: 1em courier, monospace;" x="594" y="93">e</text><circle cx="660" cy="48" r="30" stroke-width="0" fill="#000000"/><circle cx="660" cy="48" r="15" stroke="#ffffff" fill="#ffffff" stroke-width="0"/><circle cx="660" cy="63" r="10.5" stroke="#000000" fill="#000000" stroke-width="5"/><text text-anchor="middle" fill="#000000" style="font: 1em courier, monospace;" x="660" y="93">d</text><circle cx="726" cy="48" r="30" stroke-width="0" fill="#000000"/><circle cx="726" cy="48" r="15" stroke="#ffffff" fill="#ffffff" stroke-width="0"/><text text-anchor="middle" fill="#000000" style="font: 1em courier, monospace;" x="726" y="93">o</text><circle cx="792" cy="48" r="30" stroke-width="0" fill="#000000"/><circle cx="792" cy="48" r="15" stroke="#ffffff" fill="#ffffff" stroke-width="0"/><circle cx="807" cy="48" r="10.5" stroke="#000000" fill="#000000" stroke-width="5"/><text text-anchor="middle" fill="#000000" style="font: 1em courier, monospace;" x="792" y="93">m</text><text text-anchor="middle" fill="#000000" style="font: 1em courier, monospace;" x="66" y="213"> </text><circle cx="132" cy="168" r="30" stroke-width="0" fill="#000000"/><circle cx="132" cy="168" r="15" stroke="#ffffff" fill="null" stroke-width="1"/><circle cx="132" cy="183" r="10.5" stroke="#ffffff" fill="null" stroke-width="1"/><circle cx="132" cy="153" r="6" stroke="#ffffff" fill="#000000" stroke-width="1"/><text text-anchor="middle" fill="#000000" style="font: 1em courier, monospace;" x="132" y="213">G</text><circle cx="198" cy="168" r="30" stroke-width="1" stroke="#000000"/><circle cx="198" cy="168" r="15" stroke="null" fill="#000000" stroke-width="0"/><text text-anchor="middle" fill="#000000" style="font: 1em courier, monospace;" x="198" y="213">a</text><circle cx="264" cy="168" r="30" stroke-width="1" stroke="#000000"/><circle cx="264" cy="168" r="15" stroke="null" fill="#000000" stroke-width="0"/><circle cx="264" cy="153" r="10.5" stroke="#ffffff" fill="#ffffff" stroke-width="5"/><text text-anchor="middle" fill="#000000" style="font: 1em courier, monospace;" x="264" y="213">l</text><circle cx="330" cy="168" r="30" stroke-width="1" stroke="#000000"/><circle cx="330" cy="168" r="15" stroke="null" fill="#000000" stroke-width="0"/><circle cx="330" cy="153" r="10.5" stroke="#ffffff" fill="#ffffff" stroke-width="5"/><text text-anchor="middle" fill="#000000" style="font: 1em courier, monospace;" x="330" y="213">l</text><circle cx="396" cy="168" r="30" stroke-width="1" stroke="#000000"/><circle cx="396" cy="168" r="15" stroke="#000000" fill="null" stroke-width="1"/><text text-anchor="middle" fill="#000000" style="font: 1em courier, monospace;" x="396" y="213">i</text><circle cx="462" cy="168" r="30" stroke-width="1" stroke="#000000"/><circle cx="462" cy="168" r="15" stroke="#000000" fill="null" stroke-width="1"/><circle cx="447" cy="168" r="10.5" stroke="#000000" fill="null" stroke-width="1"/><text text-anchor="middle" fill="#000000" style="font: 1em courier, monospace;" x="462" y="213">f</text><circle cx="528" cy="168" r="30" stroke-width="0" fill="#000000"/><circle cx="528" cy="168" r="15" stroke="#ffffff" fill="#ffffff" stroke-width="0"/><circle cx="513" cy="168" r="10.5" stroke="#000000" fill="#000000" stroke-width="5"/><text text-anchor="middle" fill="#000000" style="font: 1em courier, monospace;" x="528" y="213">r</text><circle cx="594" cy="168" r="30" stroke-width="1" stroke="#000000"/><text text-anchor="middle" fill="#000000" style="font: 1em courier, monospace;" x="594" y="213">e</text><circle cx="660" cy="168" r="30" stroke-width="0" fill="#000000"/><circle cx="660" cy="168" r="15" stroke="#ffffff" fill="null" stroke-width="1"/><circle cx="645" cy="168" r="10.5" stroke="#ffffff" fill="null" stroke-width="1"/><text text-anchor="middle" fill="#000000" style="font: 1em courier, monospace;" x="660" y="213">y</text><circle cx="726" cy="168" r="30" stroke-width="1" stroke="#000000"/><circle cx="726" cy="168" r="15" stroke="null" fill="#000000" stroke-width="0"/><text text-anchor="middle" fill="#000000" style="font: 1em courier, monospace;" x="726" y="213">a</text><circle cx="792" cy="168" r="30" stroke-width="0" fill="#000000"/><circle cx="792" cy="168" r="15" stroke="#ffffff" fill="null" stroke-width="1"/><text text-anchor="middle" fill="#000000" style="font: 1em courier, monospace;" x="792" y="213">n</text></g></svg>