<svg xmlns="http://www.w3.org/2000/svg" width="405" height="180" style="stroke:#000000;fill:transparent;"><rect width="405" height="180" fill="#ffffff" stroke-width="0"/><g transform="matrix(1 0 0 1 0 0)"><line x1="-22.5" y1="90" x2="67.5" y2="90" stroke-width="1" stroke="#000000"/><line x1="67.5" y1="90" x2="112.5" y2="90" stroke-width="1" stroke="#000000"/><path d="M 73.03641317786065 23.130941177357652 A 30 30 0 1 1 43.22949016875157 16.468304511145398" fill="#ffffff" stroke-width="1" stroke="#000000"/><path d="M 72.86845877850266 22.638759884162898 A 15 15 0 1 1 44.50336091567714 15.828902388069702" stroke-width="1" stroke="#000000"/><text text-anchor="middle" fill="#000000" style="font: 1em courier, monospace;" x="52.5" y="171">d</text><line x1="90" y1="90" x2="135" y2="90" stroke-width="1" stroke="#000000"/><circle cx="75" cy="30" r="15" stroke-width="0" fill="#ffffff"/><path d="M 90 30 A 15 15 0 1 1 60 30.000000000000004" stroke-width="1" stroke="#000000"/><path d="M 60 30 A 12 12 0 0 1 84 30" stroke-width="1" stroke="#000000"/><path d="M 84 30 A 9.000000000000002 9.000000000000002 0 1 1 66 30" stroke-width="1" stroke="#000000"/><path d="M 66.375 30 A 6.000000000000001 6.000000000000001 0 0 1 78.375 30" stroke-width="1" stroke="#000000"/><path d="M 78 30 A 3.000000000000001 3.000000000000001 0 1 1 72 30" stroke-width="1" stroke="#000000"/><text text-anchor="middle" fill="#000000" style="font: 1em courier, monospace;" x="75" y="171">o</text><line x1="135" y1="90" x2="180" y2="90" stroke-width="1" stroke="#000000"/><circle cx="120" cy="121" r="30" fill="#ffffff" stroke-width="1" stroke="#000000"/><text text-anchor="middle" fill="#000000" style="font: 1em courier, monospace;" x="120" y="171">t</text><line x1="180" y1="90" x2="225" y2="90" stroke-width="1" stroke="#000000"/><circle cx="165" cy="90" r="30" stroke-width="0" fill="#000000"/><text text-anchor="middle" fill="#000000" style="font: 1em courier, monospace;" x="165" y="171">s</text><line x1="225" y1="90" x2="270" y2="90" stroke-width="1" stroke="#000000"/><circle cx="210" cy="45" r="30" fill="#ffffff" stroke-width="1" stroke="#000000"/><circle cx="210" cy="45" r="21" stroke-width="1" stroke="#000000"/><text text-anchor="middle" fill="#000000" style="font: 1em courier, monospace;" x="210" y="171">c</text><line x1="270" y1="90" x2="315" y2="90" stroke-width="1" stroke="#000000"/><circle cx="255" cy="90" r="30" stroke-width="0" fill="#ffffff"/><path d="M 285 90 A 30 30 0 1 1 225 90" stroke-width="1" stroke="#000000"/><path d="M 225 90 A 24 24 0 0 1 273 90" stroke-width="1" stroke="#000000"/><path d="M 273 90 A 18.000000000000004 18.000000000000004 0 1 1 237 90" stroke-width="1" stroke="#000000"/><path d="M 237.75 90 A 12.000000000000002 12.000000000000002 0 0 1 261.75 90" stroke-width="1" stroke="#000000"/><path d="M 261 90 A 6.000000000000002 6.000000000000002 0 1 1 249 90" stroke-width="1" stroke="#000000"/><text text-anchor="middle" fill="#000000" style="font: 1em courier, monospace;" x="255" y="171">r</text><line x1="292.5" y1="90" x2="337.5" y2="90" stroke-width="1" stroke="#000000"/><path d="M 287.76820658893035 19.065470588678828 A 15 15 0 1 1 272.8647450843758 15.734152255572699" fill="#ffffff" stroke-width="1" stroke="#000000"/><path d="M 287.68422938925136 18.819379942081447 A 7.5 7.5 0 1 1 273.5016804578386 15.414451194034852" stroke-width="1" stroke="#000000"/><text text-anchor="middle" fill="#000000" style="font: 1em courier, monospace;" x="277.5" y="171">i</text><line x1="337.5" y1="90" x2="382.5" y2="90" stroke-width="1" stroke="#000000"/><circle cx="322.5" cy="90" r="30" fill="#ffffff" stroke-width="1" stroke="#000000"/><circle cx="322.5" cy="90" r="21" stroke-width="1" stroke="#000000"/><text text-anchor="middle" fill="#000000" style="font: 1em courier, monospace;" x="322.5" y="171">p</text><line x1="382.5" y1="90" x2="427.5" y2="90" stroke-width="1" stroke="#000000"/><circle cx="367.5" cy="121" r="30" fill="#ffffff" stroke-width="1" stroke="#000000"/><text text-anchor="middle" fill="#000000" style="font: 1em courier, monospace;" x="367.5" y="171">t</text></g></svg>