<svg xmlns="http://www.w3.org/2000/svg" width="990" height="465" style="stroke:#000000;fill:transparent;"><rect width="990" height="465" fill="#ffffff" stroke-width="0"/><g transform="matrix(1 0 0 1 0 0)"><path d="M 306.07430478087036 354.1307971668266 A 135 135 0 0 1 188.92569521912966 354.1307971668266" fill="transparent" stroke-width="1" stroke="#000000"/><circle cx="247.5" cy="367.5" r="30" stroke-width="0" fill="#ffffff"/><path d="M 217.57021146172116 365.44871794871796 A 30 30 0 0 1 277.42978853827884 365.44871794871796" stroke-width="1" stroke="#000000"/><circle cx="242.80696604879307" cy="337.8693497821459" r="3.75" stroke-width="0" fill="#000000"/><circle cx="252.19303395120693" cy="337.8693497821459" r="3.75" stroke-width="0" fill="#000000"/><text text-anchor="middle" fill="#000000" style="font: 1em courier, monospace;" x="247.5" y="431.5">she</text><circle cx="247.5" cy="367.5" r="15" stroke-width="1" stroke="#000000"/><path d="M 379.1152681445462 262.5403260841025 A 135 135 0 0 1 306.07430478087036 354.1307971668266" fill="transparent" stroke-width="1" stroke="#000000"/><circle cx="353.04725013318404" cy="316.67112325092904" r="30" stroke-width="0" fill="#ffffff"/><path d="M 332.7825753206648 338.792220754056 A 30 30 0 0 1 370.1044111714754 291.9921188683816" stroke-width="1" stroke="#000000"/><circle cx="324.9602040139919" cy="306.12987852848875" r="3.75" stroke-width="0" fill="#000000"/><circle cx="329.59230565914316" cy="297.96642919516705" r="3.75" stroke-width="0" fill="#000000"/><circle cx="336.520340689621" cy="291.63392563928994" r="3.75" stroke-width="0" fill="#000000"/><text text-anchor="middle" fill="#000000" style="font: 1em courier, monospace;" x="399.95713908126584" y="358.0805113624531">r</text><path d="M 353.047250133184 148.32887674907096 A 135 135 0 0 1 379.1152681445462 262.54032608410245" fill="transparent" stroke-width="1" stroke="#000000"/><circle cx="342.55547143772776" cy="210.80420893925935" r="30" stroke-width="1" stroke="#000000"/><line x1="339.8662921706248" y1="240.68343775911652" x2="337.17711290352173" y2="270.5626665789737" stroke-width="1" stroke="#000000"/><line x1="330.7647204881101" y1="238.39004211580288" x2="318.9739695384923" y2="265.97587529234636" stroke-width="1" stroke="#000000"/><line x1="322.81730965953636" y1="233.39635291936767" x2="303.07914788134497" y2="255.988496899476" stroke-width="1" stroke="#000000"/><text text-anchor="middle" fill="#000000" style="font: 1em courier, monospace;" x="437.61094287545563" y="193.1084178785187">ma</text><circle cx="404.707125839319" cy="196.6184993995443" r="15" stroke-width="1" stroke="#000000"/><path d="M 247.49999999999997 97.5 A 135 135 0 0 1 353.04725013318404 148.328876749071" fill="transparent" stroke-width="1" stroke="#000000"/><circle cx="289.80366456396195" cy="144.65553537951416" r="30" stroke-width="1" stroke="#000000"/><line x1="285.7766665894323" y1="174.3840282325522" x2="281.7496686149026" y2="204.11252108559023" stroke-width="1" stroke="#000000"/><text text-anchor="middle" fill="#000000" style="font: 1em courier, monospace;" x="332.1073291279239" y="60.8110707590283">n</text><path d="M 141.95274986681602 148.32887674907093 A 135 135 0 0 1 247.50000000000003 97.5" fill="transparent" stroke-width="1" stroke="#000000"/><circle cx="188.92569521912966" cy="110.86920283317342" r="30" stroke-width="0" fill="#ffffff"/><path d="M 216.78152084141655 99.73129553867932 A 30 30 0 0 1 162.84990544963276 125.70339266265182" stroke-width="1" stroke="#000000"/><line x1="218.6541880721677" y1="106.84220485864378" x2="248.38268092520576" y2="102.81520688411416" stroke-width="1" stroke="#000000"/><line x1="218.44358287708855" y1="116.22590967713252" x2="247.96147053504745" y2="121.58261652109164" stroke-width="1" stroke="#000000"/><line x1="215.3435611748318" y1="125.08526270736338" x2="241.76142713053395" y2="139.30132258155334" stroke-width="1" stroke="#000000"/><text text-anchor="middle" fill="#000000" style="font: 1em courier, monospace;" x="162.8926708720762" y="60.81107075902827">s</text><path d="M 115.8847318554538 262.54032608410233 A 135 135 0 0 1 141.95274986681602 148.3288767490709" fill="transparent" stroke-width="1" stroke="#000000"/><path d="M 57.389057124544365 275.8915821214812 A 195 195 0 0 1 95.04286091873425 110.91948863754689" fill="transparent" stroke-width="1" stroke="#000000"/><line x1="62.12208609733034" y1="175.8217700740685" x2="89.0034089763921" y2="189.14072199498295" stroke-width="1" stroke="#000000"/><line x1="55.88850845017181" y1="203.13285821717608" x2="85.88662015281284" y2="202.79626606653673" stroke-width="1" stroke="#000000"/><text text-anchor="middle" fill="#000000" style="font: 1em courier, monospace;" x="57.38905712454445" y="193.10841787851848">'</text><path d="M 188.9256952191296 354.13079716682654 A 135 135 0 0 1 115.88473185545382 262.54032608410245" fill="transparent" stroke-width="1" stroke="#000000"/><circle cx="141.95274986681596" cy="316.671123250929" r="30" stroke-width="0" fill="#ffffff"/><path d="M 124.89558882852458 291.99211886838157 A 30 30 0 0 1 162.21742467933512 338.79222075405596" stroke-width="1" stroke="#000000"/><line x1="131.4115051443757" y1="288.5840771317369" x2="120.87026042193543" y2="260.49703101254477" stroke-width="1" stroke="#000000"/><line x1="140.60680495630052" y1="286.70133125468953" x2="139.26086004578508" y2="256.7315392584501" stroke-width="1" stroke="#000000"/><line x1="149.93385523381622" y1="287.7522374300534" x2="157.9149606008165" y2="258.8333516091778" stroke-width="1" stroke="#000000"/><text text-anchor="middle" fill="#000000" style="font: 1em courier, monospace;" x="95.04286091873416" y="358.080511362453">s</text><path d="M 809.507518761342 324.72793735874393 A 114 114 0 0 1 675.4924812386581 324.72793735874404" fill="transparent" stroke-width="1" stroke="#000000"/><circle cx="742.5" cy="346.5" r="30" stroke-width="0" fill="#ffffff"/><path d="M 712.5985078756768 344.07085020242914 A 30 30 0 0 1 772.4014921243232 344.07085020242914" stroke-width="1" stroke="#000000"/><line x1="713.9683045111454" y1="337.22949016875157" x2="685.4366090222908" y2="327.95898033750314" stroke-width="1" stroke="#000000"/><line x1="718.2294901687516" y1="328.8664424312258" x2="693.9589803375031" y2="311.2328848624516" stroke-width="1" stroke="#000000"/><line x1="724.8664424312258" y1="322.22949016875157" x2="707.2328848624517" y2="297.95898033750314" stroke-width="1" stroke="#000000"/><text text-anchor="middle" fill="#000000" style="font: 1em courier, monospace;" x="742.5" y="410.5">si</text><circle cx="742.5" cy="346.5" r="15" stroke-width="1" stroke="#000000"/><line x1="742.5" y1="331.5" x2="742.5" y2="301.5" stroke-width="1" stroke="#000000"/><path d="M 850.9204428576475 197.27206264125596 A 114 114 0 0 1 809.507518761342 324.72793735874404" fill="transparent" stroke-width="1" stroke="#000000"/><circle cx="850.9204428576475" cy="267.727937358744" r="30" stroke-width="0" fill="#ffffff"/><path d="M 839.3701148900262 295.41529772119793 A 30 30 0 0 1 857.8502533371951 238.53927985762635" stroke-width="1" stroke="#000000"/><circle cx="820.9204428576475" cy="267.727937358744" r="3.75" stroke-width="0" fill="#000000"/><circle cx="822.3887473687929" cy="258.45742752749555" r="3.75" stroke-width="0" fill="#000000"/><circle cx="826.649933026399" cy="250.0943797899698" r="3.75" stroke-width="0" fill="#000000"/><text text-anchor="middle" fill="#000000" style="font: 1em courier, monospace;" x="907.9838338353567" y="290.26895702124085">r</text><path d="M 742.5 118.5 A 114 114 0 0 1 850.9204428576475 197.27206264125599" fill="transparent" stroke-width="1" stroke="#000000"/><circle cx="787.4655718003742" cy="170.61019993031653" r="30" stroke-width="1" stroke="#000000"/><circle cx="773.8458568081877" cy="197.34039565596757" r="3.75" stroke-width="0" fill="#000000"/><circle cx="766.2523683647777" cy="191.82340336591295" r="3.75" stroke-width="0" fill="#000000"/><text text-anchor="middle" fill="#000000" style="font: 1em courier, monospace;" x="844.7746338988903" y="95.73104297875915">ku</text><circle cx="787.4655718003742" cy="170.61019993031653" r="15" stroke-width="1" stroke="#000000"/><line x1="796.2823505847613" y1="158.4749450146923" x2="813.9159081535355" y2="134.20443518344393" stroke-width="1" stroke="#000000"/><path d="M 634.0795571423524 197.27206264125607 A 114 114 0 0 1 742.4999999999999 118.5" fill="transparent" stroke-width="1" stroke="#000000"/><circle cx="697.5344281996258" cy="170.61019993031653" r="30" stroke-width="1" stroke="#000000"/><circle cx="721.8049380308743" cy="188.2437574990907" r="3.75" stroke-width="0" fill="#000000"/><circle cx="715.1679857684001" cy="194.88070976156493" r="3.75" stroke-width="0" fill="#000000"/><circle cx="706.8049380308743" cy="199.14189541917114" r="3.75" stroke-width="0" fill="#000000"/><text text-anchor="middle" fill="#000000" style="font: 1em courier, monospace;" x="640.2253661011097" y="95.73104297875918">la</text><circle cx="660.0631183659806" cy="119.03536653891365" r="15" stroke-width="1" stroke="#000000"/><path d="M 675.4924812386581 324.72793735874404 A 114 114 0 0 1 634.0795571423525 197.272062641256" fill="transparent" stroke-width="1" stroke="#000000"/><circle cx="634.0795571423525" cy="267.727937358744" r="30" stroke-width="0" fill="#ffffff"/><path d="M 627.1497466628049 238.53927985762635 A 30 30 0 0 1 645.6298851099739 295.41529772119793" stroke-width="1" stroke="#000000"/><circle cx="658.350066973601" cy="250.09437978996976" r="3.75" stroke-width="0" fill="#000000"/><circle cx="662.6112526312072" cy="258.45742752749555" r="3.75" stroke-width="0" fill="#000000"/><circle cx="664.0795571423525" cy="267.727937358744" r="3.75" stroke-width="0" fill="#000000"/><text text-anchor="middle" fill="#000000" style="font: 1em courier, monospace;" x="577.0161661646432" y="290.2689570212408">r</text></g></svg>