<svg xmlns="http://www.w3.org/2000/svg" width="510.75" height="510.75" style="stroke:#000000;fill:transparent;"><rect width="510.75" height="510.75" fill="#ffffff" stroke-width="0"/><g transform="matrix(1 0 0 1 0 0)"><circle cx="255.375" cy="255.375" r="225.8519215563164" stroke-width="2" stroke="#000000"/><circle cx="255.37499999999997" cy="84.08052147239263" r="40" stroke-width="2" stroke="#000000"/><path d="m 258.3564434042553,74.89796657877561 a 9.894659234042553,9.894659234042553 0 0 1 -9.894658723404255,9.894660425531915 9.894659234042553,9.894659234042553 0 0 1 -9.894658723404255,-9.894660425531915 9.894659234042553,9.894659234042553 0 0 1 9.894658723404255,-9.894658723404255 9.894659234042553,9.894659234042553 0 0 1 9.894658723404255,9.894658723404255 z m 19.721305531914894,5.3271029787234045 a 26.272025531914895,26.272025531914895 0 0 1 -26.272027234042554,26.272027234042554 26.272025531914895,26.272025531914895 0 0 1 -26.272025361702127,-26.272027234042554 26.272025531914895,26.272025531914895 0 0 1 26.272025361702127,-26.272025531914895 26.272025531914895,26.272025531914895 0 0 1 26.272027234042554,26.272025531914895 z m 8.607022978723403,1.326207659574468 a 34.403841702127664,34.403841702127664 0 0 1 -34.403841702127664,34.403841702127664 34.403841702127664,34.403841702127664 0 0 1 -34.40384272340426,-34.403841702127664 34.403841702127664,34.403841702127664 0 0 1 34.40384272340426,-34.40384306382979 34.403841702127664,34.403841702127664 0 0 1 34.403841702127664,34.40384306382979 z" stroke-width="2" stroke="#000000"/><path d="m 255.74975744680847,81.49440742983944 l 20.585440000000002,24.679782127659575" stroke-width="1" stroke="#000000"/><text text-anchor="middle" fill="#000000" style="font: 1em courier, monospace;" x="255.37499999999994" y="10.88727613432357">d</text><circle cx="347.983786896796" cy="111.27291478417544" r="40" stroke-width="2" stroke="#000000"/><path d="m 348.5556890244556,95.16620712460097 a 17.173487659574466,17.173487659574466 0 0 1 -17.329596595744682,17.015942127659574 17.173487659574466,17.173487659574466 0 0 1 -17.015947234042553,-17.329593191489362 17.173487659574466,17.173487659574466 0 0 1 17.329596595744682,-17.01594553191489 17.173487659574466,17.173487659574466 0 0 1 17.015947234042553,17.329596595744682 z m 16.41845106382979,11.525131914893617 a 17.40095319148936,17.40095319148936 0 0 1 -17.10192340425532,13.490485106382978 17.40095319148936,17.40095319148936 0 0 1 -8.19971914893617,-2.1455421276595743 20.414842553191487,20.414842553191487 0 0 0 -1.6334672340425533,7.7997634042553186 20.414842553191487,20.414842553191487 0 0 0 2.939732765957447,10.693303829787233 3.753146212765958,3.753146212765958 0 0 1 2.201024680851064,-0.6941582978723404 3.753146212765958,3.753146212765958 0 0 1 3.718823829787234,3.7864834042553195 3.753146212765958,3.753146212765958 0 0 1 -0.9833225531914894,2.4927029787234045 20.414842553191487,20.414842553191487 0 0 0 12.35195744680851,4.321860425531915 20.414842553191487,20.414842553191487 0 0 0 20.600183829787234,-20.227336170212766 20.414842553191487,20.414842553191487 0 0 0 -13.893290212765956,-19.51756255319149 z m -11.500667234042554,-2.0400919148936167 a 7.051366468085107,7.051366468085107 0 0 1 -7.115465531914893,6.98668255319149 7.051366468085107,7.051366468085107 0 0 1 -6.98668255319149,-7.115465531914893 7.051366468085107,7.051366468085107 0 0 1 7.115467234042553,-6.986680851063831 7.051366468085107,7.051366468085107 0 0 1 6.986680851063831,7.115463829787235 z" stroke-width="2" stroke="#000000"/><text text-anchor="middle" fill="#000000" style="font: 1em courier, monospace;" x="387.55504288859777" y="49.69883856414546">a</text><circle cx="411.18993829627914" cy="184.21670197530264" r="40" stroke-width="2" stroke="#000000"/><path d="m 399.37872978564087,213.65407559232392 a 3.384313191489362,3.384313191489362 0 0 0 4.145698723404256,2.39172085106383 3.384313191489362,3.384313191489362 0 0 0 2.391724255319149,-4.145698723404256 3.384313191489362,3.384313191489362 0 0 0 -4.145700425531914,-2.39171914893617 3.384313191489362,3.384313191489362 0 0 0 -2.3917225531914896,4.145697021276596 z m -7.055657872340426,-5.941984680851064 a 4.850848510638298,4.850848510638298 0 0 0 5.9421685106382975,3.428136170212766 4.850848510638298,4.850848510638298 0 0 0 3.428132765957447,-5.9421685106382975 4.850848510638298,4.850848510638298 0 0 0 -5.9421685106382975,-3.4281344680851062 4.850848510638298,4.850848510638298 0 0 0 -3.428132765957447,5.942166808510638 z m -11.031915404255319,-6.190187234042553 a 6.58929429787234,6.58929429787234 0 0 0 8.07171795744681,4.656706382978723 6.58929429787234,6.58929429787234 0 0 0 4.6567080851063825,-8.07172085106383 6.58929429787234,6.58929429787234 0 0 0 -8.071719319148935,-4.656706382978723 6.58929429787234,6.58929429787234 0 0 0 -4.656706723404255,8.07172085106383 z" stroke-width="2" stroke="#000000"/><path d="m 372.71792716436426,177.23163984764307 c 18.395960068085106,17.60236085106383 38.405839217021274,32.78384680851064 65.30141879148935,37.636777872340424 m -65.30141879148935,-37.636777872340424 c 21.67257623829787,10.730614468085108 45.692080919148935,18.551038297872342 78.00784942978724,16.084095319148936 m -24.724141276595745,-45.60822110638298 c -15.08903659574468,4.121815489361702 -51.573952680851065,10.534265702127659 -16.420253617021277,17.936244936170212 32.08250042553192,6.7553072340425535 3.298551489361702,32.335404255319155 -9.291184680851064,57.61396765957446" stroke-width="1" stroke="#000000"/><text text-anchor="middle" fill="#000000" style="font: 1em courier, monospace;" x="477.7688560996197" y="153.8111290115384">r</text><circle cx="424.92594772243876" cy="279.75274600876315" r="40" stroke-width="2" stroke="#000000"/><path d="m 458.4142251692473,294.6506234555717 a 2.908279319148936,2.908279319148936 0 0 1 2.35432,3.3724374468085108 2.908279319148936,2.908279319148936 0 0 1 -3.3724391489361705,2.3543217021276597 2.908279319148936,2.908279319148936 0 0 1 -2.35432,-3.3724391489361705 2.908279319148936,2.908279319148936 0 0 1 3.3724391489361705,-2.35432 z m -5.609123404255319,-5.601206808510638 a 4.168533446808511,4.168533446808511 0 0 1 3.374524255319149,4.833829787234043 4.168533446808511,4.168533446808511 0 0 1 -4.833828085106383,3.374527659574468 4.168533446808511,4.168533446808511 0 0 1 -3.3745293617021277,-4.833828085106383 4.168533446808511,4.168533446808511 0 0 1 4.8338331914893615,-3.3745293617021277 z m -6.115739574468085,-8.98712340425532 a 5.662450893617021,5.662450893617021 0 0 1 4.583889361702128,6.566175319148936 5.662450893617021,5.662450893617021 0 0 1 -6.566175319148936,4.5838859574468085 5.662450893617021,5.662450893617021 0 0 1 -4.583891063829788,-6.566173617021277 5.662450893617021,5.662450893617021 0 0 1 6.566177021276596,-4.583887659574468 z" stroke-width="2" stroke="#000000"/><path d="m 412.2215596373324,242.93338617897592 c 7.720183829787234,13.503866723404256 35.673184680851065,18.070006638297873 -16.149904340425532,64.03095131914894 m 58.33416817021276,-49.473291914893615 a 9.202067574468085,9.202067574468085 0 0 1 -9.202068085106383,9.202068085106383 9.202067574468085,9.202067574468085 0 0 1 -9.202068085106383,-9.202068085106383 9.202067574468085,9.202067574468085 0 0 1 9.202068085106383,-9.202067063829787 9.202067574468085,9.202067574468085 0 0 1 9.202068085106383,9.202067063829787 z m -17.3440885106383,1.7628408510638298 a 9.202067574468085,9.202067574468085 0 0 1 -9.202068085106383,9.202066382978725 9.202067574468085,9.202067574468085 0 0 1 -9.202066382978725,-9.202066382978725 9.202067574468085,9.202067574468085 0 0 1 9.202066382978725,-9.202068085106383 9.202067574468085,9.202067574468085 0 0 1 9.202068085106383,9.202068085106383 z m 11.87151829787234,9.15540425531915 a 17.832229787234045,17.832229787234045 0 0 1 -17.832229787234045,17.832229787234045 17.832229787234045,17.832229787234045 0 0 1 -17.832228085106383,-17.832229787234045 17.832229787234045,17.832229787234045 0 0 1 17.832228085106383,-17.83222910638298 17.832229787234045,17.832229787234045 0 0 1 17.832229787234045,17.83222910638298 z" stroke-width="1" stroke="#000000"/><text text-anchor="middle" fill="#000000" style="font: 1em courier, monospace;" x="497.37419135891116" y="290.1692308817473">k</text><circle cx="384.8307292364738" cy="367.5490279293639" r="40" stroke-width="2" stroke="#000000"/><path d="m 358.4210322151972,370.5967045251086 a 4.342851574468085,4.342851574468085 0 0 0 -4.995357787234043,3.5731131914893615 4.342851574468085,4.342851574468085 0 0 0 3.573115063829787,4.995356595744681 4.342851574468085,4.342851574468085 0 0 0 4.995354212765957,-3.573111489361702 4.342851574468085,4.342851574468085 0 0 0 -3.573111489361702,-4.9953582978723405 z m 6.503557446808511,7.062068085106382 a 6.681310127659574,6.681310127659574 0 0 0 -7.685160851063829,5.497097872340426 6.681310127659574,6.681310127659574 0 0 0 5.497092765957447,7.685164255319149 6.681310127659574,6.681310127659574 0 0 0 7.6851659574468085,-5.497099574468085 6.681310127659574,6.681310127659574 0 0 0 -5.497097872340426,-7.685162553191489 z m 12.325273191489362,7.351128510638297 a 8.685703319148937,8.685703319148937 0 0 0 -9.990713191489363,7.146222978723404 8.685703319148937,8.685703319148937 0 0 0 7.146224680851063,9.99071829787234 8.685703319148937,8.685703319148937 0 0 0 9.990713191489363,-7.146228085106383 8.685703319148937,8.685703319148937 0 0 0 -7.146224680851063,-9.990713191489363 z m 34.36550638297872,-19.898782978723407 a 4.342851574468085,4.342851574468085 0 0 0 4.966362553191489,-3.6133055319148935 4.342851574468085,4.342851574468085 0 0 0 -3.613307234042553,-4.966362553191489 4.342851574468085,4.342851574468085 0 0 0 -4.966359148936171,3.6133055319148935 4.342851574468085,4.342851574468085 0 0 0 3.6133038297872337,4.966362553191489 z m -6.560331914893617,-7.00936 a 6.681310127659574,6.681310127659574 0 0 0 7.640553191489362,-5.558931063829787 6.681310127659574,6.681310127659574 0 0 0 -5.558929361702128,-7.64055659574468 6.681310127659574,6.681310127659574 0 0 0 -7.64055659574468,5.558932765957447 6.681310127659574,6.681310127659574 0 0 0 5.558932765957447,7.640554893617022 z m -12.384190638297873,-7.251433191489362 a 8.685703319148937,8.685703319148937 0 0 0 9.932721702127658,-7.226609191489362 8.685703319148937,8.685703319148937 0 0 0 -7.226609361702128,-9.93272544680851 8.685703319148937,8.685703319148937 0 0 0 -9.932721702127658,7.226612425531916 8.685703319148937,8.685703319148937 0 0 0 7.226609361702128,9.932722212765956 z" stroke-width="2" stroke="#000000"/><path d="m 384.84874115136745,351.2697019719171 c -0.5213259574468085,-4.731914893617021e-4 -1.0423574468085106,0.024868085106382977 -1.5612034042553191,0.07591489361702128 0.30649021276595745,1.022287659574468 0.45816851063829794,2.085165957446809 0.44993021276595746,3.1528782978723404 -0.06748936170212766,5.873245957446809 -4.856137872340426,10.579092765957446 -10.695424680851064,10.510493617021277 -1.3600374468085106,-0.018093617021276598 -2.70384,-0.2999676595744681 -3.9577208510638298,-0.8301565957446809 -0.18907914893617023,0.9501446808510638 -0.2918434042553191,1.9156221276595746 -0.3070246808510638,2.8844987234042554 -0.10197446808510638,8.825342978723404 6.928568510638298,16.063019574468083 15.702897021276597,16.16553361702128 8.77400510638298,0.10243404255319148 15.969028085106384,-6.968604255319149 16.07056680851064,-15.793625531914895 0.10197446808510638,-8.82500085106383 -6.928039148936171,-16.062531063829788 -15.702022127659575,-16.165526808510638 z" stroke-width="1" stroke="#000000"/><text text-anchor="middle" fill="#000000" style="font: 1em courier, monospace;" x="440.14649324632626" y="415.48041029128916">i</text><circle cx="303.6342314084022" cy="419.7308485661987" r="40" stroke-width="2" stroke="#000000"/><path d="m 294.3833326849979,458.76611154492207 a 48.74642212765957,48.74642212765957 0 0 1 11.009378723404255,-37.52754212765957 48.74642212765957,48.74642212765957 0 0 1 35.045656170212766,-17.358711489361703 m -56.46444936170212,16.895137021276597 a 5.459122382978723,5.459122382978723 0 0 1 -5.45912255319149,5.45912170212766 5.459122382978723,5.459122382978723 0 0 1 -5.459122382978723,-5.45912170212766 5.459122382978723,5.459122382978723 0 0 1 5.459122382978723,-5.459123404255319 5.459122382978723,5.459122382978723 0 0 1 5.45912255319149,5.459123404255319 z m 16.07306723404255,-34.11906485106383 a 27.978001702127663,27.978001702127663 0 0 0 -1.8031795744680852,0.06333106382978723 19.50498893617021,19.50498893617021 0 0 1 0.30610212765957445,3.41460255319149 19.50498893617021,19.50498893617021 0 0 1 -19.505105021276595,19.504223829787236 19.50498893617021,19.50498893617021 0 0 1 -6.290890893617021,-1.0634348936170213 27.978001702127663,27.978001702127663 0 0 0 -0.6852073191489362,6.0586774468085105 27.978001702127663,27.978001702127663 0 0 0 27.978280680851068,27.978279148936174 27.978001702127663,27.978001702127663 0 0 0 27.97739744680851,-27.978279148936174 27.978001702127663,27.978001702127663 0 0 0 -27.97739744680851,-27.977400170212764 z m -18.814655319148937,1.428203574468085 a 58.06102978723404,58.06102978723404 0 0 1 44.65878127659575,65.22250723404255" stroke-width="1" stroke="#000000"/><text text-anchor="middle" fill="#000000" style="font: 1em courier, monospace;" x="324.25515156101847" y="489.959253184118">f</text><circle cx="207.11576859159783" cy="419.7308485661987" r="40" stroke-width="2" stroke="#000000"/><path d="m 207.6876707192574,403.62414090662423 a 17.173487659574466,17.173487659574466 0 0 1 -17.329596595744682,17.015942127659574 17.173487659574466,17.173487659574466 0 0 1 -17.015947234042553,-17.329593191489362 17.173487659574466,17.173487659574466 0 0 1 17.329596595744682,-17.01594553191489 17.173487659574466,17.173487659574466 0 0 1 17.015947234042553,17.329596595744682 z m 16.41845106382979,11.525131914893617 a 17.40095319148936,17.40095319148936 0 0 1 -17.10192340425532,13.490485106382978 17.40095319148936,17.40095319148936 0 0 1 -8.19971914893617,-2.1455421276595743 20.414842553191487,20.414842553191487 0 0 0 -1.6334672340425533,7.7997634042553186 20.414842553191487,20.414842553191487 0 0 0 2.939732765957447,10.693303829787233 3.753146212765958,3.753146212765958 0 0 1 2.201024680851064,-0.6941582978723404 3.753146212765958,3.753146212765958 0 0 1 3.718823829787234,3.7864834042553195 3.753146212765958,3.753146212765958 0 0 1 -0.9833225531914894,2.4927029787234045 20.414842553191487,20.414842553191487 0 0 0 12.35195744680851,4.321860425531915 20.414842553191487,20.414842553191487 0 0 0 20.600183829787234,-20.227336170212766 20.414842553191487,20.414842553191487 0 0 0 -13.893290212765956,-19.51756255319149 z m -11.500667234042554,-2.0400919148936167 a 7.051366468085107,7.051366468085107 0 0 1 -7.115465531914893,6.98668255319149 7.051366468085107,7.051366468085107 0 0 1 -6.98668255319149,-7.115465531914893 7.051366468085107,7.051366468085107 0 0 1 7.115467234042553,-6.986680851063831 7.051366468085107,7.051366468085107 0 0 1 6.986680851063831,7.115463829787235 z" stroke-width="2" stroke="#000000"/><text text-anchor="middle" fill="#000000" style="font: 1em courier, monospace;" x="186.4948484389816" y="489.959253184118">a</text><circle cx="125.91927076352624" cy="367.549027929364" r="40" stroke-width="2" stroke="#000000"/><path d="m 159.67428523161135,384.2973019719172 a 3.9237439999999997,3.184488 0 0 1 -3.923744680851064,3.184488510638298 3.9237439999999997,3.184488 0 0 1 -3.9237429787234044,-3.184488510638298 3.9237439999999997,3.184488 0 0 1 3.9237429787234044,-3.184488510638298 3.9237439999999997,3.184488 0 0 1 3.923744680851064,3.184488510638298 z m 3.5256834042553193,-7.961215319148937 a 3.9237439999999997,3.184488 0 0 1 -3.923744680851064,3.184488510638298 3.9237439999999997,3.184488 0 0 1 -3.923744680851064,-3.184488510638298 3.9237439999999997,3.184488 0 0 1 3.923744680851064,-3.1844868085106386 3.9237439999999997,3.184488 0 0 1 3.923744680851064,3.1844868085106386 z m 1.4785174468085107,-8.302413617021276 a 3.9237439999999997,3.184488 0 0 1 -3.923744680851064,3.184488510638298 3.9237439999999997,3.184488 0 0 1 -3.9237429787234044,-3.184488510638298 3.9237439999999997,3.184488 0 0 1 3.9237429787234044,-3.184488510638298 3.9237439999999997,3.184488 0 0 1 3.923744680851064,3.184488510638298 z m -1.251051914893617,-8.302417021276597 a 3.9237439999999997,3.184488 0 0 1 -3.923744680851064,3.1844868085106386 3.9237439999999997,3.184488 0 0 1 -3.9237429787234044,-3.1844868085106386 3.9237439999999997,3.184488 0 0 1 3.9237429787234044,-3.184488510638298 3.9237439999999997,3.184488 0 0 1 3.923744680851064,3.184488510638298 z m -3.5476102127659574,-7.843251063829788 a 3.9237439999999997,3.184488 0 0 1 -3.9237429787234044,3.1844868085106386 3.9237439999999997,3.184488 0 0 1 -3.923744680851064,-3.1844868085106386 3.9237439999999997,3.184488 0 0 1 3.923744680851064,-3.184488510638298 3.9237439999999997,3.184488 0 0 1 3.9237429787234044,3.184488510638298 z m -5.345394042553192,39.69237617021277 a 3.9237439999999997,3.184488 0 0 1 -3.9237429787234044,3.1844868085106386 3.9237439999999997,3.184488 0 0 1 -3.923744680851064,-3.1844868085106386 3.9237439999999997,3.184488 0 0 1 3.923744680851064,-3.184488510638298 3.9237439999999997,3.184488 0 0 1 3.9237429787234044,3.184488510638298 z m -0.03494468085106383,-46.86171404255319 a 3.9237439999999997,3.184488 0 0 1 -3.9237429787234044,3.184488510638298 3.9237439999999997,3.184488 0 0 1 -3.923744680851064,-3.184488510638298 3.9237439999999997,3.184488 0 0 1 3.923744680851064,-3.184488 3.9237439999999997,3.184488 0 0 1 3.9237429787234044,3.184488 z" stroke-width="2" stroke="#000000"/><path d="m 118.55112608267518,371.3318892059597 a 5.572853957446808,5.572853957446808 0 0 1 -5.572854468085107,5.572854468085107 5.572853957446808,5.572853957446808 0 0 1 -5.572852765957447,-5.572854468085107 5.572853957446808,5.572853957446808 0 0 1 5.572852765957447,-5.572852765957447 5.572853957446808,5.572853957446808 0 0 1 5.572854468085107,5.572852765957447 z m -4.995050212765957,-3.5256817021276596 a 9.439732085106384,9.439732085106384 0 0 1 -9.439731063829788,9.439731063829788 9.439732085106384,9.439732085106384 0 0 1 -9.439732765957446,-9.439731063829788 9.439732085106384,9.439732085106384 0 0 1 9.439732765957446,-9.439732765957446 9.439732085106384,9.439732085106384 0 0 1 9.439731063829788,9.439732765957446 z m -26.272024578723403,7.733754893617021 65.2820041531915,22.63261106382979 m -64.14468697872341,-41.73953872340426 64.25841974468085,-18.310805617021277 m -51.40673634042553,-0.6823901276595744 c 36.27696612765957,28.426894468085106 23.39082314893617,36.469968510638296 1.3647805957446808,62.21124510638298" stroke-width="1" stroke="#000000"/><text text-anchor="middle" fill="#000000" style="font: 1em courier, monospace;" x="70.60350675367377" y="415.4804102912892">e</text><circle cx="85.82405227756124" cy="279.75274600876315" r="40" stroke-width="2" stroke="#000000"/><path d="m 74.01284376692294,309.1901196257844 a 3.384313191489362,3.384313191489362 0 0 0 4.145698723404256,2.39172085106383 3.384313191489362,3.384313191489362 0 0 0 2.391724255319149,-4.145698723404256 3.384313191489362,3.384313191489362 0 0 0 -4.145700425531914,-2.39171914893617 3.384313191489362,3.384313191489362 0 0 0 -2.3917225531914896,4.145697021276596 z m -7.055657872340426,-5.941984680851064 a 4.850848510638298,4.850848510638298 0 0 0 5.9421685106382975,3.428136170212766 4.850848510638298,4.850848510638298 0 0 0 3.428132765957447,-5.9421685106382975 4.850848510638298,4.850848510638298 0 0 0 -5.9421685106382975,-3.4281344680851062 4.850848510638298,4.850848510638298 0 0 0 -3.428132765957447,5.942166808510638 z m -11.031915404255319,-6.190187234042553 a 6.58929429787234,6.58929429787234 0 0 0 8.07171795744681,4.656706382978723 6.58929429787234,6.58929429787234 0 0 0 4.6567080851063825,-8.07172085106383 6.58929429787234,6.58929429787234 0 0 0 -8.071719319148935,-4.656706382978723 6.58929429787234,6.58929429787234 0 0 0 -4.656706723404255,8.07172085106383 z" stroke-width="2" stroke="#000000"/><path d="m 47.35204114564634,272.7676838811036 c 18.395960068085106,17.60236085106383 38.405839217021274,32.78384680851064 65.30141879148935,37.636777872340424 m -65.30141879148935,-37.636777872340424 c 21.67257623829787,10.730614468085108 45.692080919148935,18.551038297872342 78.00784942978724,16.084095319148936 m -24.724141276595745,-45.60822110638298 c -15.08903659574468,4.121815489361702 -51.573952680851065,10.534265702127659 -16.420253617021277,17.936244936170212 32.08250042553192,6.7553072340425535 3.298551489361702,32.335404255319155 -9.291184680851064,57.61396765957446" stroke-width="1" stroke="#000000"/><text text-anchor="middle" fill="#000000" style="font: 1em courier, monospace;" x="13.375808641088838" y="290.16923088174735">r</text><circle cx="99.56006170372089" cy="184.2167019753025" r="40" stroke-width="2" stroke="#000000"/><path d="m 73.15036468244429,187.2643785710472 a 4.342851574468085,4.342851574468085 0 0 0 -4.995357787234043,3.5731131914893615 4.342851574468085,4.342851574468085 0 0 0 3.573115063829787,4.995356595744681 4.342851574468085,4.342851574468085 0 0 0 4.995354212765957,-3.573111489361702 4.342851574468085,4.342851574468085 0 0 0 -3.573111489361702,-4.9953582978723405 z m 6.503557446808511,7.062068085106382 a 6.681310127659574,6.681310127659574 0 0 0 -7.685160851063829,5.497097872340426 6.681310127659574,6.681310127659574 0 0 0 5.497092765957447,7.685164255319149 6.681310127659574,6.681310127659574 0 0 0 7.6851659574468085,-5.497099574468085 6.681310127659574,6.681310127659574 0 0 0 -5.497097872340426,-7.685162553191489 z m 12.325273191489362,7.351128510638297 a 8.685703319148937,8.685703319148937 0 0 0 -9.990713191489363,7.146222978723404 8.685703319148937,8.685703319148937 0 0 0 7.146224680851063,9.99071829787234 8.685703319148937,8.685703319148937 0 0 0 9.990713191489363,-7.146228085106383 8.685703319148937,8.685703319148937 0 0 0 -7.146224680851063,-9.990713191489363 z m 34.36550638297872,-19.898782978723407 a 4.342851574468085,4.342851574468085 0 0 0 4.966362553191489,-3.6133055319148935 4.342851574468085,4.342851574468085 0 0 0 -3.613307234042553,-4.966362553191489 4.342851574468085,4.342851574468085 0 0 0 -4.966359148936171,3.6133055319148935 4.342851574468085,4.342851574468085 0 0 0 3.6133038297872337,4.966362553191489 z m -6.560331914893617,-7.00936 a 6.681310127659574,6.681310127659574 0 0 0 7.640553191489362,-5.558931063829787 6.681310127659574,6.681310127659574 0 0 0 -5.558929361702128,-7.64055659574468 6.681310127659574,6.681310127659574 0 0 0 -7.64055659574468,5.558932765957447 6.681310127659574,6.681310127659574 0 0 0 5.558932765957447,7.640554893617022 z m -12.384190638297873,-7.251433191489362 a 8.685703319148937,8.685703319148937 0 0 0 9.932721702127658,-7.226609191489362 8.685703319148937,8.685703319148937 0 0 0 -7.226609361702128,-9.93272544680851 8.685703319148937,8.685703319148937 0 0 0 -9.932721702127658,7.226612425531916 8.685703319148937,8.685703319148937 0 0 0 7.226609361702128,9.932722212765956 z" stroke-width="2" stroke="#000000"/><path d="m 99.5780736186145,167.93737601785568 c -0.5213259574468085,-4.731914893617021e-4 -1.0423574468085106,0.024868085106382977 -1.5612034042553191,0.07591489361702128 0.30649021276595745,1.022287659574468 0.45816851063829794,2.085165957446809 0.44993021276595746,3.1528782978723404 -0.06748936170212766,5.873245957446809 -4.856137872340426,10.579092765957446 -10.695424680851064,10.510493617021277 -1.3600374468085106,-0.018093617021276598 -2.70384,-0.2999676595744681 -3.9577208510638298,-0.8301565957446809 -0.18907914893617023,0.9501446808510638 -0.2918434042553191,1.9156221276595746 -0.3070246808510638,2.8844987234042554 -0.10197446808510638,8.825342978723404 6.928568510638298,16.063019574468083 15.702897021276597,16.16553361702128 8.77400510638298,0.10243404255319148 15.969028085106384,-6.968604255319149 16.07056680851064,-15.793625531914895 0.10197446808510638,-8.82500085106383 -6.928039148936171,-16.062531063829788 -15.702022127659575,-16.165526808510638 z" stroke-width="1" stroke="#000000"/><text text-anchor="middle" fill="#000000" style="font: 1em courier, monospace;" x="32.981143900380346" y="153.81112901153818">i</text><circle cx="162.76621310320405" cy="111.27291478417538" r="40" stroke-width="2" stroke="#000000"/><path d="m 196.52122757128916,128.02118882672858 a 3.9237439999999997,3.184488 0 0 1 -3.923744680851064,3.184488510638298 3.9237439999999997,3.184488 0 0 1 -3.9237429787234044,-3.184488510638298 3.9237439999999997,3.184488 0 0 1 3.9237429787234044,-3.184488510638298 3.9237439999999997,3.184488 0 0 1 3.923744680851064,3.184488510638298 z m 3.5256834042553193,-7.961215319148937 a 3.9237439999999997,3.184488 0 0 1 -3.923744680851064,3.184488510638298 3.9237439999999997,3.184488 0 0 1 -3.923744680851064,-3.184488510638298 3.9237439999999997,3.184488 0 0 1 3.923744680851064,-3.1844868085106386 3.9237439999999997,3.184488 0 0 1 3.923744680851064,3.1844868085106386 z m 1.4785174468085107,-8.302413617021276 a 3.9237439999999997,3.184488 0 0 1 -3.923744680851064,3.184488510638298 3.9237439999999997,3.184488 0 0 1 -3.9237429787234044,-3.184488510638298 3.9237439999999997,3.184488 0 0 1 3.9237429787234044,-3.184488510638298 3.9237439999999997,3.184488 0 0 1 3.923744680851064,3.184488510638298 z m -1.251051914893617,-8.302417021276597 a 3.9237439999999997,3.184488 0 0 1 -3.923744680851064,3.1844868085106386 3.9237439999999997,3.184488 0 0 1 -3.9237429787234044,-3.1844868085106386 3.9237439999999997,3.184488 0 0 1 3.9237429787234044,-3.184488510638298 3.9237439999999997,3.184488 0 0 1 3.923744680851064,3.184488510638298 z m -3.5476102127659574,-7.843251063829788 a 3.9237439999999997,3.184488 0 0 1 -3.9237429787234044,3.1844868085106386 3.9237439999999997,3.184488 0 0 1 -3.923744680851064,-3.1844868085106386 3.9237439999999997,3.184488 0 0 1 3.923744680851064,-3.184488510638298 3.9237439999999997,3.184488 0 0 1 3.9237429787234044,3.184488510638298 z m -5.345394042553192,39.69237617021277 a 3.9237439999999997,3.184488 0 0 1 -3.9237429787234044,3.1844868085106386 3.9237439999999997,3.184488 0 0 1 -3.923744680851064,-3.1844868085106386 3.9237439999999997,3.184488 0 0 1 3.923744680851064,-3.184488510638298 3.9237439999999997,3.184488 0 0 1 3.9237429787234044,3.184488510638298 z m -0.03494468085106383,-46.86171404255319 a 3.9237439999999997,3.184488 0 0 1 -3.9237429787234044,3.184488510638298 3.9237439999999997,3.184488 0 0 1 -3.923744680851064,-3.184488510638298 3.9237439999999997,3.184488 0 0 1 3.923744680851064,-3.184488 3.9237439999999997,3.184488 0 0 1 3.9237429787234044,3.184488 z" stroke-width="2" stroke="#000000"/><path d="m 155.398068422353,115.05577606077114 a 5.572853957446808,5.572853957446808 0 0 1 -5.572854468085107,5.572854468085107 5.572853957446808,5.572853957446808 0 0 1 -5.572852765957447,-5.572854468085107 5.572853957446808,5.572853957446808 0 0 1 5.572852765957447,-5.572852765957447 5.572853957446808,5.572853957446808 0 0 1 5.572854468085107,5.572852765957447 z m -4.995050212765957,-3.5256817021276596 a 9.439732085106384,9.439732085106384 0 0 1 -9.439731063829788,9.439731063829788 9.439732085106384,9.439732085106384 0 0 1 -9.439732765957446,-9.439731063829788 9.439732085106384,9.439732085106384 0 0 1 9.439732765957446,-9.439732765957446 9.439732085106384,9.439732085106384 0 0 1 9.439731063829788,9.439732765957446 z m -26.272024578723403,7.733754893617021 65.2820041531915,22.63261106382979 m -64.14468697872341,-41.73953872340426 64.25841974468085,-18.310805617021277 m -51.40673634042553,-0.6823901276595744 c 36.27696612765957,28.426894468085106 23.39082314893617,36.469968510638296 1.3647805957446808,62.21124510638298" stroke-width="1" stroke="#000000"/><text text-anchor="middle" fill="#000000" style="font: 1em courier, monospace;" x="123.19495711140232" y="49.698838564145376">e</text></g></svg>