<svg xmlns="http://www.w3.org/2000/svg" width="810" height="162.8" style="stroke:#000000;fill:transparent;"><rect width="810" height="162.8" fill="#ffffff" stroke-width="0"/><g transform="matrix(1 0 0 1 0 0)"><path d="m 31.177367100000005,68.9214395 c -5.7935844,2.27510856 -12.158803080000002,3.4069474800000004 -18.62477712,4.33727622 4.92341544,-9.78930792 11.75602572,-17.66942046 19.390178520000003,-24.74799048 6.87093732,6.92001252 15.1984755,14.256196560000001 17.60424138,19.90044612 -3.8270091600000007,0.535977 -7.654018320000001,1.5949963800000002 -11.48102748,2.8064734200000006" stroke-width="1" stroke="#000000"/><text text-anchor="middle" fill="#000000" style="font: 1em courier, monospace;" x="27" y="16.28">f</text><path d="m 81.60549227999999,46.46965376 c 1.5270892200000001,9.98717418 2.5659466200000005,19.2420009 5.3578125000000005,31.1263398 m -16.32857238,-12.75669702 c -1.5308033400000003,-3.4017856200000005 -2.38124934,-6.803571240000001 -2.55133854,-10.205356860000002 9.865178460000001,-2.3635632600000003 19.73035746,-1.48845654 29.595535920000003,-1.2756695400000002 1.0710538200000002,2.7732180600000005 1.0421011800000002,7.19644554 0.7654008600000001,11.99129454" stroke-width="1" stroke="#000000"/><text text-anchor="middle" fill="#000000" style="font: 1em courier, monospace;" x="81" y="16.28">ɹ</text><path d="m 119.55329676,60.7324232 c 10.7450469,-2.6218636200000005 21.78900378,-3.7491784200000002 33.01446816,-3.9689530200000003 0.3908574,4.63044438 0.62992674,9.26088876 0.5412204,13.891333140000002" stroke-width="1" stroke="#000000"/><text text-anchor="middle" fill="#000000" style="font: 1em courier, monospace;" x="135" y="16.28">i</text><path d="m 189.09522414,69.94197524 c 2.5207005600000003,-6.6103452 7.52597568,-13.717605960000002 16.838838900000002,-21.686383799999998 l 7.143749640000001,8.92968678 m -37.50468696,18.11450952 c 8.8046325,-23.022144 30.29837184,-19.999868760000002 31.636606320000002,-3.0616066800000006" stroke-width="1" stroke="#000000"/><text text-anchor="middle" fill="#000000" style="font: 1em courier, monospace;" x="189" y="16.28">k</text><path d="m 242.5270707,54.65978192 a 1.5334588980000001,1.5334588980000001 0 0 1 -1.5334590600000002,1.5334585200000002 1.5334588980000001,1.5334588980000001 0 0 1 -1.5334590600000002,-1.5334585200000002 1.5334588980000001,1.5334588980000001 0 0 1 1.5334590600000002,-1.5334590600000002 1.5334588980000001,1.5334588980000001 0 0 1 1.5334590600000002,1.5334590600000002 z m -9.020344680000001,15.81461442 c 8.65953288,-0.3948858 17.319065220000002,-0.505575 25.978598100000003,-1.8040681800000002 -0.44037540000000003,-6.676922340000001 -1.24664616,-12.256144560000001 -2.16488376,-17.49947274" stroke-width="1" stroke="#000000"/><text text-anchor="middle" fill="#000000" style="font: 1em courier, monospace;" x="243" y="16.28">ɪ</text><path d="m 283.82825898,67.39063508000001 c 6.659205480000001,-6.45194808 21.299351220000002,-9.64303542 22.706920619999998,5.86808064 m -14.7977685,1.7859382200000002 c -16.736626242000003,-3.80824848 -3.3919581600000006,-34.03479681 19.39017906,-29.595535596000005 14.11954524,2.751293736 5.82817734,35.333715456 -19.39017906,29.595535596000005 z" stroke-width="1" stroke="#000000"/><text text-anchor="middle" fill="#000000" style="font: 1em courier, monospace;" x="297" y="16.28">s</text><path d="m 338.33852712,70.45224338 c 6.29330364,-7.894420380000001 12.58660728,-12.807095760000001 18.87991092,-17.349107580000002 5.03721612,4.93258896 10.25574858,9.865178460000001 11.991294000000002,14.797767420000001" stroke-width="1" stroke="#000000"/><text text-anchor="middle" fill="#000000" style="font: 1em courier, monospace;" x="351" y="16.28">m</text><path d="m 465.3825354,48.10393784 c 2.55991482,8.573682600000001 4.8620968200000005,17.250458220000002 9.74197476,24.89615568 -7.90413768,-0.8644104 -16.6318731,-1.1797558200000002 -25.978598100000003,-1.0824413400000001 4.064240880000001,-8.20749834 9.774825660000001,-16.08572736 16.23662334,-23.81371434 z" stroke-width="1" stroke="#000000"/><text text-anchor="middle" fill="#000000" style="font: 1em courier, monospace;" x="459" y="16.28">əʊ</text><path d="m 500.593662,69.43170764000001 c 11.765709540000001,-3.2335880400000003 19.6779888,-11.76564312 26.02365894,-22.451785740000005 -7.759208160000001,9.181463400000002 -9.813879,19.3136832 -9.439953840000001,29.850668640000002" stroke-width="1" stroke="#000000"/><text text-anchor="middle" fill="#000000" style="font: 1em courier, monospace;" x="513" y="16.28">l</text><path d="m 564.79901886,51.82746626 c -5.49871092,0.85044654 -10.891795140000001,1.70089308 -15.052901760000001,2.5513396200000003 3.22698438,5.62319334 8.76597606,13.173060240000002 16.0734375,22.1966514 8.90760564,-10.5079356 18.494787780000003,-16.938413280000002 28.0647315,-23.47232148 -4.5556938,-0.1700892 -11.644290000000002,-0.3401784 -18.11450952,-0.5102676" stroke-width="1" stroke="#000000"/><text text-anchor="middle" fill="#000000" style="font: 1em courier, monospace;" x="567" y="16.28">d</text><path d="m 704.4356268,65.34956468 -15.818305860000002,-19.645312482 m -33.67767726,29.085267942000005 c 16.022322720000002,-28.14689952 24.24267576,8.06121882 43.883035740000004,-16.32857238" stroke-width="1" stroke="#000000"/><text text-anchor="middle" fill="#000000" style="font: 1em courier, monospace;" x="675" y="16.28">h</text><path d="m 743.32043766,54.05736494 a 2.5256970180000002,1.443255408 0 0 1 -2.52569664,1.4432553000000001 2.5256970180000002,1.443255408 0 0 1 -2.5256971800000003,-1.4432553000000001 2.5256970180000002,1.443255408 0 0 1 2.5256971800000003,-1.4432553000000001 2.5256970180000002,1.443255408 0 0 1 2.52569664,1.4432553000000001 z m -28.32388506,-0.90203328 c 0.032184000000000004,4.634629920000001 0.57891294,10.29844422 2.52569664,18.76232052 15.997704660000002,1.9715977800000002 18.799859700000003,-3.59428968 31.932026280000002,-3.9689530200000003" stroke-width="1" stroke="#000000"/><text text-anchor="middle" fill="#000000" style="font: 1em courier, monospace;" x="729" y="16.28">aɪ</text><path d="m 45.72000018,142.41228792 c 1.1807985600000002,-2.4205570200000004 1.7876268000000002,-7.136994780000001 2.2962058200000004,-12.246428340000001 -8.723711340000001,2.8536672600000004 -17.591934780000003,5.34605508 -25.00312482,11.481025859999999 2.0979615600000003,9.112416300000001 7.767568980000001,13.679100180000002 17.3491065,13.266965160000002 m -28.57499964,-16.32857238 c 5.994915300000001,-1.67999778 10.63870794,-4.03555662 15.3080361,-6.3783477 -5.6165059799999995,13.01752512 -9.0751131,22.582411740000005 -7.90915266,24.74799048" stroke-width="1" stroke="#000000"/><text text-anchor="middle" fill="#000000" style="font: 1em courier, monospace;" x="27" y="97.68">g</text><path d="m 107.94892572,137.08102884000002 0.1804032,14.97377448 m -13.35011004,-7.03586952 12.80889234,-0.3608118 v 0 m -28.323889380000004,-12.267673560000002 c 9.6598386,-3.0641004 26.78029722,13.26746736 5.59261476,22.911679980000002 -11.846966580000002,5.3925048 -19.16636256,-18.60608718 -5.59261476,-22.911679980000002 z m -17.319064140000002,10.644009120000002 c 6.960028680000001,-0.6745107600000001 13.54233762,-0.21585960000000004 20.02516884,0.5412204 m -21.10761072,-12.087263880000002 c 0.43269120000000005,7.336548540000001 0.9960105600000001,14.673096540000001 3.7885455,22.009645080000002" stroke-width="1" stroke="#000000"/><text text-anchor="middle" fill="#000000" style="font: 1em courier, monospace;" x="81" y="97.68">æ</text><path d="m 122.593662,150.83170764000002 c 11.765709540000001,-3.2335880400000003 19.6779888,-11.76564312 26.02365894,-22.451785740000005 -7.759208160000001,9.181463400000002 -9.813879,19.3136832 -9.439953840000001,29.850668640000002" stroke-width="1" stroke="#000000"/><text text-anchor="middle" fill="#000000" style="font: 1em courier, monospace;" x="135" y="97.68">l</text><path d="m 176.593662,150.83170764000002 c 11.765709540000001,-3.2335880400000003 19.6779888,-11.76564312 26.02365894,-22.451785740000005 -7.759208160000001,9.181463400000002 -9.813879,19.3136832 -9.439953840000001,29.850668640000002" stroke-width="1" stroke="#000000"/><text text-anchor="middle" fill="#000000" style="font: 1em courier, monospace;" x="189" y="97.68">l</text><path d="m 242.5270707,136.05978192 a 1.5334588980000001,1.5334588980000001 0 0 1 -1.5334590600000002,1.5334585200000002 1.5334588980000001,1.5334588980000001 0 0 1 -1.5334590600000002,-1.5334585200000002 1.5334588980000001,1.5334588980000001 0 0 1 1.5334590600000002,-1.5334590600000002 1.5334588980000001,1.5334588980000001 0 0 1 1.5334590600000002,1.5334590600000002 z m -9.020344680000001,15.81461442 c 8.65953288,-0.3948858 17.319065220000002,-0.505575 25.978598100000003,-1.8040681800000002 -0.44037540000000003,-6.676922340000001 -1.24664616,-12.256144560000001 -2.16488376,-17.49947274" stroke-width="1" stroke="#000000"/><text text-anchor="middle" fill="#000000" style="font: 1em courier, monospace;" x="243" y="97.68">ɪ</text><path d="m 301.1773671,150.3214395 c -5.7935844,2.27510856 -12.158803080000002,3.4069474800000004 -18.62477712,4.33727622 4.92341544,-9.78930792 11.75602572,-17.66942046 19.390178520000003,-24.74799048 6.87093732,6.92001252 15.1984755,14.256196560000001 17.60424138,19.90044612 -3.8270091600000007,0.535977 -7.654018320000001,1.5949963800000002 -11.48102748,2.8064734200000006" stroke-width="1" stroke="#000000"/><text text-anchor="middle" fill="#000000" style="font: 1em courier, monospace;" x="297" y="97.68">f</text><path d="m 351.60549228,127.86965376 c 1.5270892200000001,9.98717418 2.5659466200000005,19.2420009 5.3578125000000005,31.1263398 m -16.32857238,-12.75669702 c -1.5308033400000003,-3.4017856200000005 -2.38124934,-6.803571240000001 -2.55133854,-10.205356860000002 9.865178460000001,-2.3635632600000003 19.73035746,-1.48845654 29.595535920000003,-1.2756695400000002 1.0710538200000002,2.7732180600000005 1.0421011800000002,7.19644554 0.7654008600000001,11.99129454" stroke-width="1" stroke="#000000"/><text text-anchor="middle" fill="#000000" style="font: 1em courier, monospace;" x="351" y="97.68">ɹ</text><path d="m 395.50672602,148.62707178000002 c -2.47777326,-22.793936706 28.6910127,-30.757319838000004 24.53534172,5.59261476" stroke-width="1" stroke="#000000"/><text text-anchor="middle" fill="#000000" style="font: 1em courier, monospace;" x="405" y="97.68">eɪ</text><path d="m 485.94892572000003,137.08102884000002 0.1804032,14.97377448 m -13.35011004,-7.03586952 12.80889234,-0.3608118 v 0 m -28.323889380000004,-12.267673560000002 c 9.6598386,-3.0641004 26.78029722,13.26746736 5.59261476,22.911679980000002 -11.846966580000002,5.3925048 -19.16636256,-18.60608718 -5.59261476,-22.911679980000002 z m -17.319064140000002,10.644009120000002 c 6.960028680000001,-0.6745107600000001 13.54233762,-0.21585960000000004 20.02516884,0.5412204 m -21.10761072,-12.087263880000002 c 0.43269120000000005,7.336548540000001 0.9960105600000001,14.673096540000001 3.7885455,22.009645080000002" stroke-width="1" stroke="#000000"/><text text-anchor="middle" fill="#000000" style="font: 1em courier, monospace;" x="459" y="97.68">æ</text><path d="m 526.36218768,131.18639532 c -9.968290920000001,-0.29625480000000004 -16.9396083,4.46488524 -16.073436960000002,22.451785740000005" stroke-width="1" stroke="#000000"/><text text-anchor="middle" fill="#000000" style="font: 1em courier, monospace;" x="513" y="97.68">n</text></g></svg>