<svg xmlns="http://www.w3.org/2000/svg" width="900" height="180" style="stroke:#000000;fill:transparent;"><rect width="900" height="180" fill="#ffffff" stroke-width="0"/><g transform="matrix(1 0 0 1 0 0)"><path d="M 113.1612797859699 85.90826224227482 A 180 180 0 0 1 36.83872021403013 85.90826224227482" fill="transparent" stroke-width="1" stroke="#000000"/><circle cx="75" cy="90" r="30" stroke-width="0" fill="#ffffff"/><path d="M 45.082570786736525 87.77571825764599 A 30 30 0 0 1 104.91742921326347 87.77571825764596" stroke-width="1" stroke="#000000"/><circle cx="70.30696604879307" cy="60.369349782145875" r="3.75" stroke-width="0" fill="#000000"/><circle cx="79.69303395120693" cy="60.36934978214587" r="3.75" stroke-width="0" fill="#000000"/><text text-anchor="middle" fill="#000000" style="font: 1em courier, monospace;" x="75" y="154">she</text><circle cx="75" cy="90" r="15" stroke-width="1" stroke="#000000"/><path d="M 188.1612797859699 85.90826224227482 A 180 180 0 0 1 111.83872021403013 85.90826224227482" fill="transparent" stroke-width="1" stroke="#000000"/><circle cx="150" cy="90" r="30" stroke-width="0" fill="#ffffff"/><path d="M 120.08257078673653 87.77571825764599 A 30 30 0 0 1 179.91742921326346 87.77571825764596" stroke-width="1" stroke="#000000"/><circle cx="140.72949016875157" cy="61.46830451114539" r="3.75" stroke-width="0" fill="#000000"/><circle cx="150" cy="60" r="3.75" stroke-width="0" fill="#000000"/><circle cx="159.27050983124843" cy="61.46830451114539" r="3.75" stroke-width="0" fill="#000000"/><text text-anchor="middle" fill="#000000" style="font: 1em courier, monospace;" x="150" y="154">r</text><path d="M 263.1612797859699 85.90826224227482 A 180 180 0 0 1 186.83872021403013 85.90826224227482" fill="transparent" stroke-width="1" stroke="#000000"/><circle cx="225" cy="52.5" r="30" stroke-width="1" stroke="#000000"/><line x1="196.4683045111454" y1="43.229490168751575" x2="167.93660902229078" y2="33.95898033750315" stroke-width="1" stroke="#000000"/><line x1="200.72949016875157" y1="34.866442431225806" x2="176.45898033750316" y2="17.232884862451606" stroke-width="1" stroke="#000000"/><line x1="207.3664424312258" y1="28.229490168751575" x2="189.7328848624516" y2="3.9589803375031494" stroke-width="1" stroke="#000000"/><text text-anchor="middle" fill="#000000" style="font: 1em courier, monospace;" x="225" y="154">ma</text><circle cx="225" cy="116.25" r="15" stroke-width="1" stroke="#000000"/><path d="M 338.1612797859699 85.90826224227482 A 180 180 0 0 1 261.8387202140301 85.90826224227482" fill="transparent" stroke-width="1" stroke="#000000"/><circle cx="300" cy="52.5" r="30" stroke-width="1" stroke="#000000"/><line x1="290.72949016875157" y1="23.96830451114539" x2="281.45898033750314" y2="-4.5633909777092185" stroke-width="1" stroke="#000000"/><text text-anchor="middle" fill="#000000" style="font: 1em courier, monospace;" x="300" y="154">n</text><path d="M 413.1612797859699 85.90826224227482 A 180 180 0 0 1 336.8387202140301 85.90826224227482" fill="transparent" stroke-width="1" stroke="#000000"/><path d="M 425.8817063812932 144.54434965636642 A 240 240 0 0 1 324.11829361870684 144.54434965636642" fill="transparent" stroke-width="1" stroke="#000000"/><line x1="360.9932781686457" y1="148.34219522386059" x2="367.99663908432285" y2="119.17109761193029" stroke-width="1" stroke="#000000"/><line x1="389.0067218313543" y1="148.34219522386059" x2="382.00336091567715" y2="119.17109761193029" stroke-width="1" stroke="#000000"/><text text-anchor="middle" fill="#000000" style="font: 1em courier, monospace;" x="375" y="154">'</text><path d="M 488.1612797859699 85.90826224227482 A 180 180 0 0 1 411.8387202140301 85.90826224227482" fill="transparent" stroke-width="1" stroke="#000000"/><circle cx="450" cy="90" r="30" stroke-width="0" fill="#ffffff"/><path d="M 420.08257078673654 87.77571825764599 A 30 30 0 0 1 479.91742921326346 87.77571825764596" stroke-width="1" stroke="#000000"/><line x1="421.4683045111454" y1="80.72949016875157" x2="392.9366090222908" y2="71.45898033750315" stroke-width="1" stroke="#000000"/><line x1="425.72949016875157" y1="72.3664424312258" x2="401.45898033750314" y2="54.732884862451606" stroke-width="1" stroke="#000000"/><line x1="432.36644243122583" y1="65.72949016875157" x2="414.7328848624516" y2="41.45898033750315" stroke-width="1" stroke="#000000"/><text text-anchor="middle" fill="#000000" style="font: 1em courier, monospace;" x="450" y="154">s</text><path d="M 638.1612797859699 85.90826224227482 A 180 180 0 0 1 561.8387202140301 85.90826224227482" fill="transparent" stroke-width="1" stroke="#000000"/><circle cx="600" cy="52.5" r="30" stroke-width="1" stroke="#000000"/><circle cx="590.7294901687516" cy="23.96830451114539" r="3.75" stroke-width="0" fill="#000000"/><circle cx="600" cy="22.5" r="3.75" stroke-width="0" fill="#000000"/><circle cx="609.2705098312484" cy="23.968304511145394" r="3.75" stroke-width="0" fill="#000000"/><text text-anchor="middle" fill="#000000" style="font: 1em courier, monospace;" x="600" y="154">li</text><circle cx="600" cy="52.5" r="15" stroke-width="1" stroke="#000000"/><line x1="600" y1="37.5" x2="600" y2="7.5" stroke-width="1" stroke="#000000"/><path d="M 713.1612797859699 85.90826224227482 A 180 180 0 0 1 636.8387202140301 85.90826224227482" fill="transparent" stroke-width="1" stroke="#000000"/><circle cx="675" cy="52.5" r="30" stroke-width="1" stroke="#000000"/><line x1="665.7294901687516" y1="23.96830451114539" x2="656.4589803375031" y2="-4.5633909777092185" stroke-width="1" stroke="#000000"/><text text-anchor="middle" fill="#000000" style="font: 1em courier, monospace;" x="675" y="154">ne</text><circle cx="675" cy="52.5" r="15" stroke-width="1" stroke="#000000"/><path d="M 788.1612797859699 85.90826224227482 A 180 180 0 0 1 711.8387202140301 85.90826224227482" fill="transparent" stroke-width="1" stroke="#000000"/><circle cx="750" cy="116.25" r="15" stroke-width="1" stroke="#000000"/><text text-anchor="middle" fill="#000000" style="font: 1em courier, monospace;" x="750" y="154">a</text><path d="M 863.1612797859699 85.90826224227482 A 180 180 0 0 1 786.8387202140301 85.90826224227482" fill="transparent" stroke-width="1" stroke="#000000"/><circle cx="825" cy="90" r="30" stroke-width="0" fill="#ffffff"/><path d="M 795.1231001684005 87.28506787330318 A 30 30 0 0 1 854.8768998315995 87.28506787330316" stroke-width="1" stroke="#000000"/><circle cx="815.7294901687516" cy="61.46830451114539" r="3.75" stroke-width="0" fill="#000000"/><circle cx="825" cy="60" r="3.75" stroke-width="0" fill="#000000"/><circle cx="834.2705098312484" cy="61.46830451114539" r="3.75" stroke-width="0" fill="#000000"/><text text-anchor="middle" fill="#000000" style="font: 1em courier, monospace;" x="825" y="154">r</text></g></svg>