<svg xmlns="http://www.w3.org/2000/svg" width="900" height="180" style="stroke:#000000;fill:transparent;"><rect width="900" height="180" fill="#ffffff" stroke-width="0"/><g transform="matrix(1 0 0 1 0 0)"><path d="M 113.1612797859699 85.90826224227482 A 180 180 0 0 1 36.83872021403013 85.90826224227482" fill="transparent" stroke-width="1" stroke="#000000"/><circle cx="75" cy="63" r="30" stroke-width="0" fill="#ffffff"/><path d="M 61.38028500781357 89.73019572565101 A 30 30 0 1 1 88.61971499218653 89.73019572565097" stroke-width="1" stroke="#000000"/><line x1="112.09120413551099" y1="50.94833721937705" x2="37.90879586448901" y2="50.948337219377045" stroke-width="1" stroke="#000000"/><text text-anchor="middle" fill="#000000" style="font: 1em courier, monospace;" x="75" y="154">l</text><path d="M 188.1612797859699 85.90826224227482 A 180 180 0 0 1 111.83872021403013 85.90826224227482" fill="transparent" stroke-width="1" stroke="#000000"/><circle cx="150" cy="52.5" r="30" stroke-width="1" stroke="#000000"/><line x1="187.091204135511" y1="40.44833721937705" x2="112.90879586448901" y2="40.448337219377045" stroke-width="1" stroke="#000000"/><text text-anchor="middle" fill="#000000" style="font: 1em courier, monospace;" x="150" y="154">i</text><path d="M 263.1612797859699 85.90826224227482 A 180 180 0 0 1 186.83872021403013 85.90826224227482" fill="transparent" stroke-width="1" stroke="#000000"/><path d="M 195.03752346684274 88.49999999999997 A 30 30 0 0 1 254.96247653315726 88.49999999999999" stroke-width="1" stroke="#000000"/><line x1="262.091204135511" y1="77.94833721937705" x2="187.908795864489" y2="77.94833721937705" stroke-width="1" stroke="#000000"/><text text-anchor="middle" fill="#000000" style="font: 1em courier, monospace;" x="225" y="154">n</text><path d="M 338.1612797859699 85.90826224227482 A 180 180 0 0 1 261.8387202140301 85.90826224227482" fill="transparent" stroke-width="1" stroke="#000000"/><circle cx="300" cy="52.5" r="30" stroke-width="1" stroke="#000000"/><circle cx="300" cy="31.5" r="2.4000000000000004" stroke-width="0" fill="#000000"/><text text-anchor="middle" fill="#000000" style="font: 1em courier, monospace;" x="300" y="154">e</text><path d="M 413.1612797859699 85.90826224227482 A 180 180 0 0 1 336.8387202140301 85.90826224227482" fill="transparent" stroke-width="1" stroke="#000000"/><circle cx="375" cy="52.5" r="30" stroke-width="1" stroke="#000000"/><circle cx="362.65650970185806" cy="35.510643118126104" r="6" stroke-width="1" stroke="#000000"/><text text-anchor="middle" fill="#000000" style="font: 1em courier, monospace;" x="375" y="154">a</text><path d="M 488.1612797859699 85.90826224227482 A 180 180 0 0 1 411.8387202140301 85.90826224227482" fill="transparent" stroke-width="1" stroke="#000000"/><path d="M 420.03752346684274 88.49999999999997 A 30 30 0 0 1 479.96247653315726 88.49999999999999" stroke-width="1" stroke="#000000"/><circle cx="450" cy="69" r="2.4000000000000004" stroke-width="0" fill="#000000"/><text text-anchor="middle" fill="#000000" style="font: 1em courier, monospace;" x="450" y="154">r</text><path d="M 638.1612797859699 85.90826224227482 A 180 180 0 0 1 561.8387202140301 85.90826224227482" fill="transparent" stroke-width="1" stroke="#000000"/><circle cx="600" cy="63" r="30" stroke-width="0" fill="#ffffff"/><path d="M 586.3802850078135 89.73019572565101 A 30 30 0 1 1 613.6197149921866 89.73019572565097" stroke-width="1" stroke="#000000"/><circle cx="600" cy="42" r="2.4000000000000004" stroke-width="0" fill="#000000"/><text text-anchor="middle" fill="#000000" style="font: 1em courier, monospace;" x="600" y="154">f</text><path d="M 713.1612797859699 85.90826224227482 A 180 180 0 0 1 636.8387202140301 85.90826224227482" fill="transparent" stroke-width="1" stroke="#000000"/><circle cx="675" cy="63" r="30" stroke-width="0" fill="#ffffff"/><path d="M 661.3802850078135 89.73019572565101 A 30 30 0 1 1 688.6197149921866 89.73019572565097" stroke-width="1" stroke="#000000"/><line x1="712.091204135511" y1="50.94833721937705" x2="637.908795864489" y2="50.948337219377045" stroke-width="1" stroke="#000000"/><text text-anchor="middle" fill="#000000" style="font: 1em courier, monospace;" x="675" y="154">l</text><path d="M 788.1612797859699 85.90826224227482 A 180 180 0 0 1 711.8387202140301 85.90826224227482" fill="transparent" stroke-width="1" stroke="#000000"/><circle cx="750" cy="52.5" r="30" stroke-width="1" stroke="#000000"/><circle cx="737.6565097018581" cy="35.510643118126104" r="6" stroke-width="1" stroke="#000000"/><circle cx="750" cy="31.5" r="2.4000000000000004" stroke-width="0" fill="#000000"/><text text-anchor="middle" fill="#000000" style="font: 1em courier, monospace;" x="750" y="154">u</text><path d="M 863.1612797859699 85.90826224227482 A 180 180 0 0 1 786.8387202140301 85.90826224227482" fill="transparent" stroke-width="1" stroke="#000000"/><circle cx="825" cy="90" r="30" stroke-width="0" fill="#ffffff"/><path d="M 795.0844939872313 87.75000000000004 A 30 30 0 0 1 854.9155060127687 87.75" stroke-width="1" stroke="#000000"/><circle cx="812.6565097018581" cy="73.0106431181261" r="6" stroke-width="1" stroke="#000000"/><circle cx="825" cy="69" r="2.4000000000000004" stroke-width="0" fill="#000000"/><text text-anchor="middle" fill="#000000" style="font: 1em courier, monospace;" x="825" y="154">x</text></g></svg>