<svg xmlns="http://www.w3.org/2000/svg" width="1125" height="300" style="stroke:#000000;fill:transparent;"><rect width="1125" height="300" fill="#ffffff" stroke-width="0"/><g transform="matrix(1 0 0 1 0 0)"><circle cx="112.5" cy="150" r="100" stroke-width="1" stroke="#000000"/><path d="M 112.5 250 C 112.5 166.67000000000002, 120.83651175606558 135.56422943722848, 162.50906872264895 63.402696084154115" stroke-width="1" stroke="#000000"/><path d="M 112.5 250 C 112.5 208.3333, 168.84565681298395 165.09770999865333, 209.0926097323209 175.8818033587219" stroke-width="1" stroke="#000000"/><circle cx="112.5" cy="225" r="25" fill="#ffffff" stroke-width="1" stroke="#000000"/><circle cx="112.5" cy="220" r="15" fill="#ffffff" stroke-width="1" stroke="#000000"/><circle cx="112.5" cy="195" r="25" stroke-width="1" stroke="#000000"/><circle cx="47.54809471616707" cy="112.50000000000006" r="25" fill="null" stroke-width="1" stroke="#000000"/><circle cx="51.87822173508927" cy="115.00000000000006" r="15" fill="null" stroke-width="1" stroke="#000000"/><text text-anchor="middle" fill="#000000" style="font: 1em courier, monospace;" x="112.5" y="30">kæt</text><circle cx="337.5" cy="150" r="100" stroke-width="1" stroke="#000000"/><path d="M 337.5 50 C 337.5 116.667, 308.63294974841597 166.66680229595718, 250.89798322508022 200.00090689694053" stroke-width="1" stroke="#000000"/><path d="M 337.5 50 C 337.5 108.333, 297.25265566620413 160.78379168367374, 240.90714634171923 175.88089299367306" stroke-width="1" stroke="#000000"/><circle cx="337.5" cy="75" r="25" fill="#ffffff" stroke-width="1" stroke="#000000"/><circle cx="337.5" cy="80" r="15" fill="#ffffff" stroke-width="1" stroke="#000000"/><circle cx="376.4711431702997" cy="127.49999999999994" r="7.5" stroke-width="0" fill="#000000"/><circle cx="272.54809471616704" cy="112.50000000000006" r="25" fill="null" stroke-width="1" stroke="#000000"/><circle cx="276.87822173508926" cy="115.00000000000006" r="15" fill="null" stroke-width="1" stroke="#000000"/><text text-anchor="middle" fill="#000000" style="font: 1em courier, monospace;" x="337.5" y="30">bɛt</text><circle cx="562.5" cy="150" r="100" stroke-width="1" stroke="#000000"/><path d="M 475.8974596215561 100.00000000000006 C 526.4158968507829 129.16683333333336, 551.7163808556129 190.24670038143813, 536.619107006327 246.59285365828077" stroke-width="1" stroke="#000000"/><path d="M 475.8974596215561 100.00000000000006 C 511.9818514459077 120.83333333333337, 521.2521044307847 191.24789556921527, 491.78932188134524 220.71067811865476" stroke-width="1" stroke="#000000"/><circle cx="497.54809471616704" cy="112.50000000000006" r="25" fill="#ffffff" stroke-width="1" stroke="#000000"/><circle cx="501.87822173508926" cy="115.00000000000006" r="15" fill="#ffffff" stroke-width="1" stroke="#000000"/><circle cx="601.4711431702997" cy="127.49999999999994" r="7.5" stroke-width="0" fill="#000000"/><circle cx="600.0000000000001" cy="214.95190528383284" r="25" fill="null" stroke-width="1" stroke="#000000"/><text text-anchor="middle" fill="#000000" style="font: 1em courier, monospace;" x="562.5" y="30">tɛn</text><circle cx="787.5" cy="150" r="100" stroke-width="1" stroke="#000000"/><path d="M 787.5 50 C 787.5 125, 769.8223304703363 167.6776695296637, 716.7893218813452 220.71067811865476" stroke-width="1" stroke="#000000"/><path d="M 787.5 50 C 787.5 100, 737.5 150, 687.5 150" stroke-width="1" stroke="#000000"/><circle cx="787.5" cy="75" r="25" fill="#ffffff" stroke-width="1" stroke="#000000"/><circle cx="787.5" cy="80" r="15" fill="#ffffff" stroke-width="1" stroke="#000000"/><circle cx="826.4711431702997" cy="127.49999999999994" r="7.5" stroke-width="0" fill="#000000"/><circle cx="825.0000000000001" cy="214.95190528383284" r="25" fill="null" stroke-width="1" stroke="#000000"/><text text-anchor="middle" fill="#000000" style="font: 1em courier, monospace;" x="787.5" y="30">bɛn</text><circle cx="1012.5" cy="150" r="100" stroke-width="1" stroke="#000000"/><path d="M 1099.1025403784438 99.99999999999996 C 1041.3704002108273 133.33166666666665, 983.6313454512542 133.32864345682628, 925.9026960841541 99.9909312773511" stroke-width="1" stroke="#000000"/><path d="M 1099.1025403784438 99.99999999999996 C 1048.5843918243515 129.16666666666666, 983.0372174505605 120.53721745056052, 941.7893218813452 79.28932188134526" stroke-width="1" stroke="#000000"/><circle cx="1077.451905283833" cy="112.49999999999997" r="25" fill="#ffffff" stroke-width="1" stroke="#000000"/><circle cx="1073.1217782649107" cy="114.99999999999997" r="15" fill="#ffffff" stroke-width="1" stroke="#000000"/><circle cx="1012.5" cy="195" r="7.5" stroke-width="0" fill="#000000"/><circle cx="1012.5" cy="225" r="25" fill="null" stroke-width="1" stroke="#000000"/><text text-anchor="middle" fill="#000000" style="font: 1em courier, monospace;" x="1012.5" y="30">dɜr</text></g></svg>