<svg xmlns="http://www.w3.org/2000/svg" width="1199.7450239999998" height="599.8725119999999" style="stroke:#000000;fill:transparent;"><rect width="1199.7450239999998" height="599.8725119999999" fill="#ffffff" stroke-width="0"/><g transform="matrix(1 0 0 1 0 0)"><path d="M 164.5845358649987 164.07497405501934 A 24 24 0 1 1 164.5845358649987 135.86128194498062" stroke-width="1" stroke="#000000"/><path d="M 164.51547170342064 135.74541589543 A 14.399999999999999 14.399999999999999 0 1 1 164.51547170342064 164.19084010456996" stroke-width="1" stroke="#000000"/><circle cx="137.75172013500122" cy="127.14277160891629" r="8" fill="#ffffff" stroke-width="1" stroke="#000000"/><text text-anchor="middle" fill="#000000" style="font: 1em courier, monospace;" x="149.96812799999998" y="33.96812799999998">klɒkw</text><circle cx="149.96812799999998" cy="149.96812799999998" r="54" stroke-width="4" stroke="#000000"/><circle cx="198.08248030617182" cy="174.48361498593553" r="8" stroke-width="0" fill="#000000"/><line x1="231.76252692049212" y1="191.6444558760904" x2="198.08248030617182" y2="174.48361498593553" stroke-width="4" stroke="#000000"/><circle cx="194.32969988090102" cy="114.6560770788817" r="21" fill="#ffffff" stroke-width="1" stroke="#000000"/><circle cx="194.32969988090102" cy="114.6560770788817" r="10.5" stroke-width="0" fill="#000000"/><circle cx="191.04457611505617" cy="93.9146219263838" r="8" fill="#ffffff" stroke-width="1" stroke="#000000"/><line x1="159.0692261216546" y1="109.07136667694546" x2="173.58824472840314" y2="111.37095331303685" stroke-width="1" stroke="#000000"/><line x1="229.59017364014744" y1="120.24078748081793" x2="215.0711550333989" y2="117.94120084472654" stroke-width="1" stroke="#000000"/><path d="M 213.82085507881476 138.6903888759392 A 76.60799999999999 76.60799999999999 0 1 1 140.9623174784756 85.75556278101517" stroke-width="1" stroke="#000000"/><path d="M 140.53352814232176 85.71652374401853 A 45.96479999999999 45.96479999999999 0 1 1 213.99048660121866 139.08612804233024" stroke-width="1" stroke="#000000"/><circle cx="68.1037798781365" cy="138.69038887593916" r="8" fill="#ffffff" stroke-width="1" stroke="#000000"/><path d="M 218.6591749488729 113.41931389493521 A 91.9296 91.9296 0 0 1 172.6943749488729 254.8844221444883" stroke-width="4" stroke="#000000"/><path d="M 69.9139575766906 221.4890401532275 A 91.9296 91.9296 0 0 1 115.87875757669057 80.02393190367442" stroke-width="4" stroke="#000000"/><path d="M 115.37491763491892 80.13838173729766 A 55.157759999999996 55.157759999999996 0 1 1 218.99951809987994 113.8080554426291" stroke-width="4" stroke="#000000"/><circle cx="186.89827929191847" cy="36.30880934347093" r="8" stroke-width="0" fill="#000000"/><circle cx="430.0714600595443" cy="139.34244552911363" r="21" fill="#ffffff" stroke-width="1" stroke="#000000"/><circle cx="430.0714600595443" cy="139.34244552911363" r="16.8" stroke-width="1" stroke="#000000"/><line x1="455.31517214790404" y1="164.58615761747336" x2="444.9207024644618" y2="154.19168793403114" stroke-width="1" stroke="#000000"/><text text-anchor="middle" fill="#000000" style="font: 1em courier, monospace;" x="449.90438399999994" y="33.96812799999998">ɜɹk</text><circle cx="449.90438399999994" cy="149.96812799999998" r="54" stroke-width="4" stroke="#000000"/><circle cx="501.26143587993823" cy="133.2812103037528" r="8" stroke-width="0" fill="#000000"/><path d="M 500.5985144360406 157.07797841172973 A 60.48 60.48 0 1 1 458.8078622558374 99.55808030619883" stroke-width="1" stroke="#000000"/><path d="M 458.49543659816027 99.42416068324839 A 36.288 36.288 0 1 1 500.62933472840643 157.4164963086933" stroke-width="1" stroke="#000000"/><circle cx="391.18916661624377" cy="121.52872635308097" r="8" fill="#ffffff" stroke-width="1" stroke="#000000"/><circle cx="749.8406399999999" cy="149.96812799999998" r="30" stroke-width="4" stroke="#000000"/><circle cx="771.0538434355964" cy="171.1813314355964" r="8" stroke-width="0" fill="#000000"/><line x1="785.9030858405138" y1="186.0305738405139" x2="771.0538434355964" y2="171.1813314355964" stroke-width="4" stroke="#000000"/><text text-anchor="middle" fill="#000000" style="font: 1em courier, monospace;" x="749.8406399999999" y="33.96812799999998">lineɛ</text><circle cx="750.2376295843417" cy="190.46618226523503" r="21" fill="#ffffff" stroke-width="1" stroke="#000000"/><line x1="753.5227533501866" y1="169.72472711273713" x2="746.9525058184968" y2="211.20763741773294" stroke-width="1" stroke="#000000"/><circle cx="749.8406399999999" cy="149.96812799999998" r="75.6" stroke-width="4" stroke="#000000"/><circle cx="794.2772050733108" cy="211.12981277474597" r="8" stroke-width="0" fill="#000000"/><circle cx="705.404074926689" cy="88.80644322525396" r="8" stroke-width="0" fill="#000000"/><circle cx="758.1124149338896" cy="78.62606369398853" r="21" fill="#ffffff" stroke-width="4" stroke="#000000"/><circle cx="758.1124149338896" cy="78.62606369398853" r="15.75" stroke-width="4" stroke="#000000"/><circle cx="669.1656208920724" cy="119.64943495535275" r="21" fill="#ffffff" stroke-width="1" stroke="#000000"/><circle cx="669.1656208920724" cy="119.64943495535275" r="16.8" stroke-width="1" stroke="#000000"/><circle cx="1049.7768959999999" cy="149.96812799999998" r="27" stroke-width="4" stroke="#000000"/><circle cx="1049.7768959999999" cy="149.96812799999998" r="36" stroke-width="1" stroke="#000000"/><text text-anchor="middle" fill="#000000" style="font: 1em courier, monospace;" x="1049.7768959999999" y="33.96812799999998">.</text></g></svg>