<svg xmlns="http://www.w3.org/2000/svg" width="1302" height="621" style="stroke:#000000;fill:transparent;"><rect width="1302" height="621" fill="#ffffff" stroke-width="0"/><g transform="matrix(1 0 0 1 0 0)"><path d="M 246.28452950042626 119.25693677016372 A 207 207 0 0 1 404.7154704995736 119.25693677016366" fill="transparent" stroke-width="1" stroke="#000000"/><circle cx="325.5" cy="130.5" r="30" stroke-width="0" fill="#ffffff"/><path d="M 339.1197149921865 103.76980427434903 A 30 30 0 1 1 311.88028500781354 103.76980427434899" stroke-width="1" stroke="#000000"/><circle cx="337.84349029814194" cy="147.4893568818739" r="6" stroke-width="1" stroke="#000000"/><text text-anchor="middle" fill="#000000" style="font: 1em courier, monospace;" x="325.49999999999994" y="47.5">s</text><path d="M 404.7154704995736 119.25693677016363 A 207 207 0 0 1 516.7430632298363 231.2845295004263" fill="transparent" stroke-width="1" stroke="#000000"/><circle cx="445.3545994111198" cy="190.64540058888014" r="30" stroke-width="1" stroke="#000000"/><line x1="410.6053449677735" y1="172.93977109903784" x2="463.06022890096216" y2="225.39465503222647" stroke-width="1" stroke="#000000"/><text text-anchor="middle" fill="#000000" style="font: 1em courier, monospace;" x="514.2975105768082" y="125.70248942319176">i</text><path d="M 516.7430632298363 231.28452950042623 A 207 207 0 0 1 516.7430632298364 389.7154704995736" fill="transparent" stroke-width="1" stroke="#000000"/><path d="M 531.375 340.47889882900967 A 30 30 0 0 1 531.375 280.5211011709902" stroke-width="1" stroke="#000000"/><circle cx="511.5" cy="310.49999999999994" r="2.4000000000000004" stroke-width="0" fill="#000000"/><text text-anchor="middle" fill="#000000" style="font: 1em courier, monospace;" x="592.5" y="314.49999999999994">r</text><path d="M 516.7430632298364 389.7154704995736 A 207 207 0 0 1 404.7154704995737 501.7430632298363" fill="transparent" stroke-width="1" stroke="#000000"/><circle cx="471.8711037056154" cy="456.87110370561527" r="30" stroke-width="0" fill="#ffffff"/><path d="M 449.8773259222823 477.2738912312786 A 30 30 0 0 1 492.2738912312787 434.8773259222821" stroke-width="1" stroke="#000000"/><circle cx="457.0218613006979" cy="442.02186130069776" r="2.4000000000000004" stroke-width="0" fill="#000000"/><text text-anchor="middle" fill="#000000" style="font: 1em courier, monospace;" x="514.2975105768082" y="503.2975105768081">k</text><path d="M 404.71547049957377 501.74306322983625 A 207 207 0 0 1 246.2845295004264 501.74306322983637" fill="transparent" stroke-width="1" stroke="#000000"/><circle cx="325.50000000000006" cy="480" r="30" stroke-width="1" stroke="#000000"/><circle cx="313.1565097018581" cy="463.0106431181261" r="6" stroke-width="1" stroke="#000000"/><circle cx="325.50000000000006" cy="459" r="2.4000000000000004" stroke-width="0" fill="#000000"/><text text-anchor="middle" fill="#000000" style="font: 1em courier, monospace;" x="325.50000000000006" y="581.5">u</text><path d="M 246.28452950042646 501.74306322983637 A 207 207 0 0 1 134.25693677016372 389.7154704995737" fill="transparent" stroke-width="1" stroke="#000000"/><circle cx="198.2207793864215" cy="437.77922061357856" r="30" stroke-width="0" fill="#ffffff"/><path d="M 169.68908389756683 447.0497304448268 A 30 30 0 1 1 188.9502695551731 466.31091610243317" stroke-width="1" stroke="#000000"/><line x1="232.97003382976786" y1="455.48485010342085" x2="180.51514989657917" y2="403.0299661702322" stroke-width="1" stroke="#000000"/><text text-anchor="middle" fill="#000000" style="font: 1em courier, monospace;" x="136.70248942319185" y="503.29751057680824">l</text><path d="M 134.25693677016372 389.71547049957377 A 207 207 0 0 1 134.25693677016363 231.2845295004264" fill="transparent" stroke-width="1" stroke="#000000"/><circle cx="156" cy="310.50000000000006" r="30" stroke-width="1" stroke="#000000"/><circle cx="172.98935688187387" cy="298.1565097018581" r="6" stroke-width="1" stroke="#000000"/><text text-anchor="middle" fill="#000000" style="font: 1em courier, monospace;" x="58.5" y="314.50000000000006">a</text><path d="M 134.2569367701635 231.2845295004268 A 207 207 0 0 1 246.28452950042626 119.25693677016372" fill="transparent" stroke-width="1" stroke="#000000"/><path d="M 201.1226740777176 143.7261087687215 A 30 30 0 0 1 158.7261087687212 186.12267407771796" stroke-width="1" stroke="#000000"/><circle cx="193.978138699302" cy="178.97813869930235" r="2.4000000000000004" stroke-width="0" fill="#000000"/><text text-anchor="middle" fill="#000000" style="font: 1em courier, monospace;" x="136.7024894231916" y="125.70248942319205">r</text><path d="M 872.5553031655776 206.55530316557747 A 147 147 0 0 1 1080.4446968344225 206.55530316557747" fill="transparent" stroke-width="1" stroke="#000000"/><circle cx="976.5" cy="190.5" r="30" stroke-width="0" fill="#ffffff"/><path d="M 990.1197149921866 163.769804274349 A 30 30 0 1 1 962.8802850078135 163.76980427434899" stroke-width="1" stroke="#000000"/><circle cx="976.5" cy="211.5" r="2.4000000000000004" stroke-width="0" fill="#000000"/><text text-anchor="middle" fill="#000000" style="font: 1em courier, monospace;" x="976.5" y="107.5">f</text><path d="M 1080.4446968344223 206.55530316557736 A 147 147 0 0 1 1080.4446968344225 414.4446968344225" fill="transparent" stroke-width="1" stroke="#000000"/><circle cx="1096.5" cy="310.5" r="30" stroke-width="0" fill="#ffffff"/><path d="M 1123.2301957256511 324.1197149921864 A 30 30 0 1 1 1123.2301957256511 296.88028500781377" stroke-width="1" stroke="#000000"/><line x1="1084.448337219377" y1="273.408795864489" x2="1084.448337219377" y2="347.591204135511" stroke-width="1" stroke="#000000"/><text text-anchor="middle" fill="#000000" style="font: 1em courier, monospace;" x="1183.5" y="314.49999999999994">l</text><path d="M 1080.4446968344225 414.44469683442253 A 147 147 0 0 1 872.5553031655777 414.4446968344226" fill="transparent" stroke-width="1" stroke="#000000"/><circle cx="976.5" cy="420" r="30" stroke-width="1" stroke="#000000"/><circle cx="964.1565097018581" cy="403.0106431181261" r="6" stroke-width="1" stroke="#000000"/><circle cx="976.5" cy="399" r="2.4000000000000004" stroke-width="0" fill="#000000"/><text text-anchor="middle" fill="#000000" style="font: 1em courier, monospace;" x="976.5" y="521.5">u</text><path d="M 872.5553031655777 414.44469683442264 A 147 147 0 0 1 872.5553031655776 206.55530316557747" fill="transparent" stroke-width="1" stroke="#000000"/><circle cx="829.5" cy="310.50000000000006" r="30" stroke-width="0" fill="#ffffff"/><path d="M 831.75 280.5844939872314 A 30 30 0 0 1 831.75 340.41550601276873" stroke-width="1" stroke="#000000"/><circle cx="846.4893568818738" cy="298.1565097018581" r="6" stroke-width="1" stroke="#000000"/><circle cx="850.5" cy="310.50000000000006" r="2.4000000000000004" stroke-width="0" fill="#000000"/><text text-anchor="middle" fill="#000000" style="font: 1em courier, monospace;" x="769.5" y="314.50000000000006">x</text></g></svg>