<svg xmlns="http://www.w3.org/2000/svg" width="720" height="270" style="stroke:#000000;fill:transparent;"><rect width="720" height="270" fill="#ffffff" stroke-width="0"/><g transform="matrix(1 0 0 1 0 0)"><circle cx="90" cy="108" r="60" fill="#ffffff" stroke-width="1" stroke="#000000"/><circle cx="118.33408188399969" cy="65.59504977257018" r="9" fill="#ffffff" stroke-width="1" stroke="#000000"/><text text-anchor="middle" fill="#000000" style="font: 1em courier, monospace;" x="90" y="243">bow</text><line x1="126.52568574052326" y1="155.6012004174741" x2="90" y2="108" stroke-width="1" stroke="#000000"/><line x1="30.513308317571386" y1="115.83157153320316" x2="90" y2="108" stroke-width="1" stroke="#000000"/><line x1="112.96100594190538" y1="52.56722804932279" x2="90" y2="108" stroke-width="1" stroke="#000000"/><circle cx="90" cy="108" r="30" fill="#ffffff" stroke-width="1" stroke="#000000"/><circle cx="90" cy="108" r="30" fill="#ffffff" stroke-width="3" stroke="#000000"/><circle cx="79.73895392856394" cy="126.32241614852875" r="1.5" stroke-width="0" fill="#000000"/><circle cx="100.26104607143606" cy="89.67758385147127" r="9" fill="#ffffff" stroke-width="1" stroke="#000000"/><circle cx="270" cy="108" r="90" fill="#ffffff" stroke-width="3" stroke="#000000"/><circle cx="315.00118887458774" cy="40.650961403493824" r="9" fill="#ffffff" stroke-width="1" stroke="#000000"/><text text-anchor="middle" fill="#000000" style="font: 1em courier, monospace;" x="270" y="243">tiאes</text><line x1="186.8508420739842" y1="142.4415089128581" x2="353.1491579260158" y2="73.55849108714187" stroke-width="1" stroke="#000000"/><path d="M 339.29096493834646 79.29874257261821 A 75 75 0 0 1 200.70903506165354 136.7012574273818" stroke-width="1" stroke="#000000"/><circle cx="270" cy="108" r="60" fill="#ffffff" stroke-width="1" stroke="#000000"/><circle cx="270" cy="108" r="60" fill="#ffffff" stroke-width="1" stroke="#000000"/><circle cx="270" cy="108" r="57" stroke-width="1" stroke="#000000"/><circle cx="270" cy="108" r="54" stroke-width="1" stroke="#000000"/><circle cx="294.91968331634473" cy="63.50270363928735" r="9" fill="#ffffff" stroke-width="1" stroke="#000000"/><circle cx="245.08031668365533" cy="152.49729636071265" r="9" fill="#ffffff" stroke-width="1" stroke="#000000"/><line x1="227.57359312880715" y1="150.42640687119285" x2="312.42640687119285" y2="65.57359312880715" stroke-width="1" stroke="#000000"/><circle cx="270" cy="108" r="30" fill="#ffffff" stroke-width="1" stroke="#000000"/><circle cx="270" cy="108" r="30" fill="#ffffff" stroke-width="3" stroke="#000000"/><circle cx="270" cy="108" r="26" stroke-width="1" stroke="#000000"/><circle cx="265.9031032376613" cy="87.40350911153216" r="1.5" stroke-width="0" fill="#000000"/><circle cx="450" cy="108" r="75" fill="#ffffff" stroke-width="1" stroke="#000000"/><circle cx="450" cy="108" r="72" stroke-width="1" stroke="#000000"/><circle cx="450" cy="108" r="69" stroke-width="1" stroke="#000000"/><circle cx="501.8309174381292" cy="67.13979934555098" r="9" fill="#ffffff" stroke-width="1" stroke="#000000"/><circle cx="398.1690825618708" cy="148.86020065444905" r="9" fill="#ffffff" stroke-width="1" stroke="#000000"/><text text-anchor="middle" fill="#000000" style="font: 1em courier, monospace;" x="450" y="243">אare</text><line x1="380.7090350616535" y1="136.70125742738173" x2="450" y2="108" stroke-width="1" stroke="#000000"/><circle cx="450" cy="108" r="45" fill="#ffffff" stroke-width="1" stroke="#000000"/><circle cx="450" cy="108" r="45" fill="#ffffff" stroke-width="3" stroke="#000000"/><circle cx="450" cy="108" r="41" stroke-width="1" stroke="#000000"/><circle cx="467.59036469389036" cy="76.59014374537931" r="1.5" stroke-width="0" fill="#000000"/><circle cx="432.40963530610964" cy="139.4098562546207" r="1.5" stroke-width="0" fill="#000000"/><line x1="418.1801948466054" y1="139.81980515339464" x2="481.8198051533946" y2="76.18019484660536" stroke-width="1" stroke="#000000"/><circle cx="450" cy="108" r="15" fill="#ffffff" stroke-width="1" stroke="#000000"/><circle cx="630" cy="108" r="90" fill="#ffffff" stroke-width="1" stroke="#000000"/><circle cx="693.6106714013404" cy="57.85339010590348" r="9" fill="#ffffff" stroke-width="1" stroke="#000000"/><circle cx="566.3893285986596" cy="158.14660989409657" r="9" fill="#ffffff" stroke-width="1" stroke="#000000"/><text text-anchor="middle" fill="#000000" style="font: 1em courier, monospace;" x="630" y="243">coאol</text><line x1="684.7885286107849" y1="179.40180062621113" x2="630" y2="108" stroke-width="1" stroke="#000000"/><line x1="540.769962476357" y1="119.74735729980475" x2="630" y2="108" stroke-width="1" stroke="#000000"/><line x1="664.4415089128581" y1="24.850842073984197" x2="630" y2="108" stroke-width="1" stroke="#000000"/><circle cx="630" cy="108" r="60" fill="#ffffff" stroke-width="1" stroke="#000000"/><circle cx="630" cy="108" r="60" fill="#ffffff" stroke-width="1" stroke="#000000"/><circle cx="630" cy="108" r="57" stroke-width="1" stroke="#000000"/><circle cx="630" cy="108" r="54" stroke-width="1" stroke="#000000"/><circle cx="654.9196833163447" cy="63.50270363928735" r="9" fill="#ffffff" stroke-width="1" stroke="#000000"/><circle cx="605.0803166836553" cy="152.49729636071265" r="9" fill="#ffffff" stroke-width="1" stroke="#000000"/><line x1="681.9615242270663" y1="137.99999999999994" x2="630" y2="108" stroke-width="1" stroke="#000000"/><line x1="578.0384757729337" y1="138.00000000000009" x2="630" y2="108" stroke-width="1" stroke="#000000"/><line x1="630" y1="48" x2="630" y2="108" stroke-width="1" stroke="#000000"/><circle cx="630" cy="108" r="30" fill="#ffffff" stroke-width="1" stroke="#000000"/><circle cx="630" cy="108" r="30" fill="#ffffff" stroke-width="1" stroke="#000000"/><circle cx="630" cy="108" r="27" stroke-width="1" stroke="#000000"/><circle cx="632.4682853466146" cy="87.14556240394654" r="1.5" stroke-width="0" fill="#000000"/><circle cx="627.5317146533854" cy="128.85443759605346" r="1.5" stroke-width="0" fill="#000000"/></g></svg>