<svg xmlns="http://www.w3.org/2000/svg" width="1430" height="715" style="stroke:#000000;fill:transparent;"><rect width="1430" height="715" fill="#ffffff" stroke-width="0"/><g transform="matrix(1 0 0 1 0 0)"><circle cx="357.5" cy="357.5" r="195.40172645927808" stroke-width="2" stroke="#000000"/><text text-anchor="middle" fill="#000000" style="font: 1em courier, monospace;" x="204.05782848251917" y="514.9421715174808"></text><path d="m 362.44196,463.3561204992481 c -15.453357333333333,-0.153416 -30.243356,10.444744533333333 -34.999040799999996,25.1603992 -4.8927743999999995,13.856002666666665 -0.38724293333333326,30.335991999999997 10.850298666666667,39.797562666666664 11.4924568,-10.21092 29.462115466666663,-11.961728 42.714688800000005,-4.173794666666666 3.068504,1.0738746666666665 5.885709333333333,6.482157333333333 8.337306666666667,1.8774 10.667392,-10.744439999999999 13.468391999999998,-28.266439999999996 6.660157333333332,-41.793650666666665 -6.015469333333333,-12.667156533333333 -19.548672,-21.05601493333333 -33.56341066666666,-20.867916533333332 z" fill="none" stroke-width="1" stroke="#000000"/><path d="m 368.47638666666666,513.5524476992481 c 0.12538666666666665,3.559645333333333 -3.602149333333333,6.509149333333333 -7.036250666666666,5.582447999999999 -3.493309333333333,-0.6878506666666666 -5.521567999999999,-4.987429333333333 -3.836141333333333,-8.121365333333333 1.4645146666666666,-3.2442320000000002 6.111741333333333,-4.245773333333333 8.780941333333333,-1.8888266666666667 1.312512,1.0680053333333333 2.1002159999999996,2.7355466666666666 2.091450666666667,4.427744 z m 0,-44.277653066666666 c 0.12538666666666665,3.559645333333333 -3.602149333333333,6.5091504 -7.036250666666666,5.5824496 -3.493309333333333,-0.6878517333333334 -5.521567999999999,-4.987428533333333 -3.836141333333333,-8.121365599999999 1.4645146666666666,-3.2442314666666663 6.111741333333333,-4.245772799999999 8.780941333333333,-1.8888266666666667 1.312512,1.0680056 2.1002159999999996,2.7355456 2.091450666666667,4.427742666666666 z" fill="#000000" stroke-width="1" stroke="#000000"/><text text-anchor="middle" fill="#000000" style="font: 1em courier, monospace;" x="357.5" y="578.5">i</text><text text-anchor="middle" fill="#000000" style="font: 1em courier, monospace;" x="510.9421715174808" y="514.9421715174808"></text><path d="m 507.2293970325814,343.4050072 c 12.601015999999998,12.601014133333333 25.202029333333332,25.20203013333333 37.80304533333333,37.80304613333333 m -42.174223999999995,-35.630039999999994 c 5.449754666666667,20.33876 10.899509333333334,40.67752 16.349263999999998,61.01628 m -55.93608213333333,-44.000704 c -0.3228970666666666,-16.95946133333333 12.673022933333332,-32.923924799999995 29.294399466666665,-36.20825013333333 15.449530666666664,-3.4537927999999996 32.64416533333333,4.141296799999999 40.229746666666664,18.101599466666666 7.7452000000000005,13.531637333333332 5.70264,31.858650666666666 -5.074888,43.19277066666667 -10.506167999999999,11.523368 -28.524469333333332,15.294552 -42.68651466666666,8.643658666666667 -12.926583466666665,-5.814882666666667 -21.998338399999998,-19.474114666666665 -21.762743466666667,-33.72977866666666 z m 3.56072,-14.192133333333333 c 0.5910938666666666,-4.903481866666667 7.261491733333333,0.5183706666666666 2.4380786666666667,2.0237146666666668 -1.2451695999999999,0.36574666666666666 -2.4580592,-0.8011946666666666 -2.4380786666666667,-2.0237146666666668 z m 3.047909333333333,-4.614849599999999 c -0.2824154666666666,-4.2304784 6.473183733333333,-5.5751592 7.789046933333333,-1.4827258666666667 1.9380392,4.632007466666666 -5.5452512,7.934954133333333 -7.457487466666667,3.091055466666666 l -0.25351466666666667,-0.778288 z m 6.806711999999999,-5.737389333333333 c -0.3362656,-5.642354666666667 7.638439466666666,-8.892558666666666 11.331799466666666,-4.564276533333333 4.026130666666666,3.921863733333333 0.7204586666666667,11.712355466666667 -5.002687999999999,11.1068408 -3.4650741333333333,-0.11335999999999999 -6.424913866666666,-3.032108533333333 -6.329111466666667,-6.542564266666666 z m 13.326743466666667,-1.74616 c -0.31340266666666666,-6.8419064 7.64884,-12.197708800000001 13.889528,-9.367905333333333 6.165157333333333,2.3418541333333334 8.388402666666666,11.119278399999999 3.8312186666666666,15.993070133333333 -4.113594666666666,4.901802133333333 -12.793352,4.493490133333333 -16.092866666666666,-1.1358090666666665 -1.0513813333333333,-1.6238274666666666 -1.6398773333333332,-3.55186 -1.6278799999999998,-5.489355733333333 z" fill="none" stroke-width="1" stroke="#000000"/><text text-anchor="middle" fill="#000000" style="font: 1em courier, monospace;" x="574.5" y="361.5">v</text><text text-anchor="middle" fill="#000000" style="font: 1em courier, monospace;" x="510.9421715174808" y="208.05782848251914"></text><path d="m 362.44196,187.85236270075188 c -14.42748,-0.10916266666666666 -28.37146106666667,9.062432 -33.93221573333333,22.384677599999996 -5.804897333333333,13.029762666666667 -3.0320672,29.260306666666665 6.7520549333333335,39.63628 5.2802824,5.760277333333333 12.429864799999999,9.765213333333332 20.097043466666666,11.270002666666667 -7.4526319999999995,-3.426976 -11.347578933333333,-12.760706666666666 -8.542943999999999,-20.46872533333333 2.4809599999999996,-7.8421493333333325 11.300199999999998,-12.862373333333332 19.309381333333334,-11.003271999999999 8.083061333333333,1.518549333333333 14.131685333333332,9.667178666666667 13.249562666666666,17.84290933333333 -0.446864,5.731965333333333 -4.091522666666666,11.071152 -9.266855999999999,13.575343999999998 14.15952,-2.7360239999999996 26.013866666666665,-14.479845333333332 28.819415999999997,-28.634992 3.1356586666666666,-14.046994666666667 -2.950469333333333,-29.539630133333333 -14.7782,-37.729966399999995 -6.284493333333334,-4.4850959999999995 -13.987128,-6.920174133333333 -21.707242666666666,-6.872257866666666 z" fill="none" stroke-width="1" stroke="#000000"/><text text-anchor="middle" fill="#000000" style="font: 1em courier, monospace;" x="357.5" y="144.5">ʌ</text><text text-anchor="middle" fill="#000000" style="font: 1em courier, monospace;" x="204.05782848251917" y="208.0578284825192"></text><path d="m 205.56635630075186,362.65555466666666 c 12.462196,0 24.92439333333333,0 37.38659066666666,0 m -27.298192,10.075810666666666 c 0.31340266666666666,6.8419039999999995 -7.64884,12.197714666666666 -13.889529066666665,9.367909333333333 -5.953445866666667,-2.277861333333333 -8.306946133333334,-10.600773333333333 -4.188403466666666,-15.558895999999999 3.8152578666666668,-5.117589333333333 12.517671199999999,-5.190906666666667 16.121172533333333,0.22376 1.2565573333333333,1.717192 1.9700293333333332,3.835725333333333 1.95676,5.967224 z m 39.538066666666666,-19.918298666666665 c 0.31340266666666666,6.8419039999999995 -7.64884,12.197714666666666 -13.889528,9.367909333333333 -5.953445333333333,-2.277861333333333 -8.306946666666665,-10.600770666666666 -4.188402666666667,-15.558895999999999 3.8152559999999998,-5.117590399999999 12.517669333333332,-5.1909072 16.121170666666664,0.22376 1.2565573333333333,1.717192 1.9700293333333332,3.835725333333333 1.95676,5.967224 z m 6.774850666666667,9.792101333333333 c 0.22117333333333333,15.453410666666667 -10.396738666666666,30.223354666666665 -25.082506666666664,35.003282666666664 -14.733168,5.273093333333333 -32.407195466666664,-0.10730666666666666 -41.6687936,-12.729901333333332 -9.4236472,-12.095704 -9.963187466666666,-30.115962666666665 -1.2753029333333332,-42.7515104 8.493723733333333,-13.151194933333333 25.81844853333333,-19.5661512 40.8363392,-15.176139733333333 14.944711999999999,3.901930666666667 26.423530666666665,18.01430613333333 27.124669333333333,33.4553648 0.04370666666666666,0.732096 0.06559999999999999,1.4655146666666665 0.06559999999999999,2.1989039999999997 z" fill="none" stroke-width="1" stroke="#000000"/><path d="m 209.17606163408522,387.72061066666663 c 0.14685333333333334,3.1503173333333327 -3.7519237333333333,5.371714666666667 -6.387723466666666,3.644133333333333 -2.7870152,-1.4769093333333334 -2.7170911999999996,-5.963245333333333 0.11384266666666666,-7.353213333333334 2.717463733333333,-1.5807146666666665 6.348299466666667,0.5533226666666666 6.273880800000001,3.70908 z m 40.66059733333333,-49.76558346666667 c 0.14685333333333334,3.1503170666666667 -3.7519226666666663,5.371714933333333 -6.387722666666666,3.6441341333333335 -2.787016,-1.4769114666666667 -2.7170906666666665,-5.9632456000000005 0.11384,-7.3532144 2.717464,-1.5807154666666667 6.3482986666666665,0.5533239999999999 6.273879999999999,3.7090802666666662 z" fill="#000000" stroke-width="1" stroke="#000000"/><text text-anchor="middle" fill="#000000" style="font: 1em courier, monospace;" x="140.5" y="361.5">s</text><circle cx="1072.5" cy="357.5" r="299.39677711870587" stroke-width="2" stroke="#000000"/><text text-anchor="middle" fill="#000000" style="font: 1em courier, monospace;" x="973.6145618000169" y="665.8380852144492"></text><path d="m 1086.9176693333334,613.7891477062147 c 11.596538666666667,-6.695264 23.193077333333335,-13.390530666666665 34.789615999999995,-20.085794666666665 m -37.21786933333333,18.104743999999997 c 8.456983999999999,-14.647928 16.913970666666664,-29.2958552 25.370954666666666,-43.94378264 m -28.324261333333332,43.94378264 c 0,-14.816666666666666 0,-29.633332799999998 0,-44.44999912 m 33.183442666666664,44.39961245333333 c 0.23602666666666666,15.744493333333333 -10.806578666666667,30.743482666666665 -25.877485333333333,35.264936 -15.119344,5.042157333333333 -33.01676053333333,-1.0704693333333333 -41.8512328,-14.346751999999999 -9.045352,-12.739911999999999 -8.549669333333332,-31.194773333333334 1.1618221333333332,-43.43337173333333 9.53066,-12.785737333333332 27.72707733333333,-17.9424184 42.55873866666666,-12.1025328 14.198421333333332,5.160964533333333 24.176229333333332,19.497307199999998 24.008157333333333,34.61772053333333 z" fill="none" stroke-width="1" stroke="#000000"/><path d="m 1078.096528,609.4351157062147 c -0.9297706666666665,0.0104 -3.622101333333333,0.07226666666666666 -1.35696,0.3885653333333333 6.819362666666667,1.571896 12.183152,7.828650666666666 12.694693333333333,14.808111999999998 0.7117866666666666,6.968381333333333 -3.4890026666666665,14.070557333333333 -9.940813333333333,16.800232 -6.395776,2.92812 -14.509058666666665,1.201808 -19.159831999999998,-4.075098666666666 3.728408,7.261557333333333 12.267765333333333,11.456402666666666 20.300618666666665,10.357944 7.802189333333333,-0.8585973333333332 14.881346666666666,-6.707957333333333 16.787557333333332,-14.38656 1.9626533333333331,-7.155197333333334 -0.9419199999999999,-15.220754666666666 -6.847322666666667,-19.657589333333334 -3.5353839999999996,-2.7500799999999996 -8.003357333333334,-4.244530666666666 -12.477941333333334,-4.235605333333333 z" fill="#000000" stroke-width="1" stroke="#000000"/><text text-anchor="middle" fill="#000000" style="font: 1em courier, monospace;" x="1072.5" y="681.5">g</text><text text-anchor="middle" fill="#000000" style="font: 1em courier, monospace;" x="1171.3854381999831" y="665.8380852144492"></text><path d="m 1224.216744644622,600.4637049713851 c 15.453357333333333,0.15341333333333332 30.243357333333336,-10.444744 34.99904266666667,-25.16039733333333 5.107032,-14.402522666666666 -0.021866666666666666,-31.599142933333333 -12.157674666666667,-40.877308799999994 -4.58292,-3.6156429333333335 -10.031677333333333,-6.122002933333333 -15.758250666666665,-7.253252799999999 8.063445333333332,3.66846 11.808914666666666,14.218917866666667 7.8671706666666665,22.151038933333332 -3.5010933333333334,8.020999999999999 -13.787831999999998,11.963928 -21.753352,8.339474666666666 -8.133866666666666,-3.230013333333333 -12.419872533333333,-13.379005866666667 -9.063789333333332,-21.461312266666667 1.4845173333333332,-3.8773989333333327 4.472797333333333,-7.147953866666667 8.200826666666666,-8.97546 -15.174052266666665,2.8945824 -27.575023466666668,16.205269866666665 -29.314329066666666,31.566270933333332 -2.1554234666666665,15.184626666666666 6.3553216,31.069288 20.159307733333332,37.73457066666666 5.195698666666667,2.607544 11.008074666666666,3.9659786666666665 16.821047999999998,3.9363759999999997 z" fill="none" stroke-width="1" stroke="#000000"/><text text-anchor="middle" fill="#000000" style="font: 1em courier, monospace;" x="1260.5912807335915" y="620.3854381999831">æ</text><text text-anchor="middle" fill="#000000" style="font: 1em courier, monospace;" x="1331.3854381999831" y="549.5912807335914"></text><path d="m 1313.7083329752331,402.6062585849445 c -14.426410666666666,0.158792 -28.197165599999998,9.587964266666667 -33.50779813333333,23.0113592 -5.585322666666666,13.189125333333333 -2.4547301333333333,29.43964 7.609873066666666,39.625448 6.910850933333333,7.227266666666666 16.84555973333333,11.422634666666667 26.8432584,11.355573333333332 -5.641935999999999,-7.846053333333334 -4.773885333333333,-19.494626666666665 1.9668826666666668,-26.41885333333333 6.468226666666666,-7.14288 17.994234666666664,-8.759471999999999 26.176789333333332,-3.6683226666666666 2.5714746666666666,1.533792 4.808333333333334,3.6240906666666666 6.512610666666667,6.085887999999999 3.277304,-8.609330666666665 3.1397013333333335,-18.446735999999998 -0.3762026666666667,-26.96131733333333 -5.627658666666666,7.907109333333333 -17.004416,10.831807999999999 -25.747506666666666,6.6181920000000005 -8.828456,-3.865112 -14.016090666666665,-14.283584266666667 -11.789589333333334,-23.657797866666662 0.45874399999999993,-2.0991799999999996 1.2413146666666666,-4.1270216 2.3116826666666666,-5.990169333333332 z" fill="none" stroke-width="1" stroke="#000000"/><path d="m 1337.6319063085664,465.5702257849445 c 0.1630933333333333,3.9141786666666665 -4.361815999999999,6.9711359999999996 -7.9228,5.291018666666666 -3.63488,-1.3187893333333331 -4.720584,-6.477967999999999 -2.0127813333333333,-9.201026666666666 2.545933333333333,-2.9618186666666664 7.8668960000000006,-2.1209973333333334 9.385335999999999,1.4620746666666666 0.3602266666666667,0.762168 0.5548186666666666,1.6041999999999998 0.5502453333333333,2.4479333333333333 z m 0,-52.21110959999999 c 0.1630933333333333,3.9141773333333334 -4.361815999999999,6.971137866666666 -7.9228,5.291018133333333 -3.63488,-1.3187898666666666 -4.720584,-6.477967199999999 -2.0127813333333333,-9.201026133333333 2.5459306666666666,-2.9618135999999997 7.8668960000000006,-2.121005333333333 9.385335999999999,1.4620655999999999 0.3602266666666667,0.7621885333333333 0.554816,1.6041565333333332 0.5502453333333333,2.4479423999999996 z" fill="#000000" stroke-width="1" stroke="#000000"/><text text-anchor="middle" fill="#000000" style="font: 1em courier, monospace;" x="1376.8380852144492" y="460.3854381999832">l</text><text text-anchor="middle" fill="#000000" style="font: 1em courier, monospace;" x="1392.5" y="361.5"></text><path d="m 1313.7083329752331,248.62151901505544 c -14.426410666666666,0.158792 -28.197165599999998,9.587964266666667 -33.50779813333333,23.0113592 -5.585322666666666,13.189125333333333 -2.4547301333333333,29.43964 7.609873066666666,39.625448 6.910850933333333,7.227266666666666 16.84555973333333,11.422634666666667 26.8432584,11.355573333333332 -5.641935999999999,-7.846053333333334 -4.773885333333333,-19.494626666666665 1.9668826666666668,-26.41885333333333 6.468226666666666,-7.14288 17.994234666666664,-8.759471999999999 26.176789333333332,-3.6683226666666666 2.5714746666666666,1.533792 4.808333333333334,3.6240906666666666 6.512610666666667,6.085887999999999 3.277304,-8.609330666666665 3.1397013333333335,-18.446735999999998 -0.3762026666666667,-26.96131733333333 -5.627658666666666,7.907109333333333 -17.004416,10.831807999999999 -25.747506666666666,6.6181920000000005 -8.828456,-3.865112 -14.016090666666665,-14.283584266666667 -11.789589333333334,-23.657797866666662 0.45874399999999993,-2.0991799999999996 1.2413146666666666,-4.1270216 2.3116826666666666,-5.990169333333332 z" fill="none" stroke-width="1" stroke="#000000"/><path d="m 1337.6319063085664,311.5854862150554 c 0.1630933333333333,3.9141786666666665 -4.361815999999999,6.9711359999999996 -7.9228,5.291018666666666 -3.63488,-1.3187893333333331 -4.720584,-6.477967999999999 -2.0127813333333333,-9.201026666666666 2.545933333333333,-2.9618186666666664 7.8668960000000006,-2.1209973333333334 9.385335999999999,1.4620746666666666 0.3602266666666667,0.762168 0.5548186666666666,1.6041999999999998 0.5502453333333333,2.4479333333333333 z m 0,-52.21110959999999 c 0.1630933333333333,3.9141773333333334 -4.361815999999999,6.971137866666666 -7.9228,5.291018133333333 -3.63488,-1.3187898666666666 -4.720584,-6.477967199999999 -2.0127813333333333,-9.201026133333333 2.5459306666666666,-2.9618135999999997 7.8668960000000006,-2.121005333333333 9.385335999999999,1.4620655999999999 0.3602266666666667,0.7621885333333333 0.554816,1.6041565333333332 0.5502453333333333,2.4479423999999996 z" fill="#000000" stroke-width="1" stroke="#000000"/><text text-anchor="middle" fill="#000000" style="font: 1em courier, monospace;" x="1376.8380852144492" y="262.61456180001676">l</text><text text-anchor="middle" fill="#000000" style="font: 1em courier, monospace;" x="1331.385438199983" y="173.4087192664083"></text><path d="m 1223.8901499779552,124.03559982861476 c -15.453357333333333,-0.153416 -30.243356,10.444744533333333 -34.999040799999996,25.1603992 -4.8927743999999995,13.856002666666665 -0.38724293333333326,30.335991999999997 10.850298666666667,39.797562666666664 11.4924568,-10.21092 29.462115466666663,-11.961728 42.714688800000005,-4.173794666666666 3.068504,1.0738746666666665 5.885709333333333,6.482157333333333 8.337306666666667,1.8774 10.667392,-10.744439999999999 13.468391999999998,-28.266439999999996 6.660157333333332,-41.793650666666665 -6.015469333333333,-12.667156533333333 -19.548672,-21.05601493333333 -33.56341066666666,-20.867916533333332 z" fill="none" stroke-width="1" stroke="#000000"/><path d="m 1229.9245766446218,174.23192702861476 c 0.12538666666666665,3.559645333333333 -3.602149333333333,6.509149333333333 -7.036250666666666,5.582447999999999 -3.493309333333333,-0.6878506666666666 -5.521567999999999,-4.987429333333333 -3.836141333333333,-8.121365333333333 1.4645146666666666,-3.2442320000000002 6.111741333333333,-4.245773333333333 8.780941333333333,-1.8888266666666667 1.312512,1.0680053333333333 2.1002159999999996,2.7355466666666666 2.091450666666667,4.427744 z m 0,-44.277653066666666 c 0.12538666666666665,3.559645333333333 -3.602149333333333,6.5091504 -7.036250666666666,5.5824496 -3.493309333333333,-0.6878517333333334 -5.521567999999999,-4.987428533333333 -3.836141333333333,-8.121365599999999 1.4645146666666666,-3.2442314666666663 6.111741333333333,-4.245772799999999 8.780941333333333,-1.8888266666666667 1.312512,1.0680056 2.1002159999999996,2.7355456 2.091450666666667,4.427742666666666 z" fill="#000000" stroke-width="1" stroke="#000000"/><text text-anchor="middle" fill="#000000" style="font: 1em courier, monospace;" x="1260.5912807335912" y="102.61456180001682">i</text><text text-anchor="middle" fill="#000000" style="font: 1em courier, monospace;" x="1171.3854381999834" y="57.16191478555089"></text><path d="m 1040.9537896,113.29757229378531 c -0.20451733333333333,16.251874666666666 11.638431733333334,31.70968 27.403189066666663,35.710034666666665 14.488461333333333,4.007712 31.11376,-1.8227306666666667 39.67042933333333,-14.250096 2.826325333333333,-3.9598133333333334 4.877714666666666,-8.475112 5.9679226666666665,-13.217890666666666 -2.524464,4.769191999999999 -9.653874666666667,6.380130666666666 -13.536509333333331,2.3362506666666665 -6.177408,-5.639728 -5.6517333333333335,-17.509912 1.7789519999999999,-21.85134933333333 4.2699386666666665,-2.642512 9.905109333333332,-0.12309333333333333 12.051074666666667,4.092093333333333 -2.7920079999999996,-16.025634933333333 -17.316706666666665,-29.037733333333335 -33.565466666666666,-30.021961866666665 -15.015189333333334,-1.2289223999999999 -30.2908288,7.643214933333333 -36.36589813333333,21.491193866666666 -2.25338,4.908245333333333 -3.438013333333333,10.309005333333332 -3.4036935999999995,15.711725333333334 z" fill="none" stroke-width="1" stroke="#000000"/><path d="m 1063.5444453333334,113.50300962711864 c 0.122,2.915672 -3.2484159999999997,5.143967999999999 -5.883585066666666,3.8984346666666667 -2.730930133333333,-1.0245626666666667 -3.4746615999999997,-4.996034666666667 -1.2964701333333333,-6.937832 2.0081946666666664,-2.1168639999999996 5.954839199999999,-1.2505279999999999 6.894372533333333,1.5106186666666668 0.18853333333333333,0.48614399999999997 0.28590933333333335,1.0073973333333333 0.28568266666666664,1.5287786666666667 z m 13.846525333333332,-18.33066133333333 c -6.869362666666666,-0.04434666666666666 -13.509181333333332,4.255538666666666 -16.278765333333332,10.541992 3.6704106666666663,-4.424746666666667 10.725453333333334,-5.321869333333333 15.384850666666667,-1.9524026666666665 4.907005333333333,3.22508 6.5136026666666655,10.359138666666666 3.4623866666666663,15.376194666666665 -2.819725333333333,5.150544 -9.801466666666666,7.326293333333333 -15.047634666666667,4.6881759999999995 -1.2867039999999998,-0.6100266666666666 -2.4592586666666665,-1.4594293333333335 -3.4399333333333333,-2.491904 3.531730666666667,7.207290666666666 12.259485333333332,11.269746666666666 20.048085333333333,9.333738666666665 7.868362666666666,-1.674008 13.941165333333332,-9.180882666666665 13.934714666666666,-17.225344 0.26066666666666666,-7.938586666666667 -5.409058666666667,-15.560354666666665 -13.087410666666665,-17.593192 -1.6162426666666667,-0.4571573333333333 -3.296730666666667,-0.685288 -4.976293333333333,-0.6772586666666666 z" fill="#000000" stroke-width="1" stroke="#000000"/><text text-anchor="middle" fill="#000000" style="font: 1em courier, monospace;" x="1072.5" y="41.5">f</text><text text-anchor="middle" fill="#000000" style="font: 1em courier, monospace;" x="973.6145618000166" y="57.16191478555089"></text><path d="m 931.2073646887113,168.25382302861493 c -9.866989333333333,-17.090125333333333 -19.7339768,-34.180250666666666 -29.600965333333335,-51.27037618666666 m 29.600965333333335,51.27037618666666 c 9.846143999999999,-17.05402133333333 19.69228533333333,-34.10804053333333 29.538429333333333,-51.16206098666667 m -29.538429333333333,51.16206098666667 c 0,-17.149794666666665 0,-34.29958906666666 0,-51.44938352 m -0.2136,7.231160586666666 c -16.251874666666666,-0.20451733333333333 -31.709678666666665,11.6384312 -35.71003519999999,27.403188266666664 -4.0077104,14.488461333333333 1.8227309333333332,31.11376 14.250094933333333,39.67042933333333 3.959814933333333,2.826325333333333 8.4751136,4.877714666666666 13.217892266666667,5.9679226666666665 -4.758258666666666,-2.5284026666666666 -6.397429333333333,-9.647050666666665 -2.3362506666666665,-13.536509333333331 5.904354666666666,-6.522349333333333 18.802135999999997,-5.524234666666667 22.39686933333333,2.9491066666666663 1.7492826666666668,4.185978666666666 -0.8851333333333333,8.872914666666667 -4.6376133333333325,10.88092 16.025634666666665,-2.7920079999999996 29.037733333333335,-17.316706666666665 30.021962666666667,-33.565466666666666 1.2289226666666666,-15.015189333333334 -7.643216,-30.290827999999998 -21.491194666666665,-36.36589733333333 -4.908245333333333,-2.25338 -10.309005333333332,-3.438013333333333 -15.711725333333334,-3.4036935999999995 z" fill="none" stroke-width="1" stroke="#000000"/><path d="m 932.8257380220446,168.31292969528158 c 0.09530666666666666,1.2623173333333333 -1.5999893333333333,2.083781333333333 -2.5772293333333334,1.32948 -0.5693946666666666,-0.4179173333333333 -0.8532799999999999,-1.2024533333333332 -0.554192,-1.8690773333333333 0.2758,-0.782864 1.186208,-1.3218453333333333 1.991448,-1.0104 0.6606639999999999,0.19829333333333332 1.1530773333333333,0.8579439999999999 1.1399733333333333,1.5499973333333332 z m 3.2403626666666665,6.179536 c 0.050053333333333325,2.313469333333333 -1.8578613333333334,4.446344 -4.162589333333333,4.653410666666666 -2.267517333333333,0.301496 -4.577330666666667,-1.3145973333333334 -5.069946666666667,-3.5488133333333334 -0.5857226666666666,-2.2109386666666664 0.7244053333333333,-4.707026666666666 2.878525333333333,-5.478370666666667 2.1190773333333333,-0.8611519999999999 4.7608,0.12298666666666666 5.798661333333333,2.1619279999999996 0.363544,0.67664 0.556128,1.4437573333333333 0.5553493333333333,2.211845333333333 z" fill="#000000" stroke-width="1" stroke="#000000"/><text text-anchor="middle" fill="#000000" style="font: 1em courier, monospace;" x="884.4087192664085" y="102.61456180001693">r</text><text text-anchor="middle" fill="#000000" style="font: 1em courier, monospace;" x="813.6145618000169" y="173.40871926640864"></text><path d="m 840.4838110247667,248.6118726150556 c -16.083970666666666,-0.19513066666666667 -31.4108672,11.390187999999998 -35.58008613333333,26.936682933333334 -3.7470434666666663,13.085207999999998 0.3583032,28.27888 10.657220533333334,37.271517333333335 3.486962666666667,0.48733066666666663 5.821058399999999,-4.144634666666667 9.447788266666667,-4.847778666666667 3.7035279999999995,-1.7136106666666664 7.689176,-2.8200906666666663 11.748861333333332,-3.241194666666667 -6.1787600000000005,-2.515285333333333 -7.9075679999999995,-11.577258666666667 -3.0756266666666665,-16.19523733333333 4.2152986666666665,-4.520293333333333 12.457290666666667,-3.8815599999999995 15.688098666666665,1.4802906666666664 3.2312053333333335,4.757434666666667 1.4883786666666667,11.987213333333333 -3.779048,14.489658666666665 -0.5080266666666666,0.702184 4.085461333333333,0.7421013333333333 5.51056,1.5188026666666667 5.085085333333333,1.4921280000000001 9.853048,4.072549333333333 13.857568,7.546602666666666 12.211282666666666,-10.20804 16.312629333333334,-28.727448 9.562159999999999,-43.14492 -5.856058666666667,-13.0911968 -19.644741333333332,-22.081551466666667 -34.037496,-21.814424266666666 z" fill="none" stroke-width="1" stroke="#000000"/><text text-anchor="middle" fill="#000000" style="font: 1em courier, monospace;" x="768.1619147855508" y="262.614561800017">eɪ</text><text text-anchor="middle" fill="#000000" style="font: 1em courier, monospace;" x="752.5" y="361.5"></text><path d="m 840.4838110247669,402.59661218494466 c -14.280045333333334,-0.10344266666666665 -28.098928,8.872085866666666 -33.75981253333333,21.9912616 -5.890355199999999,12.828789333333333 -3.4334818666666664,28.896818666666665 6.005306399999999,39.39018133333333 1.7805392,2.0438959999999997 3.7834482666666664,4.926669333333333 5.9611583999999995,1.702336 11.5047264,-8.620933333333333 28.080094399999997,-9.535381333333333 40.466027733333334,-2.238621333333333 2.3086933333333333,0.6191973333333333 4.474333333333333,4.345552 6.446802666666667,3.5442319999999996 10.551509333333332,-9.336138666666667 14.835093333333333,-24.979279999999996 10.481362666666666,-38.382941333333335 -4.099261333333333,-13.6844392 -16.787242666666664,-24.195100266666664 -30.980207999999998,-25.738588266666667 -1.5326853333333332,-0.185176 -3.076856,-0.27374639999999995 -4.620637333333333,-0.26786 z" fill="none" stroke-width="1" stroke="#000000"/><path d="m 846.5182376914336,408.5152860516113 c 0.04981333333333333,2.662916533333333 -2.003125333333333,5.1593136 -4.625527999999999,5.6247181333333325 -2.533853333333333,0.5437504 -5.308712,-0.8851002666666666 -6.332709333333334,-3.2675431999999995 -1.1072026666666666,-2.34406 -0.34428533333333333,-5.370725333333334 1.7418693333333333,-6.9098424 2.0309626666666665,-1.6118205333333333 5.151690666666666,-1.5568525333333334 7.124917333333333,0.12492533333333333 1.312512,1.0680056 2.1002159999999996,2.7355456 2.091450666666667,4.427742666666666 z" fill="#000000" stroke-width="1" stroke="#000000"/><text text-anchor="middle" fill="#000000" style="font: 1em courier, monospace;" x="768.1619147855508" y="460.38543819998324">e</text><text text-anchor="middle" fill="#000000" style="font: 1em courier, monospace;" x="813.6145618000169" y="549.5912807335915"></text><path d="m 911.2719505553782,538.2853329713852 c 5.4618328,-0.3675770666666667 9.3353048,4.233513866666666 11.361827466666664,8.772777333333334 5.213605333333333,11.355469333333334 8.691554666666665,23.433359999999997 13.918584,34.781616 2.4005919999999996,5.18012 6.642797333333332,10.297504 12.882687999999998,10.176464 m 18.836312,-27.842381333333336 c 0.22117333333333333,15.453410666666667 -10.396738666666666,30.223354666666665 -25.082506666666664,35.003282666666664 -14.733168,5.273093333333333 -32.407195466666664,-0.10730666666666666 -41.6687936,-12.729901333333332 -9.4236472,-12.095704 -9.963187466666666,-30.115962666666665 -1.2753029333333332,-42.7515104 8.493723733333333,-13.151194933333333 25.81844853333333,-19.5661512 40.8363392,-15.176139733333333 14.944711999999999,3.901930666666667 26.423530666666665,18.01430613333333 27.124669333333333,33.4553648 0.04370666666666666,0.732096 0.06559999999999999,1.4655146666666665 0.06559999999999999,2.1989039999999997 z" fill="none" stroke-width="1" stroke="#000000"/><path d="m 956.1663940220449,589.0950276380519 c 0.14685333333333334,3.1503173333333327 -3.7519226666666663,5.371714666666667 -6.387722666666666,3.644133333333333 -2.787016,-1.4769093333333334 -2.7170906666666665,-5.963245333333333 0.11384,-7.353213333333334 2.717464,-1.5807146666666665 6.3482986666666665,0.5533226666666666 6.273879999999999,3.70908 z m -43.21527999999999,-48.595137599999994 c 0.14685333333333334,3.1503173333333327 -3.751924266666667,5.3717136 -6.387724266666667,3.6441338666666665 -2.7870152,-1.4769112 -2.7170911999999996,-5.963245333333333 0.11384266666666666,-7.353214133333333 2.717464,-1.5807154666666667 6.348300266666667,0.5533234666666667 6.2738816,3.7090802666666662 z" fill="#000000" stroke-width="1" stroke="#000000"/><text text-anchor="middle" fill="#000000" style="font: 1em courier, monospace;" x="884.4087192664086" y="620.3854381999831">n</text></g></svg>