<svg xmlns="http://www.w3.org/2000/svg" width="1499.6812799999998" height="299.93625599999996" style="stroke:#000000;fill:transparent;"><rect width="1499.6812799999998" height="299.93625599999996" fill="#ffffff" stroke-width="0"/><g transform="matrix(1 0 0 1 0 0)"><path d="M 164.5845358649987 164.07497405501934 A 24 24 0 1 1 164.5845358649987 135.86128194498062" stroke-width="1" stroke="#000000"/><path d="M 164.51547170342064 135.74541589543 A 14.399999999999999 14.399999999999999 0 1 1 164.51547170342064 164.19084010456996" stroke-width="1" stroke="#000000"/><circle cx="137.75172013500122" cy="127.14277160891629" r="8" fill="#ffffff" stroke-width="1" stroke="#000000"/><text text-anchor="middle" fill="#000000" style="font: 1em courier, monospace;" x="149.96812799999998" y="297.92988159999993">klɒkw</text><circle cx="149.96812799999998" cy="149.96812799999998" r="54" stroke-width="4" stroke="#000000"/><circle cx="198.08248030617182" cy="174.48361498593553" r="8" stroke-width="0" fill="#000000"/><line x1="231.76252692049212" y1="191.6444558760904" x2="198.08248030617182" y2="174.48361498593553" stroke-width="4" stroke="#000000"/><circle cx="174.02717556322753" cy="201.31062726084969" r="21" fill="#ffffff" stroke-width="1" stroke="#000000"/><circle cx="174.02717556322753" cy="201.31062726084969" r="10.5" stroke-width="0" fill="#000000"/><circle cx="170.7420517973827" cy="180.56917210835178" r="8" fill="#ffffff" stroke-width="1" stroke="#000000"/><line x1="138.7667018039811" y1="195.72591685891345" x2="153.28572041072965" y2="198.02550349500484" stroke-width="1" stroke="#000000"/><line x1="209.28764932247395" y1="206.89533766278592" x2="194.7686307157254" y2="204.59575102669453" stroke-width="1" stroke="#000000"/><path d="M 213.82085507881476 138.6903888759392 A 76.60799999999999 76.60799999999999 0 1 1 140.9623174784756 85.75556278101517" stroke-width="1" stroke="#000000"/><path d="M 140.53352814232176 85.71652374401853 A 45.96479999999999 45.96479999999999 0 1 1 213.99048660121866 139.08612804233024" stroke-width="1" stroke="#000000"/><circle cx="68.1037798781365" cy="138.69038887593916" r="8" fill="#ffffff" stroke-width="1" stroke="#000000"/><path d="M 218.6591749488729 113.41931389493521 A 91.9296 91.9296 0 0 1 172.6943749488729 254.8844221444883" stroke-width="4" stroke="#000000"/><path d="M 69.9139575766906 221.4890401532275 A 91.9296 91.9296 0 0 1 115.87875757669057 80.02393190367442" stroke-width="4" stroke="#000000"/><path d="M 115.37491763491892 80.13838173729766 A 55.157759999999996 55.157759999999996 0 1 1 218.99951809987994 113.8080554426291" stroke-width="4" stroke="#000000"/><circle cx="186.89827929191847" cy="36.30880934347093" r="8" stroke-width="0" fill="#000000"/><circle cx="435.6322944309523" cy="167.36230689217774" r="21" fill="#ffffff" stroke-width="1" stroke="#000000"/><circle cx="435.6322944309523" cy="167.36230689217774" r="16.8" stroke-width="1" stroke="#000000"/><line x1="460.87600651931206" y1="192.6060189805375" x2="450.4815368358698" y2="182.21154929709525" stroke-width="1" stroke="#000000"/><text text-anchor="middle" fill="#000000" style="font: 1em courier, monospace;" x="449.90438399999994" y="297.92988159999993">ɜɹk</text><circle cx="449.90438399999994" cy="149.96812799999998" r="54" stroke-width="4" stroke="#000000"/><circle cx="501.26143587993823" cy="133.2812103037528" r="8" stroke-width="0" fill="#000000"/><path d="M 500.5985144360406 157.07797841172973 A 60.48 60.48 0 1 1 458.8078622558374 99.55808030619883" stroke-width="1" stroke="#000000"/><path d="M 458.49543659816027 99.42416068324839 A 36.288 36.288 0 1 1 500.62933472840643 157.4164963086933" stroke-width="1" stroke="#000000"/><circle cx="391.18916661624377" cy="121.52872635308097" r="8" fill="#ffffff" stroke-width="1" stroke="#000000"/><text text-anchor="middle" fill="#000000" style="font: 1em courier, monospace;" x="749.8406399999999" y="297.92988159999993"> </text><circle cx="1049.7768959999999" cy="149.96812799999998" r="30" stroke-width="4" stroke="#000000"/><circle cx="1070.9900994355962" cy="171.1813314355964" r="8" stroke-width="0" fill="#000000"/><line x1="1085.8393418405137" y1="186.0305738405139" x2="1070.9900994355962" y2="171.1813314355964" stroke-width="4" stroke="#000000"/><text text-anchor="middle" fill="#000000" style="font: 1em courier, monospace;" x="1049.7768959999999" y="297.92988159999993">lineɛ</text><circle cx="1063.7288335406063" cy="111.94716748000496" r="21" fill="#ffffff" stroke-width="1" stroke="#000000"/><line x1="1067.0139573064512" y1="91.20571232750707" x2="1060.4437097747614" y2="132.68862263250287" stroke-width="1" stroke="#000000"/><circle cx="1049.7768959999999" cy="149.96812799999998" r="75.6" stroke-width="4" stroke="#000000"/><circle cx="1094.2134610733108" cy="211.12981277474597" r="8" stroke-width="0" fill="#000000"/><circle cx="1005.3403309266889" cy="88.80644322525396" r="8" stroke-width="0" fill="#000000"/><circle cx="978.7073827176707" cy="160.32364256050536" r="21" fill="#ffffff" stroke-width="4" stroke="#000000"/><circle cx="978.7073827176707" cy="160.32364256050536" r="15.75" stroke-width="4" stroke="#000000"/><circle cx="1042.396965774119" cy="64.10068081620902" r="21" fill="#ffffff" stroke-width="1" stroke="#000000"/><circle cx="1042.396965774119" cy="64.10068081620902" r="16.8" stroke-width="1" stroke="#000000"/><circle cx="1349.7131519999998" cy="149.96812799999998" r="27" stroke-width="4" stroke="#000000"/><circle cx="1349.7131519999998" cy="149.96812799999998" r="36" stroke-width="1" stroke="#000000"/><text text-anchor="middle" fill="#000000" style="font: 1em courier, monospace;" x="1349.7131519999998" y="297.92988159999993">.</text></g></svg>