<svg xmlns="http://www.w3.org/2000/svg" width="1125" height="300" style="stroke:#000000;fill:transparent;"><rect width="1125" height="300" fill="#ffffff" stroke-width="0"/><g transform="matrix(1 0 0 1 0 0)"><circle cx="112.5" cy="120" r="100" stroke-width="1" stroke="#000000"/><path d="M 112.5 220 C 112.5 145, 130.1776695296637 102.32233047033631, 183.21067811865476 49.28932188134523" stroke-width="1" stroke="#000000"/><path d="M 112.5 220 C 112.5 186.667, 170.23496652333574 153.33410460098335, 199.10201677491978 170.00090689694053" stroke-width="1" stroke="#000000"/><circle cx="112.5" cy="195" r="25" fill="#ffffff" stroke-width="1" stroke="#000000"/><circle cx="112.5" cy="190" r="15" fill="#ffffff" stroke-width="1" stroke="#000000"/><circle cx="112.5" cy="165" r="25" stroke-width="1" stroke="#000000"/><circle cx="47.54809471616707" cy="82.50000000000006" r="25" fill="null" stroke-width="1" stroke="#000000"/><circle cx="51.87822173508927" cy="85.00000000000006" r="15" fill="null" stroke-width="1" stroke="#000000"/><text text-anchor="middle" fill="#000000" style="font: 1em courier, monospace;" x="112.5" y="240">kæt</text><circle cx="337.5" cy="120" r="100" stroke-width="1" stroke="#000000"/><path d="M 337.5 20 C 337.5 70, 387.5 120, 437.5 120" stroke-width="1" stroke="#000000"/><path d="M 337.5 20 C 337.5 86.667, 366.367050251584 136.66680229595718, 424.1020167749198 170.00090689694053" stroke-width="1" stroke="#000000"/><circle cx="337.5" cy="45" r="25" fill="#ffffff" stroke-width="1" stroke="#000000"/><circle cx="337.5" cy="50" r="15" fill="#ffffff" stroke-width="1" stroke="#000000"/><circle cx="376.4711431702997" cy="97.49999999999994" r="7.5" stroke-width="0" fill="#000000"/><circle cx="272.54809471616704" cy="82.50000000000006" r="25" fill="null" stroke-width="1" stroke="#000000"/><circle cx="276.87822173508926" cy="85.00000000000006" r="15" fill="null" stroke-width="1" stroke="#000000"/><text text-anchor="middle" fill="#000000" style="font: 1em courier, monospace;" x="337.5" y="240">bɛt</text><circle cx="562.5" cy="120" r="100" stroke-width="1" stroke="#000000"/><path d="M 475.8974596215561 70.00000000000006 C 526.4158968507829 99.16683333333336, 551.7163808556129 160.24670038143813, 536.619107006327 216.59285365828077" stroke-width="1" stroke="#000000"/><path d="M 475.8974596215561 70.00000000000006 C 497.54780604103246 82.49983333333338, 490.0550377801105 139.4107560148981, 465.9071463417192 145.88089299367306" stroke-width="1" stroke="#000000"/><circle cx="497.54809471616704" cy="82.50000000000006" r="25" fill="#ffffff" stroke-width="1" stroke="#000000"/><circle cx="501.87822173508926" cy="85.00000000000006" r="15" fill="#ffffff" stroke-width="1" stroke="#000000"/><circle cx="601.4711431702997" cy="97.49999999999994" r="7.5" stroke-width="0" fill="#000000"/><circle cx="600.0000000000001" cy="184.95190528383284" r="25" fill="null" stroke-width="1" stroke="#000000"/><text text-anchor="middle" fill="#000000" style="font: 1em courier, monospace;" x="562.5" y="240">tɛn</text><circle cx="787.5" cy="120" r="100" stroke-width="1" stroke="#000000"/><path d="M 787.5 20 C 787.5 120, 787.5 120, 787.5 220" stroke-width="1" stroke="#000000"/><path d="M 787.5 20 C 787.5 95, 769.8223304703363 137.6776695296637, 716.7893218813452 190.71067811865476" stroke-width="1" stroke="#000000"/><circle cx="787.5" cy="45" r="25" fill="#ffffff" stroke-width="1" stroke="#000000"/><circle cx="787.5" cy="50" r="15" fill="#ffffff" stroke-width="1" stroke="#000000"/><circle cx="826.4711431702997" cy="97.49999999999994" r="7.5" stroke-width="0" fill="#000000"/><circle cx="825.0000000000001" cy="184.95190528383284" r="25" fill="null" stroke-width="1" stroke="#000000"/><text text-anchor="middle" fill="#000000" style="font: 1em courier, monospace;" x="787.5" y="240">bɛn</text><circle cx="1012.5" cy="120" r="100" stroke-width="1" stroke="#000000"/><path d="M 1099.1025403784438 69.99999999999996 C 1048.5843918243515 99.16666666666664, 983.0372174505605 90.53721745056052, 941.7893218813452 49.28932188134526" stroke-width="1" stroke="#000000"/><path d="M 1099.1025403784438 69.99999999999996 C 1077.449018532487 82.50166666666664, 1031.9029795195945 47.556750508599436, 1038.3717892167579 23.404707554023872" stroke-width="1" stroke="#000000"/><circle cx="1077.451905283833" cy="82.49999999999997" r="25" fill="#ffffff" stroke-width="1" stroke="#000000"/><circle cx="1073.1217782649107" cy="84.99999999999997" r="15" fill="#ffffff" stroke-width="1" stroke="#000000"/><circle cx="1012.5" cy="165" r="7.5" stroke-width="0" fill="#000000"/><circle cx="1012.5" cy="195" r="25" fill="null" stroke-width="1" stroke="#000000"/><circle cx="975" cy="184.95190528383293" r="25" fill="null" stroke-width="1" stroke="#000000"/><path d="M 1012.5 220 C 1012.5 203.33333333333334, 970.8333333333334 192.16878364870325, 962.5000000000001 206.6025403784439" stroke-width="1" stroke="#000000"/><text text-anchor="middle" fill="#000000" style="font: 1em courier, monospace;" x="1012.5" y="240">dɜrs</text></g></svg>