<svg xmlns="http://www.w3.org/2000/svg" width="450" height="180" style="stroke:#000000;fill:transparent;"><rect width="450" height="180" fill="#ffffff" stroke-width="0"/><g transform="matrix(1 0 0 1 0 0)"><line x1="-22.5" y1="108" x2="67.5" y2="108" stroke-width="1" stroke="#000000"/><line x1="67.5" y1="108" x2="112.5" y2="108" stroke-width="1" stroke="#000000"/><path d="M 73.03641317786065 41.130941177357656 A 30 30 0 1 1 43.22949016875157 34.4683045111454" fill="#ffffff" stroke-width="1" stroke="#000000"/><path d="M 72.86845877850266 40.638759884162894 A 15 15 0 1 1 44.50336091567714 33.8289023880697" stroke-width="1" stroke="#000000"/><text text-anchor="middle" fill="#000000" style="font: 1em courier, monospace;" x="52.5" y="18">d</text><line x1="90" y1="108" x2="135" y2="108" stroke-width="1" stroke="#000000"/><circle cx="75" cy="48" r="15" stroke-width="0" fill="#ffffff"/><path d="M 90 48 A 15 15 0 1 1 60 48" stroke-width="1" stroke="#000000"/><path d="M 60 48 A 12 12 0 0 1 84 48" stroke-width="1" stroke="#000000"/><path d="M 84 48 A 9.000000000000002 9.000000000000002 0 1 1 66 48" stroke-width="1" stroke="#000000"/><path d="M 66.375 48 A 6.000000000000001 6.000000000000001 0 0 1 78.375 48" stroke-width="1" stroke="#000000"/><path d="M 78 48 A 3.000000000000001 3.000000000000001 0 1 1 72 48" stroke-width="1" stroke="#000000"/><text text-anchor="middle" fill="#000000" style="font: 1em courier, monospace;" x="75" y="18">o</text><line x1="135" y1="108" x2="180" y2="108" stroke-width="1" stroke="#000000"/><circle cx="120" cy="139" r="30" fill="#ffffff" stroke-width="1" stroke="#000000"/><text text-anchor="middle" fill="#000000" style="font: 1em courier, monospace;" x="120" y="18">t</text><line x1="180" y1="108" x2="225" y2="108" stroke-width="1" stroke="#000000"/><circle cx="165" cy="108" r="30" stroke-width="0" fill="#000000"/><text text-anchor="middle" fill="#000000" style="font: 1em courier, monospace;" x="165" y="18">s</text><line x1="225" y1="108" x2="270" y2="108" stroke-width="1" stroke="#000000"/><circle cx="210" cy="63" r="30" fill="#ffffff" stroke-width="1" stroke="#000000"/><circle cx="210" cy="63" r="21" stroke-width="1" stroke="#000000"/><text text-anchor="middle" fill="#000000" style="font: 1em courier, monospace;" x="210" y="18">c</text><line x1="270" y1="108" x2="315" y2="108" stroke-width="1" stroke="#000000"/><circle cx="255" cy="108" r="30" stroke-width="0" fill="#ffffff"/><path d="M 285 108 A 30 30 0 1 1 225 108" stroke-width="1" stroke="#000000"/><path d="M 225 108 A 24 24 0 0 1 273 108" stroke-width="1" stroke="#000000"/><path d="M 273 108 A 18.000000000000004 18.000000000000004 0 1 1 237 108" stroke-width="1" stroke="#000000"/><path d="M 237.75 108 A 12.000000000000002 12.000000000000002 0 0 1 261.75 108" stroke-width="1" stroke="#000000"/><path d="M 261 108 A 6.000000000000002 6.000000000000002 0 1 1 249 108" stroke-width="1" stroke="#000000"/><text text-anchor="middle" fill="#000000" style="font: 1em courier, monospace;" x="255" y="18">r</text><line x1="292.5" y1="108" x2="337.5" y2="108" stroke-width="1" stroke="#000000"/><path d="M 287.76820658893035 37.06547058867883 A 15 15 0 1 1 272.8647450843758 33.734152255572695" fill="#ffffff" stroke-width="1" stroke="#000000"/><path d="M 287.68422938925136 36.81937994208145 A 7.5 7.5 0 1 1 273.5016804578386 33.41445119403485" stroke-width="1" stroke="#000000"/><text text-anchor="middle" fill="#000000" style="font: 1em courier, monospace;" x="277.5" y="18">i</text><line x1="337.5" y1="108" x2="382.5" y2="108" stroke-width="1" stroke="#000000"/><circle cx="322.5" cy="108" r="30" fill="#ffffff" stroke-width="1" stroke="#000000"/><circle cx="322.5" cy="108" r="21" stroke-width="1" stroke="#000000"/><text text-anchor="middle" fill="#000000" style="font: 1em courier, monospace;" x="322.5" y="18">p</text><line x1="382.5" y1="108" x2="427.5" y2="108" stroke-width="1" stroke="#000000"/><circle cx="367.5" cy="139" r="30" fill="#ffffff" stroke-width="1" stroke="#000000"/><text text-anchor="middle" fill="#000000" style="font: 1em courier, monospace;" x="367.5" y="18">t</text></g></svg>