<svg xmlns="http://www.w3.org/2000/svg" width="432" height="490" style="stroke:#000000;fill:transparent;"><rect width="432" height="490" fill="#ffffff" stroke-width="0"/><g transform="matrix(1 0 0 1 0 0)"><path d="m 15.5121426,15.5121426 c 12.949133040000001,-15.055309404 22.45348296,2.3531364000000004 8.062232400000001,4.28625 0.3955824,4.13194932 -0.12355956,8.794984320000001 -0.8164292400000001,14.287498200000002 31.53953916,3.8222604000000002 25.17989868,-29.690887716000002 8.06223132,-30.71812302" fill="null" stroke-width="1" stroke="#000000"/><text text-anchor="middle" fill="#000000" style="font: 1em courier, monospace;" x="64.8" y="21">b</text><path d="m 36.87517656,59.46317936 c 3.35067948,1.86962256 6.760437120000001,3.6447192000000004 9.453322080000001,6.566812560000001 m -21.648831120000004,-7.36060284 c -2.021166,2.5734402000000003 -4.09346892,5.11619868 -6.783299640000001,7.2884394 m 19.344980520000004,-6.987945600000001 c -3.28723812,3.3500012400000005 -9.21761532,2.95880796 -13.245867360000002,-0.8737556400000001 -4.02825096,-3.8325636000000003 -4.628961,-9.65518164 -1.3417218,-13.005182556000001 3.28723812,-3.350000592 9.21761532,-2.9588065560000003 13.24586628,0.873756396 4.02825096,3.83256252 4.628961,9.655180560000002 1.3417228800000003,13.0051818 z" fill="null" stroke-width="1" stroke="#000000"/><text text-anchor="middle" fill="#000000" style="font: 1em courier, monospace;" x="64.8" y="56">p</text><path d="m 22.298296680000004,82.48415956 c -3.36217068,2.6700224400000003 -7.02931068,5.340044880000001 -10.968741360000001,8.010067320000001 l 37.81329156,-3.4638127200000004 c -2.3654484000000005,3.1670308800000004 -4.08361176,6.9813446400000005 -7.144112520000001,9.45332316" fill="null" stroke-width="1" stroke="#000000"/><text text-anchor="middle" fill="#000000" style="font: 1em courier, monospace;" x="64.8" y="91">j</text><path d="m 22.51478484,108.752464104 c 4.525499160000001,2.017258452 8.26142004,4.824095076000001 11.834694,7.793579376000001 -5.197500000000001,2.71635012 -10.38921552,5.4384858000000005 -16.5252744,7.2162770400000005 4.15178676,4.6547568 7.445782440000001,9.6907536 8.15439312,15.875811000000002 7.6305650400000005,-5.78959056 14.401422,-9.625299120000001 19.916923680000004,-10.60792848" fill="null" stroke-width="1" stroke="#000000"/><text text-anchor="middle" fill="#000000" style="font: 1em courier, monospace;" x="64.8" y="126">m</text><path d="m 10.81767852,153.9813398 c 4.1385816,7.92349668 10.31233356,16.97764428 12.24642888,23.67642636 -0.25675164,-12.23857296 20.515897080000002,-16.02787932 24.39080316,-12.55258836 6.622598880000001,-14.038492320000001 -6.32590668,-25.4467712808 -16.94089296,-21.329195508" fill="null" stroke-width="1" stroke="#000000"/><text text-anchor="middle" fill="#000000" style="font: 1em courier, monospace;" x="64.8" y="161">a</text><path d="m 20.3086602,178.06160722 c 1.83686184,7.8409625400000005 1.381104,12.24299502 1.73491092,17.85937518 m -9.79714224,-10.613571696000001 c 8.361759600000001,2.8707665760000003 18.905152680000004,1.378265976 28.47294612,1.8369646560000001 -2.4127286400000005,7.938600480000001 -0.019386,14.460012 -1.22464224,23.0641074" fill="null" stroke-width="1" stroke="#000000"/><text text-anchor="middle" fill="#000000" style="font: 1em courier, monospace;" x="64.8" y="196">r</text><path d="m 20.3086602,213.06160722 c 1.83686184,7.8409625400000005 1.381104,12.24299502 1.73491092,17.85937518 m -9.79714224,-10.613571696000001 c 8.361759600000001,2.8707665760000003 18.905152680000004,1.378265976 28.47294612,1.8369646560000001 -2.4127286400000005,7.938600480000001 -0.019386,14.460012 -1.22464224,23.0641074" fill="null" stroke-width="1" stroke="#000000"/><text text-anchor="middle" fill="#000000" style="font: 1em courier, monospace;" x="64.8" y="231">r</text><path d="m 42.530135400000006,265.80401408 c -7.39047888,-5.77069272 -15.420980880000002,-10.67305464 -23.491544400000002,-16.171713288 2.0784902400000003,8.455871448 2.12811084,18.333835488000002 2.9710540800000005,28.201759848000002 6.52314924,-4.48480908 13.727949120000002,-8.353413360000001 20.520490320000004,-12.03004656 z" fill="null" stroke-width="1" stroke="#000000"/><text text-anchor="middle" fill="#000000" style="font: 1em courier, monospace;" x="64.8" y="266">i</text><path d="m 29.875387680000003,285.123556828 c -0.34704072,9.728201412 0.53284824,18.229472172 1.0824408,27.061039332 -5.15733048,-5.320087560000001 -9.832215240000002,-10.99397016 -17.752041000000002,-14.288228280000002 13.596864120000001,-0.18797292000000002 19.38297816,2.1540438 32.47324668,1.5154182" fill="null" stroke-width="1" stroke="#000000"/><text text-anchor="middle" fill="#000000" style="font: 1em courier, monospace;" x="64.8" y="301">o</text><path d="m 31.534552800000004,317.653392816 c -2.6476578,4.592410452 -4.461399000000001,9.184820904 -5.20473168,13.777231464 15.85696392,-7.115807556000001 7.7466996,10.717661880000001 -3.2657137200000004,18.16553628" fill="null" stroke-width="1" stroke="#000000"/><text text-anchor="middle" fill="#000000" style="font: 1em courier, monospace;" x="64.8" y="336">t</text><path d="m 31.534552800000004,352.653392816 c -2.6476578,4.592410452 -4.461399000000001,9.184820904 -5.20473168,13.777231464 15.85696392,-7.115807556000001 7.7466996,10.717661880000001 -3.2657137200000004,18.16553628" fill="null" stroke-width="1" stroke="#000000"/><text text-anchor="middle" fill="#000000" style="font: 1em courier, monospace;" x="64.8" y="371">t</text><path d="m 27.78266736,401.38094968 c -3.25628748,0.45645552000000006 -4.121963640000001,7.23745044 0,7.4327652 5.07046608,0.24025788 4.42482372,-8.05302324 0,-7.4327652 z" fill="#000000" stroke-width="1" stroke="#000000"/><text text-anchor="middle" fill="#000000" style="font: 1em courier, monospace;" x="64.8" y="406">'</text><path d="m 20.3086602,431.83821372 c 9.60431364,13.035379680000002 13.619840040000001,-17.750351772000002 -6.021159840000001,1.0205362800000002 1.9371938400000002,9.12666312 8.144196840000001,13.661063640000002 11.736160200000002,20.8189278 17.024470920000002,-3.1713271200000004 4.14036792,-18.777766680000003 10.65852216,-25.383735396000002 1.6154532000000001,-1.63721628 6.132529440000001,-4.494574764 8.73165528,-2.2727815920000003" fill="null" stroke-width="1" stroke="#000000"/><text text-anchor="middle" fill="#000000" style="font: 1em courier, monospace;" x="64.8" y="441">s</text><path d="m 137.87538768000002,5.123556828000001 c -0.34704072,9.728201412 0.53284824,18.229472172 1.0824408,27.061039332 -5.15733048,-5.320087560000001 -9.832215240000002,-10.99397016 -17.752041000000002,-14.288228280000002 13.596864120000001,-0.18797292000000002 19.38297816,2.1540438 32.47324668,1.5154182" fill="null" stroke-width="1" stroke="#000000"/><text text-anchor="middle" fill="#000000" style="font: 1em courier, monospace;" x="172.8" y="21">o</text><path d="m 122.4916074,52.34910704 c 7.324787880000001,-3.2627534400000004 14.164479720000001,-6.8720034960000005 20.8189278,-10.613571264 1.3494222000000002,9.593034984 1.1706444000000003,19.186070184000002 0.6123222000000001,28.779105384 -6.956741160000001,-6.221408040000001 -13.660803360000001,-12.66741936 -21.431250000000002,-18.165534120000004 z" fill="null" stroke-width="1" stroke="#000000"/><text text-anchor="middle" fill="#000000" style="font: 1em courier, monospace;" x="172.8" y="56">l</text><path d="m 145.55571372,77.041696336 c 10.05085368,5.241546504 14.589046080000001,18.035364744000002 3.9800883600000003,24.696964584 m -25.513391880000004,-22.043571876 c 1.34138916,5.717938716 0.8219523600000002,11.063711916 0.9184827600000001,16.532678556 m -8.674553952,-7.551963720000001 c 14.169413592000002,-1.3727037600000003 25.956560592000002,-6.242400000000001e-4 38.474196912000004,-1.42875036" fill="null" stroke-width="1" stroke="#000000"/><text text-anchor="middle" fill="#000000" style="font: 1em courier, monospace;" x="172.8" y="91">d</text><path d="m 247.18099104,18.496458 c 15.135184800000001,25.40285712 20.699632080000004,-18.309044466000003 -2.42226828,2.39569488 -6.733865880000001,3.44176128 -7.666841160000001,-2.95500312 -5.40034776,-4.70997504 1.8983970000000001,-1.4699512800000003 7.332626520000001,0.74016504 5.40034776,4.70997504 -6.37721532,11.64312036 -15.11170344,4.96032012 -14.14510884,-1.8754621200000001 0.7001510400000001,-4.9514868000000005 2.1081654000000003,-8.711106228 9.97932096,-6.79252824 2.1023442,0.51244164 4.4118356400000005,2.145312 6.58805616,6.27229548 z" fill="null" stroke-width="1" stroke="#000000"/><text text-anchor="middle" fill="#000000" style="font: 1em courier, monospace;" x="280.8" y="21">h</text><path d="m 258.5301354,55.80401408 c -7.39047888,-5.77069272 -15.420980880000002,-10.67305464 -23.491544400000002,-16.171713288 2.0784902400000003,8.455871448 2.12811084,18.333835488000002 2.9710540800000005,28.201759848000002 6.52314924,-4.48480908 13.727949120000002,-8.353413360000001 20.520490320000004,-12.03004656 z" fill="null" stroke-width="1" stroke="#000000"/><text text-anchor="middle" fill="#000000" style="font: 1em courier, monospace;" x="280.8" y="56">i</text><path d="m 229.26696408,83.47107112 c 1.3380217200000002,4.57729596 0.3419766,9.93261528 0.20410704,15.001875000000002 5.893200360000001,-3.86586972 11.36703888,-8.36078112 18.267589800000003,-10.715625000000001 -2.7833576399999997,4.399766640000001 -4.00031352,9.24707772 -4.8985722,14.185444680000002 5.74901712,-3.3392098800000003 11.49803532,-8.027614080000001 17.24705244,-9.89919468 6.973659360000001,-16.69181094 -15.193267200000001,-13.590597420000002 -19.186070400000002,-11.327946228" fill="null" stroke-width="1" stroke="#000000"/><text text-anchor="middle" fill="#000000" style="font: 1em courier, monospace;" x="280.8" y="91">g</text><path d="m 247.18099104,123.496458 c 15.135184800000001,25.40285712 20.699632080000004,-18.309044466000003 -2.42226828,2.39569488 -6.733865880000001,3.44176128 -7.666841160000001,-2.95500312 -5.40034776,-4.70997504 1.8983970000000001,-1.4699512800000003 7.332626520000001,0.74016504 5.40034776,4.70997504 -6.37721532,11.64312036 -15.11170344,4.96032012 -14.14510884,-1.8754621200000001 0.7001510400000001,-4.9514868000000005 2.1081654000000003,-8.711106228 9.97932096,-6.79252824 2.1023442,0.51244164 4.4118356400000005,2.145312 6.58805616,6.27229548 z" fill="null" stroke-width="1" stroke="#000000"/><text text-anchor="middle" fill="#000000" style="font: 1em courier, monospace;" x="280.8" y="126">h</text><path d="m 337.26696408,13.471071120000001 c 1.3380217200000002,4.57729596 0.3419766,9.93261528 0.20410704,15.001875000000002 5.893200360000001,-3.86586972 11.36703888,-8.36078112 18.267589800000003,-10.715625000000001 -2.7833576399999997,4.399766640000001 -4.00031352,9.24707772 -4.8985722,14.185444680000002 5.74901712,-3.3392098800000003 11.49803532,-8.027614080000001 17.24705244,-9.89919468 6.973659360000001,-16.69181094 -15.193267200000001,-13.590597420000002 -19.186070400000002,-11.327946228" fill="null" stroke-width="1" stroke="#000000"/><text text-anchor="middle" fill="#000000" style="font: 1em courier, monospace;" x="388.8" y="21">g</text><path d="m 334.81767852,48.9813398 c 4.1385816,7.92349668 10.31233356,16.97764428 12.24642888,23.67642636 -0.25675164,-12.23857296 20.515897080000002,-16.02787932 24.39080316,-12.55258836 6.622598880000001,-14.038492320000001 -6.32590668,-25.4467712808 -16.94089296,-21.329195508" fill="null" stroke-width="1" stroke="#000000"/><text text-anchor="middle" fill="#000000" style="font: 1em courier, monospace;" x="388.8" y="56">a</text><path d="m 338.4916074,87.34910704 c 7.324787880000001,-3.2627534400000004 14.164479720000001,-6.8720034960000005 20.8189278,-10.613571264 1.3494222000000002,9.593034984 1.1706444000000003,19.186070184000002 0.6123222000000001,28.779105384 -6.956741160000001,-6.221408040000001 -13.660803360000001,-12.66741936 -21.431250000000002,-18.165534120000004 z" fill="null" stroke-width="1" stroke="#000000"/><text text-anchor="middle" fill="#000000" style="font: 1em courier, monospace;" x="388.8" y="91">l</text><path d="m 338.4916074,122.34910704 c 7.324787880000001,-3.2627534400000004 14.164479720000001,-6.8720034960000005 20.8189278,-10.613571264 1.3494222000000002,9.593034984 1.1706444000000003,19.186070184000002 0.6123222000000001,28.779105384 -6.956741160000001,-6.221408040000001 -13.660803360000001,-12.66741936 -21.431250000000002,-18.165534120000004 z" fill="null" stroke-width="1" stroke="#000000"/><text text-anchor="middle" fill="#000000" style="font: 1em courier, monospace;" x="388.8" y="126">l</text><path d="m 366.5301354,160.80401408 c -7.39047888,-5.77069272 -15.420980880000002,-10.67305464 -23.491544400000002,-16.171713288 2.0784902400000003,8.455871448 2.12811084,18.333835488000002 2.9710540800000005,28.201759848000002 6.52314924,-4.48480908 13.727949120000002,-8.353413360000001 20.520490320000004,-12.03004656 z" fill="null" stroke-width="1" stroke="#000000"/><text text-anchor="middle" fill="#000000" style="font: 1em courier, monospace;" x="388.8" y="161">i</text><path d="m 363.08651543999997,194.9514718 a 9.337901292000002,8.623526652 0 0 1 -9.337901400000002,8.62352676 9.337901292000002,8.623526652 0 0 1 -9.337901400000002,-8.62352676 9.337901292000002,8.623526652 0 0 1 9.337901400000002,-8.62352676 9.337901292000002,8.623526652 0 0 1 9.337901400000002,8.62352676 z m -33.881783328000004,1.27567116 c 16.812561528,-0.87672348 33.491151648000006,-1.8874198800000002 49.495981608,-3.57187536 m -0.20410596,-4.7965176000000005 c 0.1604826,5.243157 0.48614688,9.82558512 0.9184806000000001,13.98133872 m -51.12883836000001,-11.2258926 c 0.89507808,3.95886204 1.2702199680000001,8.9575956 1.6328571840000001,13.9813398" fill="null" stroke-width="1" stroke="#000000"/><text text-anchor="middle" fill="#000000" style="font: 1em courier, monospace;" x="388.8" y="196">f</text><path d="m 344.3086602,213.06160722 c 1.83686184,7.8409625400000005 1.381104,12.24299502 1.73491092,17.85937518 m -9.79714224,-10.613571696000001 c 8.361759600000001,2.8707665760000003 18.905152680000004,1.378265976 28.47294612,1.8369646560000001 -2.4127286400000005,7.938600480000001 -0.019386,14.460012 -1.22464224,23.0641074" fill="null" stroke-width="1" stroke="#000000"/><text text-anchor="middle" fill="#000000" style="font: 1em courier, monospace;" x="388.8" y="231">r</text><path d="m 336.75669648,260.41008908 c 12.063735000000001,0.8263555200000001 24.511370040000003,1.2208244400000001 34.494105960000006,4.38830352 -7.292754,3.04979688 -14.806187640000001,5.511114720000001 -21.329195400000003,10.6135704 -0.47779200000000005,-8.908604640000002 -0.41307732,-18.03255372 -3.7759824,-25.105177260000005" fill="null" stroke-width="1" stroke="#000000"/><text text-anchor="middle" fill="#000000" style="font: 1em courier, monospace;" x="388.8" y="266">e</text><path d="m 358.1879454,311.22839332 c 3.3648339600000003,-5.691687480000001 6.49222668,-11.56145616 8.77660812,-18.06348276 m -29.4934824,-5.000624856000001 c 12.67293276,-1.9590155640000002 12.49286328,13.621772376000001 24.696964800000003,15.716249856000001" fill="null" stroke-width="1" stroke="#000000"/><text text-anchor="middle" fill="#000000" style="font: 1em courier, monospace;" x="388.8" y="301">y</text><path d="m 334.81767852,328.9813398 c 4.1385816,7.92349668 10.31233356,16.97764428 12.24642888,23.67642636 -0.25675164,-12.23857296 20.515897080000002,-16.02787932 24.39080316,-12.55258836 6.622598880000001,-14.038492320000001 -6.32590668,-25.4467712808 -16.94089296,-21.329195508" fill="null" stroke-width="1" stroke="#000000"/><text text-anchor="middle" fill="#000000" style="font: 1em courier, monospace;" x="388.8" y="336">a</text><path d="m 363.1885722,368.11450844 c 3.5718742800000003,-2.2342921200000005 7.14374964,-4.59006264 10.715623920000002,-6.174241200000001 m -17.28662256,-7.3940125320000005 c -12.47294916,-0.16312168800000001 -20.140725600000003,18.912265452 -13.44539196,24.049611612 19.64141244,15.070904280000002 29.03960808,-20.468791584 10.558879200000002,-11.781940320000002 4.178821320000001,-2.2606149600000003 9.45551664,-5.3995302 11.90685744,-6.278161284" fill="null" stroke-width="1" stroke="#000000"/><text text-anchor="middle" fill="#000000" style="font: 1em courier, monospace;" x="388.8" y="371">n</text></g></svg>