<svg xmlns="http://www.w3.org/2000/svg" width="927" height="433.5" style="stroke:#000000;fill:transparent;"><rect width="927" height="433.5" fill="#ffffff" stroke-width="0"/><g transform="matrix(1 0 0 1 0 0)"><path d="M 293.99999999999994 324.57016277116264 A 124.5 124.5 0 0 1 169.50000000000003 324.5701627711626" fill="transparent" stroke-width="1" stroke="#000000"/><circle cx="231.75" cy="341.25" r="30" stroke-width="0" fill="#ffffff"/><path d="M 201.83257078673654 339.02571825764596 A 30 30 0 0 1 261.66742921326346 339.02571825764596" stroke-width="1" stroke="#000000"/><circle cx="227.05696604879307" cy="311.6193497821459" r="3.75" stroke-width="0" fill="#000000"/><circle cx="236.44303395120693" cy="311.6193497821459" r="3.75" stroke-width="0" fill="#000000"/><text text-anchor="middle" fill="#000000" style="font: 1em courier, monospace;" x="231.75" y="405.25">she</text><circle cx="231.75" cy="341.25" r="15" stroke-width="1" stroke="#000000"/><path d="M 356.25 216.74999999999986 A 124.5 124.5 0 0 1 294 324.5701627711626" fill="transparent" stroke-width="1" stroke="#000000"/><circle cx="339.5701627711626" cy="279" r="30" stroke-width="0" fill="#ffffff"/><path d="M 322.68516367047835 303.7971128434318 A 30 30 0 0 1 352.6025928837418 251.97860541421414" stroke-width="1" stroke="#000000"/><circle cx="310.2257347491484" cy="272.7626492754672" r="3.75" stroke-width="0" fill="#000000"/><circle cx="313.5894006576294" cy="264" r="3.75" stroke-width="0" fill="#000000"/><circle cx="319.4962445803968" cy="256.7056552356782" r="3.75" stroke-width="0" fill="#000000"/><text text-anchor="middle" fill="#000000" style="font: 1em courier, monospace;" x="391.5316869982289" y="313">r</text><path d="M 294 108.9298372288374 A 124.5 124.5 0 0 1 356.25 216.75" fill="transparent" stroke-width="1" stroke="#000000"/><circle cx="307.09421012924616" cy="173.25000000000003" r="30" stroke-width="1" stroke="#000000"/><line x1="313.33156085377897" y1="202.5944280220142" x2="319.5689115783117" y2="231.93885604402837" stroke-width="1" stroke="#000000"/><line x1="303.95835623121656" y1="203.08565686104822" x2="300.82250233318695" y2="232.92131372209644" stroke-width="1" stroke="#000000"/><line x1="294.89211083697217" y1="200.65636372927807" x2="282.69001154469817" y2="228.06272745855608" stroke-width="1" stroke="#000000"/><text text-anchor="middle" fill="#000000" style="font: 1em courier, monospace;" x="391.5316869982289" y="128.50000000000006">ma</text><circle cx="362.30332962050414" cy="141.37500000000003" r="15" stroke-width="1" stroke="#000000"/><path d="M 169.49999999999994 108.92983722883741 A 124.5 124.5 0 0 1 294 108.92983722883739" fill="transparent" stroke-width="1" stroke="#000000"/><circle cx="231.75" cy="129.75" r="30" stroke-width="1" stroke="#000000"/><line x1="241.0205098312484" y1="158.2816954888546" x2="250.29101966249684" y2="186.81339097770922" stroke-width="1" stroke="#000000"/><text text-anchor="middle" fill="#000000" style="font: 1em courier, monospace;" x="231.75000000000003" y="36.25">n</text><path d="M 107.25 216.75000000000003 A 124.5 124.5 0 0 1 169.50000000000003 108.92983722883739" fill="transparent" stroke-width="1" stroke="#000000"/><path d="M 47.25 216.75000000000003 A 184.5 184.5 0 0 1 139.50000000000006 56.968313001771065" fill="transparent" stroke-width="1" stroke="#000000"/><line x1="80.40737496810016" y1="113.1987254583747" x2="102.16860609846879" y2="133.84936272918733" stroke-width="1" stroke="#000000"/><line x1="66.40065313674586" y1="137.45907931776452" x2="95.16524518279164" y2="145.97953965888223" stroke-width="1" stroke="#000000"/><text text-anchor="middle" fill="#000000" style="font: 1em courier, monospace;" x="71.9683130017711" y="128.49999999999991">'</text><path d="M 169.49999999999994 324.5701627711626 A 124.5 124.5 0 0 1 107.25 216.74999999999994" fill="transparent" stroke-width="1" stroke="#000000"/><circle cx="123.92983722883734" cy="278.9999999999999" r="30" stroke-width="0" fill="#ffffff"/><path d="M 110.89740711625812 251.978605414214 A 30 30 0 0 1 140.81483632952157 303.7971128434317" stroke-width="1" stroke="#000000"/><line x1="117.69248650430458" y1="249.65557197798572" x2="111.45513577977184" y2="220.31114395597154" stroke-width="1" stroke="#000000"/><line x1="127.06569112686695" y1="249.1643431389517" x2="130.20154502489655" y2="219.3286862779035" stroke-width="1" stroke="#000000"/><line x1="136.13193652111138" y1="251.59363627072187" x2="148.33403581338544" y2="224.18727254144386" stroke-width="1" stroke="#000000"/><text text-anchor="middle" fill="#000000" style="font: 1em courier, monospace;" x="71.96831300177101" y="312.9999999999999">s</text><path d="M 762.257518761342 308.97793735874393 A 114 114 0 0 1 628.2424812386581 308.97793735874404" fill="transparent" stroke-width="1" stroke="#000000"/><circle cx="695.25" cy="330.75" r="30" stroke-width="0" fill="#ffffff"/><path d="M 665.3485078756768 328.32085020242914 A 30 30 0 0 1 725.1514921243232 328.32085020242914" stroke-width="1" stroke="#000000"/><line x1="666.7183045111454" y1="321.47949016875157" x2="638.1866090222908" y2="312.20898033750314" stroke-width="1" stroke="#000000"/><line x1="670.9794901687516" y1="313.1164424312258" x2="646.7089803375031" y2="295.4828848624516" stroke-width="1" stroke="#000000"/><line x1="677.6164424312258" y1="306.47949016875157" x2="659.9828848624517" y2="282.20898033750314" stroke-width="1" stroke="#000000"/><text text-anchor="middle" fill="#000000" style="font: 1em courier, monospace;" x="695.25" y="394.75">si</text><circle cx="695.25" cy="330.75" r="15" stroke-width="1" stroke="#000000"/><line x1="695.25" y1="315.75" x2="695.25" y2="285.75" stroke-width="1" stroke="#000000"/><path d="M 803.6704428576475 181.52206264125596 A 114 114 0 0 1 762.257518761342 308.97793735874404" fill="transparent" stroke-width="1" stroke="#000000"/><circle cx="803.6704428576475" cy="251.97793735874401" r="30" stroke-width="0" fill="#ffffff"/><path d="M 792.1201148900262 279.66529772119793 A 30 30 0 0 1 810.6002533371951 222.78927985762638" stroke-width="1" stroke="#000000"/><circle cx="773.6704428576475" cy="251.97793735874401" r="3.75" stroke-width="0" fill="#000000"/><circle cx="775.1387473687929" cy="242.70742752749558" r="3.75" stroke-width="0" fill="#000000"/><circle cx="779.399933026399" cy="234.34437978996982" r="3.75" stroke-width="0" fill="#000000"/><text text-anchor="middle" fill="#000000" style="font: 1em courier, monospace;" x="860.7338338353567" y="274.51895702124085">r</text><path d="M 695.25 102.75 A 114 114 0 0 1 803.6704428576475 181.52206264125599" fill="transparent" stroke-width="1" stroke="#000000"/><circle cx="740.2155718003742" cy="154.86019993031653" r="30" stroke-width="1" stroke="#000000"/><circle cx="726.5958568081877" cy="181.59039565596757" r="3.75" stroke-width="0" fill="#000000"/><circle cx="719.0023683647777" cy="176.07340336591295" r="3.75" stroke-width="0" fill="#000000"/><text text-anchor="middle" fill="#000000" style="font: 1em courier, monospace;" x="797.5246338988903" y="79.98104297875915">ku</text><circle cx="740.2155718003742" cy="154.86019993031653" r="15" stroke-width="1" stroke="#000000"/><line x1="749.0323505847613" y1="142.7249450146923" x2="766.6659081535355" y2="118.45443518344392" stroke-width="1" stroke="#000000"/><path d="M 586.8295571423524 181.52206264125607 A 114 114 0 0 1 695.2499999999999 102.75" fill="transparent" stroke-width="1" stroke="#000000"/><circle cx="650.2844281996258" cy="154.86019993031653" r="30" stroke-width="1" stroke="#000000"/><circle cx="674.5549380308743" cy="172.4937574990907" r="3.75" stroke-width="0" fill="#000000"/><circle cx="667.9179857684001" cy="179.13070976156493" r="3.75" stroke-width="0" fill="#000000"/><circle cx="659.5549380308743" cy="183.39189541917114" r="3.75" stroke-width="0" fill="#000000"/><text text-anchor="middle" fill="#000000" style="font: 1em courier, monospace;" x="592.9753661011097" y="79.98104297875918">la</text><circle cx="612.8131183659806" cy="103.28536653891365" r="15" stroke-width="1" stroke="#000000"/><path d="M 628.2424812386581 308.97793735874404 A 114 114 0 0 1 586.8295571423525 181.522062641256" fill="transparent" stroke-width="1" stroke="#000000"/><circle cx="586.8295571423525" cy="251.977937358744" r="30" stroke-width="0" fill="#ffffff"/><path d="M 579.8997466628049 222.78927985762635 A 30 30 0 0 1 598.3798851099739 279.66529772119793" stroke-width="1" stroke="#000000"/><circle cx="611.100066973601" cy="234.34437978996976" r="3.75" stroke-width="0" fill="#000000"/><circle cx="615.3612526312072" cy="242.70742752749558" r="3.75" stroke-width="0" fill="#000000"/><circle cx="616.8295571423525" cy="251.977937358744" r="3.75" stroke-width="0" fill="#000000"/><text text-anchor="middle" fill="#000000" style="font: 1em courier, monospace;" x="529.7661661646432" y="274.5189570212408">r</text></g></svg>