<svg xmlns="http://www.w3.org/2000/svg" width="2000" height="200" style="stroke:#000000;fill:transparent;"><rect width="2000" height="200" fill="#ffffff" stroke-width="0"/><g transform="matrix(1 0 0 1 0 0)"><line x1="41.210348651005795" y1="22.884821562559623" x2="62.5" y2="100" stroke-width="1" stroke="#000000"/><line x1="132.0827224434959" y1="139.47460876755352" x2="62.5" y2="100" stroke-width="1" stroke="#000000"/><circle cx="62.5" cy="100" r="50" fill="#ffffff" stroke-width="1" stroke="#000000"/><text text-anchor="middle" fill="#000000" style="font: 1em courier, monospace;" x="62.5" y="184">gree</text><circle cx="51.68440519687684" cy="66.71302192966962" r="10.5" stroke-width="0" fill="#000000"/><circle cx="62.5" cy="100" r="35" fill="#ffffff" stroke-width="2" stroke="#000000"/><circle cx="62.5" cy="100" r="31.5" stroke-width="1" stroke="#000000"/><polygon points="76.81612886495,127.07284763969511 65.25236667940923,141.35290468146695 47.10359342097358,138.4784213863527 40.51858234807869,121.32388104946662 52.08234453361944,107.04382400769478 70.23111779205509,109.91830730280901 76.81612886495,127.07284763969508 " fill="#ffffff" stroke-width="1" stroke="#000000"/><polygon points="77.88699235634492,114.92671673462664 73.2774846053185,126.93489497044689 60.57334332441355,128.94703327702686 52.47870979453502,118.95099334778658 57.088217545561434,106.94281511196633 69.79235882646638,104.93067680538635 77.88699235634492,114.92671673462662 " fill="#ffffff" stroke-width="1" stroke="#000000"/><polygon points="222.85533905932738,135.35533905932738 174.55904774487396,148.2962913144534 139.2037086855466,112.94095225512605 152.14466094067262,64.64466094067262 200.440952255126,51.70370868554658 235.7962913144534,87.05904774487392 222.85533905932738,135.35533905932738 " fill="#ffffff" stroke-width="1" stroke="#000000"/><text text-anchor="middle" fill="#000000" style="font: 1em courier, monospace;" x="187.5" y="184">nma</text><line x1="223.74003375253307" y1="57.30737822977764" x2="187.5" y2="100" stroke-width="1" stroke="#000000"/><line x1="192.06266874351115" y1="155.81381597720215" x2="187.5" y2="100" stroke-width="1" stroke="#000000"/><polygon points="218.68522834659288,115.88966749088414 189.33175846850304,134.95203371641009 158.14653012191016,119.06236622552595 156.31477165340712,84.11033250911588 185.66824153149696,65.04796628358991 216.8534698780898,80.93763377447402 218.68522834659288,115.88966749088414 " fill="#ffffff" stroke-width="1" stroke="#000000"/><circle cx="183.66735560651435" cy="124.19836434458087" r="18.374999999999996" fill="#ffffff" stroke-width="1" stroke="#000000"/><polygon points="347.8553390593274,135.35533905932738 299.55904774487396,148.2962913144534 264.2037086855466,112.94095225512605 277.1446609406726,64.64466094067262 325.44095225512604,51.70370868554658 360.7962913144534,87.05904774487392 347.8553390593274,135.35533905932738 " fill="#ffffff" stroke-width="1" stroke="#000000"/><text text-anchor="middle" fill="#000000" style="font: 1em courier, monospace;" x="312.5" y="184">n</text><line x1="621.5388475169947" y1="153.98531729891982" x2="562.5" y2="100" stroke-width="1" stroke="#000000"/><line x1="482.57984662072084" y1="103.57338548613194" x2="562.5" y2="100" stroke-width="1" stroke="#000000"/><circle cx="562.5" cy="100" r="50" fill="#ffffff" stroke-width="2" stroke="#000000"/><circle cx="562.5" cy="100" r="45" stroke-width="1" stroke="#000000"/><text text-anchor="middle" fill="#000000" style="font: 1em courier, monospace;" x="562.5" y="184">si</text><circle cx="546.6103325091159" cy="131.18522834659288" r="26.25" fill="#000000" stroke-width="0"/><circle cx="687.5" cy="50" r="15" stroke-width="0" fill="#000000"/><circle cx="687.5" cy="100" r="50" fill="#ffffff" stroke-width="2" stroke="#000000"/><circle cx="687.5" cy="100" r="45" stroke-width="1" stroke="#000000"/><text text-anchor="middle" fill="#000000" style="font: 1em courier, monospace;" x="687.5" y="184">rku</text><circle cx="676.6844051968768" cy="66.71302192966962" r="14" fill="#ffffff" stroke-width="2" stroke="#000000"/><circle cx="676.6844051968768" cy="66.71302192966962" r="10.5" fill="#ffffff" stroke-width="1" stroke="#000000"/><polygon points="718.6852283465929,115.88966749088414 689.331758468503,134.95203371641009 658.1465301219101,119.06236622552595 656.3147716534071,84.11033250911588 685.668241531497,65.04796628358991 716.8534698780899,80.93763377447402 718.6852283465929,115.88966749088414 " fill="#ffffff" stroke-width="1" stroke="#000000"/><polygon points="701.81612886495,127.07284763969511 690.2523666794092,141.35290468146695 672.1035934209735,138.4784213863527 665.5185823480787,121.32388104946662 677.0823445336194,107.04382400769478 695.2311177920551,109.91830730280901 701.81612886495,127.07284763969508 " fill="#ffffff" stroke-width="1" stroke="#000000"/><polygon points="699.3962924304919,126.68958320034655 689.3743652030232,139.0656326365488 673.6454283790457,136.57441378078312 667.9384187825367,121.70714548881519 677.9603460100054,109.33109605261293 693.6892828339829,111.8223149083786 699.3962924304919,126.68958320034652 " fill="#ffffff" stroke-width="1" stroke="#000000"/><circle cx="812.5" cy="50" r="15" stroke-width="0" fill="#000000"/><polygon points="847.8553390593274,135.35533905932738 799.559047744874,148.2962913144534 764.2037086855466,112.94095225512605 777.1446609406726,64.64466094067262 825.440952255126,51.70370868554658 860.7962913144534,87.05904774487392 847.8553390593274,135.35533905932738 " fill="#ffffff" stroke-width="1" stroke="#000000"/><text text-anchor="middle" fill="#000000" style="font: 1em courier, monospace;" x="812.5" y="184">la</text><circle cx="796.6103325091159" cy="131.18522834659288" r="26.25" fill="#ffffff" stroke-width="1" stroke="#000000"/><circle cx="937.5" cy="50" r="15" stroke-width="0" fill="#000000"/><circle cx="937.5" cy="100" r="50" fill="#ffffff" stroke-width="2" stroke="#000000"/><circle cx="937.5" cy="100" r="45" stroke-width="1" stroke="#000000"/><text text-anchor="middle" fill="#000000" style="font: 1em courier, monospace;" x="937.5" y="184">r</text><line x1="1126.2260733919488" y1="48.56551820003267" x2="1187.5" y2="100" stroke-width="1" stroke="#000000"/><line x1="1267.1968798820526" y1="93.04246185309322" x2="1187.5" y2="100" stroke-width="1" stroke="#000000"/><circle cx="1187.5" cy="100" r="50" fill="#ffffff" stroke-width="1" stroke="#000000"/><text text-anchor="middle" fill="#000000" style="font: 1em courier, monospace;" x="1187.5" y="184">ga</text><circle cx="1171.6103325091158" cy="131.18522834659288" r="26.25" fill="#ffffff" stroke-width="1" stroke="#000000"/><circle cx="1312.5" cy="50" r="15" stroke-width="0" fill="#000000"/><polygon points="1347.8553390593274,135.35533905932738 1299.559047744874,148.2962913144534 1264.2037086855466,112.94095225512605 1277.1446609406726,64.64466094067262 1325.440952255126,51.70370868554658 1360.7962913144534,87.05904774487392 1347.8553390593274,135.35533905932738 " fill="#ffffff" stroke-width="1" stroke="#000000"/><text text-anchor="middle" fill="#000000" style="font: 1em courier, monospace;" x="1312.5" y="184">lli</text><circle cx="1301.684405196877" cy="66.71302192966962" r="10.5" stroke-width="0" fill="#000000"/><polygon points="1343.6852283465928,115.88966749088414 1314.331758468503,134.95203371641009 1283.1465301219102,119.06236622552595 1281.3147716534072,84.11033250911588 1310.668241531497,65.04796628358991 1341.8534698780898,80.93763377447402 1343.6852283465928,115.88966749088414 " fill="#ffffff" stroke-width="1" stroke="#000000"/><circle cx="1308.6673556065143" cy="124.19836434458087" r="18.374999999999996" fill="#000000" stroke-width="0"/><circle cx="1437.5" cy="50" r="15" stroke-width="0" fill="#000000"/><circle cx="1437.5" cy="100" r="50" fill="#ffffff" stroke-width="1" stroke="#000000"/><text text-anchor="middle" fill="#000000" style="font: 1em courier, monospace;" x="1437.5" y="184">fre</text><circle cx="1426.684405196877" cy="66.71302192966962" r="10.5" stroke-width="0" fill="#000000"/><circle cx="1437.5" cy="100" r="35" fill="#ffffff" stroke-width="2" stroke="#000000"/><circle cx="1437.5" cy="100" r="31.5" stroke-width="1" stroke="#000000"/><polygon points="1451.8161288649499,127.07284763969511 1440.2523666794093,141.35290468146695 1422.1035934209735,138.4784213863527 1415.5185823480788,121.32388104946662 1427.0823445336193,107.04382400769478 1445.231117792055,109.91830730280901 1451.8161288649499,127.07284763969508 " fill="#ffffff" stroke-width="1" stroke="#000000"/><line x1="1528.757708057069" y1="172.53590651834455" x2="1562.5" y2="100" stroke-width="1" stroke="#000000"/><line x1="1535.0687720669878" y1="24.849965175742398" x2="1562.5" y2="100" stroke-width="1" stroke="#000000"/><polygon points="1597.8553390593274,135.35533905932738 1549.559047744874,148.2962913144534 1514.2037086855466,112.94095225512605 1527.1446609406726,64.64466094067262 1575.440952255126,51.70370868554658 1610.7962913144534,87.05904774487392 1597.8553390593274,135.35533905932738 " fill="#ffffff" stroke-width="2" stroke="#000000"/><polygon points="1594.3198051533946,131.81980515339464 1550.8531429703867,143.46666218300808 1519.033337816992,111.64685702961344 1530.6801948466054,68.18019484660536 1574.1468570296133,56.533337816991924 1605.966662183008,88.35314297038653 1594.3198051533946,131.81980515339464 " stroke-width="1" stroke="#000000"/><text text-anchor="middle" fill="#000000" style="font: 1em courier, monospace;" x="1562.5" y="184">ya</text><circle cx="1546.6103325091158" cy="131.18522834659288" r="26.25" fill="#ffffff" stroke-width="1" stroke="#000000"/><polygon points="1722.8553390593274,135.35533905932738 1674.559047744874,148.2962913144534 1639.2037086855466,112.94095225512605 1652.1446609406726,64.64466094067262 1700.440952255126,51.70370868554658 1735.7962913144534,87.05904774487392 1722.8553390593274,135.35533905932738 " fill="#ffffff" stroke-width="1" stroke="#000000"/><text text-anchor="middle" fill="#000000" style="font: 1em courier, monospace;" x="1687.5" y="184">n</text><circle cx="1812.5" cy="100" r="50" stroke-width="1" stroke="#000000"/><path d="M 1844.3198051533946 68.18019484660536 A 45 45 0 1 1 1780.6801948466054 68.18019484660535" stroke-width="1" stroke="#000000"/><path d="M 1844.3198051533946 68.18019484660532 A 45 45 0 0 1 1780.6801948466054 68.18019484660536" stroke-width="1" stroke="#000000"/><text text-anchor="middle" fill="#000000" style="font: 1em courier, monospace;" x="1812.5" y="184">.</text></g></svg>