<svg xmlns="http://www.w3.org/2000/svg" width="1031.052" height="1031.052" style="stroke:#000000;fill:transparent;"><rect width="1031.052" height="1031.052" fill="#ffffff" stroke-width="0"/><g transform="matrix(1 0 0 1 0 0)"><path d="M 530.1424078649986 271.8698460550193 A 24 24 0 1 1 530.1424078649986 243.65615394498062" stroke-width="1" stroke="#000000"/><path d="M 530.0733437034206 243.54028789543 A 14.399999999999999 14.399999999999999 0 1 1 530.0733437034206 271.98571210457" stroke-width="1" stroke="#000000"/><circle cx="503.3095921350012" cy="234.9376436089163" r="8" fill="#ffffff" stroke-width="1" stroke="#000000"/><text text-anchor="middle" fill="#000000" style="font: 1em courier, monospace;" x="515.5259999999998" y="29.77630000000005">klɒ</text><circle cx="515.526" cy="257.763" r="54" stroke-width="4" stroke="#000000"/><circle cx="563.6403523061718" cy="282.2784869859355" r="8" stroke-width="0" fill="#000000"/><line x1="597.3203989204922" y1="299.4393278760904" x2="563.6403523061718" y2="282.2784869859355" stroke-width="4" stroke="#000000"/><circle cx="528.2073489811308" cy="313.02667150324675" r="21" fill="#ffffff" stroke-width="1" stroke="#000000"/><circle cx="528.2073489811308" cy="313.02667150324675" r="10.5" stroke-width="0" fill="#000000"/><circle cx="524.922225215286" cy="292.28521635074884" r="8" fill="#ffffff" stroke-width="1" stroke="#000000"/><line x1="492.94687522188445" y1="307.4419611013105" x2="507.46589382863294" y2="309.7415477374019" stroke-width="1" stroke="#000000"/><line x1="563.4678227403773" y1="318.611381905183" x2="548.9488041336288" y2="316.3117952690916" stroke-width="1" stroke="#000000"/><path d="M 712.4083731039868 347.3668808160312 A 24 24 0 1 1 712.4083731039868 319.1531887059925" stroke-width="1" stroke="#000000"/><path d="M 712.3393089424088 319.03732265644186 A 14.399999999999999 14.399999999999999 0 1 1 712.3393089424088 347.4827468655819" stroke-width="1" stroke="#000000"/><circle cx="685.5755573739893" cy="310.4346783699282" r="8" fill="#ffffff" stroke-width="1" stroke="#000000"/><text text-anchor="middle" fill="#000000" style="font: 1em courier, monospace;" x="861.8313339540771" y="173.22066604592266">kwɜ</text><path d="M 730.6604784421486 349.27947574940913 A 43.2 43.2 0 0 1 664.182514039163 370.87947574940915" stroke-width="4" stroke="#000000"/><path d="M 648.4891954342472 322.5804074354137 A 43.2 43.2 0 0 1 714.9671598372328 300.98040743541367" stroke-width="4" stroke="#000000"/><path d="M 714.7844805385045 300.82047174415095 A 25.92 25.92 0 1 1 730.6066956255963 349.5162426393394" stroke-width="4" stroke="#000000"/><circle cx="751.2032991941238" cy="315.9056403569148" r="8" stroke-width="0" fill="#000000"/><circle cx="665.0905638676005" cy="379.57966718990116" r="21" fill="#ffffff" stroke-width="1" stroke="#000000"/><circle cx="665.0905638676005" cy="379.57966718990116" r="16.8" stroke-width="1" stroke="#000000"/><line x1="700.351037626847" y1="385.1643775918374" x2="685.8320190200984" y2="382.864790955746" stroke-width="1" stroke="#000000"/><circle cx="773.289" cy="515.526" r="30" stroke-width="4" stroke="#000000"/><circle cx="803.289" cy="515.526" r="8" stroke-width="0" fill="#000000"/><text text-anchor="middle" fill="#000000" style="font: 1em courier, monospace;" x="1005.2756999999999" y="519.5259999999998">ɹk</text><path d="M 806.1575132031605 531.5454409883972 A 43.2 43.2 0 1 1 790.4641945982447 483.24637267440175" stroke-width="1" stroke="#000000"/><path d="M 790.2815152995164 483.08643698313904 A 25.92 25.92 0 1 1 806.1037303866083 531.7822078783275" stroke-width="1" stroke="#000000"/><circle cx="739.679548800175" cy="483.24637267440175" r="8" fill="#ffffff" stroke-width="1" stroke="#000000"/><text text-anchor="middle" fill="#000000" style="font: 1em courier, monospace;" x="861.8313339540773" y="865.8313339540771"> </text><circle cx="515.5260000000001" cy="773.289" r="30" stroke-width="1" stroke="#000000"/><text text-anchor="middle" fill="#000000" style="font: 1em courier, monospace;" x="515.5260000000001" y="1009.2756999999999">siɹ</text><circle cx="545.5543159031329" cy="800.4652809085728" r="21" fill="#ffffff" stroke-width="1" stroke="#000000"/><line x1="548.8394396689778" y1="779.7238257560749" x2="542.269192137288" y2="821.2067360610707" stroke-width="1" stroke="#000000"/><circle cx="515.5260000000001" cy="773.289" r="75.6" stroke-width="4" stroke="#000000"/><circle cx="576.6876847747461" cy="728.852434926689" r="8" stroke-width="0" fill="#000000"/><path d="M 347.8764426260107 711.8988112940074 A 24 24 0 1 1 347.8764426260107 683.6851191839687" stroke-width="1" stroke="#000000"/><path d="M 347.80737846443265 683.5692531344181 A 14.399999999999999 14.399999999999999 0 1 1 347.8073784644327 712.014677343558" stroke-width="1" stroke="#000000"/><circle cx="321.0436268960132" cy="674.9666088479044" r="8" fill="#ffffff" stroke-width="1" stroke="#000000"/><text text-anchor="middle" fill="#000000" style="font: 1em courier, monospace;" x="169.22066604592283" y="865.8313339540773">kju</text><path d="M 362.0199838137774 711.8089761038357 A 37.8 37.8 0 1 1 348.2883300344761 669.5472913290897" stroke-width="4" stroke="#000000"/><path d="M 348.12848564808877 669.4073475992348 A 22.679999999999996 22.679999999999996 0 1 1 361.9729238492942 712.0161471325247" stroke-width="4" stroke="#000000"/><circle cx="303.85176496116514" cy="669.5472913290897" r="8" stroke-width="0" fill="#000000"/><line x1="379.9949519717558" y1="682.6068701354031" x2="390.7799328665428" y2="679.1026174191912" stroke-width="4" stroke="#000000"/><circle cx="276.7913379686808" cy="692.6756889978368" r="21" fill="#ffffff" stroke-width="1" stroke="#000000"/><line x1="273.50621420283596" y1="671.9342338453389" x2="280.07646173452565" y2="713.4171441503347" stroke-width="1" stroke="#000000"/><circle cx="293.7806948505547" cy="705.0191792959787" r="8" fill="#ffffff" stroke-width="1" stroke="#000000"/><line x1="241.53086420943438" y1="687.0909785959005" x2="256.0498828161829" y2="689.3905652319919" stroke-width="1" stroke="#000000"/><line x1="312.0518117279272" y1="698.2603993997731" x2="297.5327931211787" y2="695.9608127636817" stroke-width="1" stroke="#000000"/><circle cx="257.763" cy="515.5260000000001" r="30" stroke-width="4" stroke="#000000"/><circle cx="278.9762034355964" cy="536.7392034355964" r="8" stroke-width="0" fill="#000000"/><line x1="293.8254458405139" y1="551.5884458405139" x2="278.9762034355964" y2="536.7392034355964" stroke-width="4" stroke="#000000"/><text text-anchor="middle" fill="#000000" style="font: 1em courier, monospace;" x="25.77630000000005" y="519.5260000000001">lɛ</text><circle cx="217.2757895717482" cy="516.5437385413065" r="21" fill="#ffffff" stroke-width="1" stroke="#000000"/><circle cx="217.2757895717482" cy="516.5437385413065" r="16.8" stroke-width="1" stroke="#000000"/><circle cx="515.526" cy="515.526" r="394.37738999999993" stroke-width="4" stroke="#000000"/><circle cx="515.526" cy="515.526" r="416.2872449999999" stroke-width="1" stroke="#000000"/><circle cx="303.5615499511767" cy="303.56154995117714" r="12" stroke-width="0" fill="#000000"/><circle cx="344.1304346553176" cy="292.69115005687127" r="6" stroke-width="0" fill="#000000"/><circle cx="373.8289194651526" cy="322.3896348667062" r="4" stroke-width="0" fill="#000000"/><text text-anchor="middle" fill="#000000" style="font: 1em courier, monospace;" x="169.22066604592231" y="173.2206660459231">.</text></g></svg>