<svg xmlns="http://www.w3.org/2000/svg" width="480" height="240" style="stroke:#000000;fill:transparent;"><rect width="480" height="240" fill="#ffffff" stroke-width="0"/><g transform="matrix(1 0 0 1 0 0)"><circle cx="80" cy="96" r="44" fill="#ffffff" stroke-width="1" stroke="#000000"/><circle cx="80" cy="96" r="41.8" stroke-width="1" stroke="#000000"/><text text-anchor="middle" fill="#000000" style="font: 1em courier, monospace;" x="80" y="216">cc</text><circle cx="80" cy="96" r="32" fill="#ffffff" stroke-width="1" stroke="#000000"/><circle cx="80" cy="96" r="30.4" stroke-width="1" stroke="#000000"/><circle cx="240" cy="96" r="68" fill="#ffffff" stroke-width="1" stroke="#000000"/><line x1="240" y1="96" x2="226.73385810290324" y2="29.306600932580338" stroke-width="1" stroke="#000000"/><line x1="240" y1="96" x2="173.30660093258032" y2="109.26614189709674" stroke-width="1" stroke="#000000"/><circle cx="189.11405972708422" cy="61.99910173920036" r="6.800000000000001" fill="#ffffff" stroke-width="1" stroke="#000000"/><circle cx="189.11405972708422" cy="61.99910173920036" r="4.08" stroke-width="1" stroke="#000000"/><text text-anchor="middle" fill="#000000" style="font: 1em courier, monospace;" x="240" y="216">gall</text><circle cx="240" cy="96" r="56" fill="#ffffff" stroke-width="1" stroke="#000000"/><circle cx="240" cy="96" r="53.199999999999996" stroke-width="1" stroke="#000000"/><circle cx="193.43647156143115" cy="76.71275500879948" r="5.6000000000000005" stroke-width="0" fill="#000000"/><circle cx="240" cy="96" r="43.99999999999999" fill="#ffffff" stroke-width="1" stroke="#000000"/><line x1="240" y1="96" x2="215.55490974713751" y2="59.41533705868802" stroke-width="1" stroke="#000000"/><line x1="240" y1="96" x2="203.415337058688" y2="120.44509025286249" stroke-width="1" stroke="#000000"/><circle cx="240" cy="96" r="31.999999999999993" fill="#ffffff" stroke-width="1" stroke="#000000"/><line x1="240" y1="96" x2="217.37258300203047" y2="73.37258300203048" stroke-width="1" stroke="#000000"/><line x1="240" y1="96" x2="217.3725830020305" y2="118.62741699796952" stroke-width="1" stroke="#000000"/><circle cx="320" cy="96" r="68" fill="#ffffff" stroke-width="1" stroke="#000000"/><circle cx="320" cy="96" r="64.6" stroke-width="1" stroke="#000000"/><circle cx="269.1140597270842" cy="61.99910173920036" r="6.800000000000001" fill="#ffffff" stroke-width="1" stroke="#000000"/><circle cx="269.1140597270842" cy="61.99910173920036" r="4.08" stroke-width="1" stroke="#000000"/><text text-anchor="middle" fill="#000000" style="font: 1em courier, monospace;" x="320" y="216">ifre</text><circle cx="320" cy="96" r="56" fill="#ffffff" stroke-width="1" stroke="#000000"/><line x1="320" y1="96" x2="298.56972778755494" y2="44.26274617936795" stroke-width="1" stroke="#000000"/><line x1="320" y1="96" x2="268.2627461793679" y2="117.43027221244503" stroke-width="1" stroke="#000000"/><circle cx="273.4364715614311" cy="76.71275500879948" r="5.6000000000000005" fill="#ffffff" stroke-width="1" stroke="#000000"/><circle cx="320" cy="96" r="43.99999999999999" fill="#ffffff" stroke-width="1" stroke="#000000"/><path d="M 287.0738033528192 118.00058122757625 A 39.599999999999994 39.599999999999994 0 0 1 297.9994187724238 63.07380335281921" stroke-width="1" stroke="#000000"/><line x1="320" y1="96" x2="283.415337058688" y2="120.44509025286249" stroke-width="1" stroke="#000000"/><line x1="320" y1="96" x2="295.5549097471375" y2="59.41533705868802" stroke-width="1" stroke="#000000"/><circle cx="285.44915811991723" cy="76.65059883672059" r="4.3999999999999995" stroke-width="0" fill="#000000"/><circle cx="280.67448910458495" cy="100.65448093933037" r="4.3999999999999995" stroke-width="0" fill="#000000"/><circle cx="320" cy="96" r="31.999999999999993" fill="#ffffff" stroke-width="1" stroke="#000000"/><circle cx="320" cy="96" r="30.39999999999999" stroke-width="1" stroke="#000000"/><circle cx="291.2" cy="96" r="3.1999999999999993" fill="#ffffff" stroke-width="1" stroke="#000000"/><circle cx="400" cy="96" r="56" fill="#ffffff" stroke-width="1" stroke="#000000"/><circle cx="400" cy="96" r="50.4" stroke-width="3" stroke="#000000"/><circle cx="368.7976649547844" cy="56.42002668361043" r="5.6000000000000005" stroke-width="0" fill="#000000"/><circle cx="351.49225608273616" cy="82.31940132680027" r="5.6000000000000005" fill="#ffffff" stroke-width="1" stroke="#000000"/><text text-anchor="middle" fill="#000000" style="font: 1em courier, monospace;" x="400" y="216">yan</text><circle cx="400" cy="96" r="43.99999999999999" fill="#ffffff" stroke-width="1" stroke="#000000"/><circle cx="400" cy="96" r="41.79999999999999" stroke-width="1" stroke="#000000"/><circle cx="363.41437051255303" cy="80.84573607834245" r="4.3999999999999995" stroke-width="0" fill="#000000"/><circle cx="400" cy="96" r="31.999999999999993" fill="#ffffff" stroke-width="1" stroke="#000000"/><path d="M 376.0536751656867 112.00042271096454 A 28.799999999999994 28.799999999999994 0 0 1 383.99957728903547 72.0536751656867" stroke-width="1" stroke="#000000"/><line x1="400" y1="96" x2="373.39297240631856" y2="113.77824745662727" stroke-width="1" stroke="#000000"/><line x1="400" y1="96" x2="382.22175254337276" y2="69.39297240631856" stroke-width="1" stroke="#000000"/><circle cx="371.753383924387" cy="90.3813987259355" r="3.1999999999999993" fill="#ffffff" stroke-width="1" stroke="#000000"/></g></svg>