<svg xmlns="http://www.w3.org/2000/svg" width="858" height="240" style="stroke:#000000;fill:transparent;"><rect width="858" height="240" fill="#ffffff" stroke-width="0"/><g transform="matrix(1 0 0 1 0 0)"><circle cx="66" cy="72" r="30" stroke-width="1" stroke="#000000"/><circle cx="66" cy="72" r="15" stroke="null" fill="#000000" stroke-width="0"/><circle cx="57" cy="72" r="6" stroke="#000000" fill="#ffffff" stroke-width="1"/><text text-anchor="middle" fill="#000000" style="font: 1em courier, monospace;" x="66" y="27">A</text><circle cx="132" cy="72" r="30" stroke-width="0" fill="#000000"/><circle cx="132" cy="72" r="15" stroke="#ffffff" fill="#ffffff" stroke-width="0"/><circle cx="117" cy="72" r="10.5" stroke="#000000" fill="#000000" stroke-width="5"/><text text-anchor="middle" fill="#000000" style="font: 1em courier, monospace;" x="132" y="27">r</text><circle cx="198" cy="72" r="30" stroke-width="0" fill="#000000"/><text text-anchor="middle" fill="#000000" style="font: 1em courier, monospace;" x="198" y="27">t</text><circle cx="264" cy="72" r="30" stroke-width="0" fill="#000000"/><circle cx="264" cy="72" r="15" stroke="#ffffff" fill="null" stroke-width="1"/><circle cx="264" cy="57" r="10.5" stroke="#ffffff" fill="null" stroke-width="1"/><circle cx="264" cy="87" r="6" stroke="#ffffff" fill="#000000" stroke-width="1"/><text text-anchor="middle" fill="#000000" style="font: 1em courier, monospace;" x="264" y="27">B</text><circle cx="330" cy="72" r="30" stroke-width="0" fill="#000000"/><circle cx="330" cy="72" r="15" stroke="#ffffff" fill="null" stroke-width="1"/><circle cx="315" cy="72" r="10.5" stroke="#ffffff" fill="null" stroke-width="1"/><text text-anchor="middle" fill="#000000" style="font: 1em courier, monospace;" x="330" y="27">y</text><circle cx="396" cy="72" r="30" stroke-width="0" fill="#000000"/><circle cx="396" cy="72" r="15" stroke="#ffffff" fill="null" stroke-width="1"/><circle cx="396" cy="57" r="10.5" stroke="#ffffff" fill="null" stroke-width="1"/><circle cx="396" cy="87" r="6" stroke="#ffffff" fill="#000000" stroke-width="1"/><text text-anchor="middle" fill="#000000" style="font: 1em courier, monospace;" x="396" y="27">B</text><circle cx="462" cy="72" r="30" stroke-width="0" fill="#000000"/><circle cx="462" cy="72" r="15" stroke="#ffffff" fill="#ffffff" stroke-width="0"/><text text-anchor="middle" fill="#000000" style="font: 1em courier, monospace;" x="462" y="27">o</text><circle cx="528" cy="72" r="30" stroke-width="0" fill="#000000"/><circle cx="528" cy="72" r="15" stroke="#ffffff" fill="#ffffff" stroke-width="0"/><circle cx="513" cy="72" r="10.5" stroke="#000000" fill="#000000" stroke-width="5"/><text text-anchor="middle" fill="#000000" style="font: 1em courier, monospace;" x="528" y="27">r</text><circle cx="594" cy="72" r="30" stroke-width="1" stroke="#000000"/><text text-anchor="middle" fill="#000000" style="font: 1em courier, monospace;" x="594" y="27">e</text><circle cx="660" cy="72" r="30" stroke-width="0" fill="#000000"/><circle cx="660" cy="72" r="15" stroke="#ffffff" fill="#ffffff" stroke-width="0"/><circle cx="660" cy="87" r="10.5" stroke="#000000" fill="#000000" stroke-width="5"/><text text-anchor="middle" fill="#000000" style="font: 1em courier, monospace;" x="660" y="27">d</text><circle cx="726" cy="72" r="30" stroke-width="0" fill="#000000"/><circle cx="726" cy="72" r="15" stroke="#ffffff" fill="#ffffff" stroke-width="0"/><text text-anchor="middle" fill="#000000" style="font: 1em courier, monospace;" x="726" y="27">o</text><circle cx="792" cy="72" r="30" stroke-width="0" fill="#000000"/><circle cx="792" cy="72" r="15" stroke="#ffffff" fill="#ffffff" stroke-width="0"/><circle cx="807" cy="72" r="10.5" stroke="#000000" fill="#000000" stroke-width="5"/><text text-anchor="middle" fill="#000000" style="font: 1em courier, monospace;" x="792" y="27">m</text><text text-anchor="middle" fill="#000000" style="font: 1em courier, monospace;" x="66" y="147"> </text><circle cx="132" cy="192" r="30" stroke-width="0" fill="#000000"/><circle cx="132" cy="192" r="15" stroke="#ffffff" fill="null" stroke-width="1"/><circle cx="132" cy="207" r="10.5" stroke="#ffffff" fill="null" stroke-width="1"/><circle cx="132" cy="177" r="6" stroke="#ffffff" fill="#000000" stroke-width="1"/><text text-anchor="middle" fill="#000000" style="font: 1em courier, monospace;" x="132" y="147">G</text><circle cx="198" cy="192" r="30" stroke-width="1" stroke="#000000"/><circle cx="198" cy="192" r="15" stroke="null" fill="#000000" stroke-width="0"/><text text-anchor="middle" fill="#000000" style="font: 1em courier, monospace;" x="198" y="147">a</text><circle cx="264" cy="192" r="30" stroke-width="1" stroke="#000000"/><circle cx="264" cy="192" r="15" stroke="null" fill="#000000" stroke-width="0"/><circle cx="264" cy="177" r="10.5" stroke="#ffffff" fill="#ffffff" stroke-width="5"/><text text-anchor="middle" fill="#000000" style="font: 1em courier, monospace;" x="264" y="147">l</text><circle cx="330" cy="192" r="30" stroke-width="1" stroke="#000000"/><circle cx="330" cy="192" r="15" stroke="null" fill="#000000" stroke-width="0"/><circle cx="330" cy="177" r="10.5" stroke="#ffffff" fill="#ffffff" stroke-width="5"/><text text-anchor="middle" fill="#000000" style="font: 1em courier, monospace;" x="330" y="147">l</text><circle cx="396" cy="192" r="30" stroke-width="1" stroke="#000000"/><circle cx="396" cy="192" r="15" stroke="#000000" fill="null" stroke-width="1"/><text text-anchor="middle" fill="#000000" style="font: 1em courier, monospace;" x="396" y="147">i</text><circle cx="462" cy="192" r="30" stroke-width="1" stroke="#000000"/><circle cx="462" cy="192" r="15" stroke="#000000" fill="null" stroke-width="1"/><circle cx="447" cy="192" r="10.5" stroke="#000000" fill="null" stroke-width="1"/><text text-anchor="middle" fill="#000000" style="font: 1em courier, monospace;" x="462" y="147">f</text><circle cx="528" cy="192" r="30" stroke-width="0" fill="#000000"/><circle cx="528" cy="192" r="15" stroke="#ffffff" fill="#ffffff" stroke-width="0"/><circle cx="513" cy="192" r="10.5" stroke="#000000" fill="#000000" stroke-width="5"/><text text-anchor="middle" fill="#000000" style="font: 1em courier, monospace;" x="528" y="147">r</text><circle cx="594" cy="192" r="30" stroke-width="1" stroke="#000000"/><text text-anchor="middle" fill="#000000" style="font: 1em courier, monospace;" x="594" y="147">e</text><circle cx="660" cy="192" r="30" stroke-width="0" fill="#000000"/><circle cx="660" cy="192" r="15" stroke="#ffffff" fill="null" stroke-width="1"/><circle cx="645" cy="192" r="10.5" stroke="#ffffff" fill="null" stroke-width="1"/><text text-anchor="middle" fill="#000000" style="font: 1em courier, monospace;" x="660" y="147">y</text><circle cx="726" cy="192" r="30" stroke-width="1" stroke="#000000"/><circle cx="726" cy="192" r="15" stroke="null" fill="#000000" stroke-width="0"/><text text-anchor="middle" fill="#000000" style="font: 1em courier, monospace;" x="726" y="147">a</text><circle cx="792" cy="192" r="30" stroke-width="0" fill="#000000"/><circle cx="792" cy="192" r="15" stroke="#ffffff" fill="null" stroke-width="1"/><text text-anchor="middle" fill="#000000" style="font: 1em courier, monospace;" x="792" y="147">n</text></g></svg>